<?xml version="1.0" encoding="UTF-8" standalone="no"?><svg xmlns="http://www.w3.org/2000/svg" xmlns:xlink="http://www.w3.org/1999/xlink" clip-rule="evenodd" stroke-miterlimit="10" viewBox="0 0 1024 768"><desc>SVG generated by Keynote</desc><defs></defs><g transform="matrix(1.00, 0.00, -0.00, -1.00, 0.0, 768.0)"><path d="M 0.0 768.0 L 1024.0 768.0 L 1024.0 0.0 L 0.0 0.0 Z M 0.0 768.0 " fill="#ECEAD5"></path><image xlink:href="../../29DFDB5E-73DA-4DDA-8FBC-2DA22ED010F4/assets/8E75D7116A7AF5660BBEA2E88C6DE961.png" width="714.00" height="69.00" transform="matrix(1.00, 0.00, -0.00, -1.00, 144.0, 738.0)"></image><text xml:space="preserve" font-family="HoeflerText-Regular,Hoefler Text" font-size="64.0" fill="#3B3B3B" transform="matrix(1.00, 0.00, -0.00, -1.00, 143.6, 689.9)">H</text><text xml:space="preserve" font-family="HoeflerText-Regular,Hoefler Text" font-size="64.0" fill="#3B3B3B" transform="matrix(1.00, 0.00, -0.00, -1.00, 197.1, 689.9)">a</text><text xml:space="preserve" font-family="HoeflerText-Regular,Hoefler Text" font-size="64.0" fill="#3B3B3B" transform="matrix(1.00, 0.00, -0.00, -1.00, 226.2, 689.9)">s</text><text xml:space="preserve" font-family="HoeflerText-Regular,Hoefler Text" font-size="64.0" fill="#3B3B3B" transform="matrix(1.00, 0.00, -0.00, -1.00, 250.7, 689.9)"> </text><text xml:space="preserve" font-family="HoeflerText-Regular,Hoefler Text" font-size="64.0" fill="#3B3B3B" transform="matrix(1.00, 0.00, -0.00, -1.00, 266.7, 689.9)">E</text><text xml:space="preserve" font-family="HoeflerText-Regular,Hoefler Text" font-size="64.0" fill="#3B3B3B" transform="matrix(1.00, 0.00, -0.00, -1.00, 308.4, 689.9)">s</text><text xml:space="preserve" font-family="HoeflerText-Regular,Hoefler Text" font-size="64.0" fill="#3B3B3B" transform="matrix(1.00, 0.00, -0.00, -1.00, 332.8, 689.9)">p</text><text xml:space="preserve" font-family="HoeflerText-Regular,Hoefler Text" font-size="64.0" fill="#3B3B3B" transform="matrix(1.00, 0.00, -0.00, -1.00, 367.9, 689.9)">e</text><text xml:space="preserve" font-family="HoeflerText-Regular,Hoefler Text" font-size="64.0" fill="#3B3B3B" transform="matrix(1.00, 0.00, -0.00, -1.00, 397.8, 689.9)">r</text><text xml:space="preserve" font-family="HoeflerText-Regular,Hoefler Text" font-size="64.0" fill="#3B3B3B" transform="matrix(1.00, 0.00, -0.00, -1.00, 421.6, 689.9)">a</text><text xml:space="preserve" font-family="HoeflerText-Regular,Hoefler Text" font-size="64.0" fill="#3B3B3B" transform="matrix(1.00, 0.00, -0.00, -1.00, 450.2, 689.9)">n</text><text xml:space="preserve" font-family="HoeflerText-Regular,Hoefler Text" font-size="64.0" fill="#3B3B3B" transform="matrix(1.00, 0.00, -0.00, -1.00, 485.2, 689.9)">t</text><text xml:space="preserve" font-family="HoeflerText-Regular,Hoefler Text" font-size="64.0" fill="#3B3B3B" transform="matrix(1.00, 0.00, -0.00, -1.00, 507.9, 689.9)">o</text><text xml:space="preserve" font-family="HoeflerText-Regular,Hoefler Text" font-size="64.0" fill="#3B3B3B" transform="matrix(1.00, 0.00, -0.00, -1.00, 542.2, 689.9)"> </text><text xml:space="preserve" font-family="HoeflerText-Regular,Hoefler Text" font-size="64.0" fill="#3B3B3B" transform="matrix(1.00, 0.00, -0.00, -1.00, 558.2, 689.9)">s</text><text xml:space="preserve" font-family="HoeflerText-Regular,Hoefler Text" font-size="64.0" fill="#3B3B3B" transform="matrix(1.00, 0.00, -0.00, -1.00, 582.7, 689.9)">u</text><text xml:space="preserve" font-family="HoeflerText-Regular,Hoefler Text" font-size="64.0" fill="#3B3B3B" transform="matrix(1.00, 0.00, -0.00, -1.00, 616.1, 689.9)">c</text><text xml:space="preserve" font-family="HoeflerText-Regular,Hoefler Text" font-size="64.0" fill="#3B3B3B" transform="matrix(1.00, 0.00, -0.00, -1.00, 645.7, 689.9)">c</text><text xml:space="preserve" font-family="HoeflerText-Regular,Hoefler Text" font-size="64.0" fill="#3B3B3B" transform="matrix(1.00, 0.00, -0.00, -1.00, 674.6, 689.9)">e</text><text xml:space="preserve" font-family="HoeflerText-Regular,Hoefler Text" font-size="64.0" fill="#3B3B3B" transform="matrix(1.00, 0.00, -0.00, -1.00, 704.6, 689.9)">e</text><text xml:space="preserve" font-family="HoeflerText-Regular,Hoefler Text" font-size="64.0" fill="#3B3B3B" transform="matrix(1.00, 0.00, -0.00, -1.00, 734.5, 689.9)">d</text><text xml:space="preserve" font-family="HoeflerText-Regular,Hoefler Text" font-size="64.0" fill="#3B3B3B" transform="matrix(1.00, 0.00, -0.00, -1.00, 769.2, 689.9)">e</text><text xml:space="preserve" font-family="HoeflerText-Regular,Hoefler Text" font-size="64.0" fill="#3B3B3B" transform="matrix(1.00, 0.00, -0.00, -1.00, 799.2, 689.9)">d</text><text xml:space="preserve" font-family="HoeflerText-Regular,Hoefler Text" font-size="64.0" fill="#3B3B3B" transform="matrix(1.00, 0.00, -0.00, -1.00, 833.9, 689.9)">?</text><text xml:space="preserve" font-family="HoeflerText-Regular,Hoefler Text" font-size="24.0" fill="#555239" transform="matrix(1.00, 0.00, -0.00, -1.00, 500.1, 12.7)"></text><image xlink:href="5E844E8AF5FF95D8737D92A0EE654FA7.png" width="26.00" height="22.00" transform="matrix(1.00, 0.00, -0.00, -1.00, 499.0, 31.0)"></image><text xml:space="preserve" font-family="HoeflerText-Regular,Hoefler Text" font-size="24.0" fill="#555239" transform="matrix(1.00, 0.00, -0.00, -1.00, 500.1, 12.7)">2</text><text xml:space="preserve" font-family="HoeflerText-Regular,Hoefler Text" font-size="24.0" fill="#555239" transform="matrix(1.00, 0.00, -0.00, -1.00, 510.8, 12.7)">8</text><image xlink:href="C478C6692BCE905FFB31B94EBA8F00E6.png" width="1280.00" height="720.00" transform="matrix(0.56, 0.00, -0.00, -0.56, 154.0, 480.1)"></image><image xlink:href="../../31056429-9E15-400A-8230-D02FA5BBA935/assets/5E652C73679FE762087A6555857AB717.png" width="202.00" height="40.00" transform="matrix(1.00, 0.00, -0.00, -1.00, 51.0, 641.0)"></image><text xml:space="preserve" font-family="HoeflerText-Black,Hoefler Text" font-weight="bold" font-size="48.0" fill="#303030" transform="matrix(1.00, 0.00, -0.00, -1.00, 50.1, 605.3)">E</text><text xml:space="preserve" font-family="HoeflerText-Black,Hoefler Text" font-weight="bold" font-size="48.0" fill="#303030" transform="matrix(1.00, 0.00, -0.00, -1.00, 85.9, 605.3)">f</text><text xml:space="preserve" font-family="HoeflerText-Black,Hoefler Text" font-weight="bold" font-size="48.0" fill="#303030" transform="matrix(1.00, 0.00, -0.00, -1.00, 105.1, 605.3)">f</text><text xml:space="preserve" font-family="HoeflerText-Black,Hoefler Text" font-weight="bold" font-size="48.0" fill="#303030" transform="matrix(1.00, 0.00, -0.00, -1.00, 124.3, 605.3)">i</text><text xml:space="preserve" font-family="HoeflerText-Black,Hoefler Text" font-weight="bold" font-size="48.0" fill="#303030" transform="matrix(1.00, 0.00, -0.00, -1.00, 140.1, 605.3)">c</text><text xml:space="preserve" font-family="HoeflerText-Black,Hoefler Text" font-weight="bold" font-size="48.0" fill="#303030" transform="matrix(1.00, 0.00, -0.00, -1.00, 165.1, 605.3)">i</text><text xml:space="preserve" font-family="HoeflerText-Black,Hoefler Text" font-weight="bold" font-size="48.0" fill="#303030" transform="matrix(1.00, 0.00, -0.00, -1.00, 180.9, 605.3)">e</text><text xml:space="preserve" font-family="HoeflerText-Black,Hoefler Text" font-weight="bold" font-size="48.0" fill="#303030" transform="matrix(1.00, 0.00, -0.00, -1.00, 206.7, 605.3)">n</text><text xml:space="preserve" font-family="HoeflerText-Black,Hoefler Text" font-weight="bold" font-size="48.0" fill="#303030" transform="matrix(1.00, 0.00, -0.00, -1.00, 236.8, 605.3)">t</text><image xlink:href="../../08563D04-DE72-4CC7-A2A6-DA5F573905E1/assets/876C146A43271FAE25FF16E52077C4A2.png" width="469.00" height="56.00" transform="matrix(1.00, 0.00, -0.00, -1.00, 263.0, 644.0)"></image><text xml:space="preserve" font-family="HoeflerText-Regular,Hoefler Text" font-size="48.0" fill="#303030" transform="matrix(1.00, 0.00, -0.00, -1.00, 250.4, 605.3)"> </text><text xml:space="preserve" font-family="HoeflerText-Regular,Hoefler Text" font-size="48.0" fill="#303030" transform="matrix(1.00, 0.00, -0.00, -1.00, 262.4, 605.3)">(</text><text xml:space="preserve" font-family="HoeflerText-Regular,Hoefler Text" font-size="48.0" fill="#303030" transform="matrix(1.00, 0.00, -0.00, -1.00, 276.5, 605.3)">l</text><text xml:space="preserve" font-family="HoeflerText-Regular,Hoefler Text" font-size="48.0" fill="#303030" transform="matrix(1.00, 0.00, -0.00, -1.00, 289.0, 605.3)">e</text><text xml:space="preserve" font-family="HoeflerText-Regular,Hoefler Text" font-size="48.0" fill="#303030" transform="matrix(1.00, 0.00, -0.00, -1.00, 311.4, 605.3)">a</text><text xml:space="preserve" font-family="HoeflerText-Regular,Hoefler Text" font-size="48.0" fill="#303030" transform="matrix(1.00, 0.00, -0.00, -1.00, 332.8, 605.3)">r</text><text xml:space="preserve" font-family="HoeflerText-Regular,Hoefler Text" font-size="48.0" fill="#303030" transform="matrix(1.00, 0.00, -0.00, -1.00, 351.2, 605.3)">n</text><text xml:space="preserve" font-family="HoeflerText-Regular,Hoefler Text" font-size="48.0" fill="#303030" transform="matrix(1.00, 0.00, -0.00, -1.00, 377.5, 605.3)">a</text><text xml:space="preserve" font-family="HoeflerText-Regular,Hoefler Text" font-size="48.0" fill="#303030" transform="matrix(1.00, 0.00, -0.00, -1.00, 398.9, 605.3)">b</text><text xml:space="preserve" font-family="HoeflerText-Regular,Hoefler Text" font-size="48.0" fill="#303030" transform="matrix(1.00, 0.00, -0.00, -1.00, 425.2, 605.3)">l</text><text xml:space="preserve" font-family="HoeflerText-Regular,Hoefler Text" font-size="48.0" fill="#303030" transform="matrix(1.00, 0.00, -0.00, -1.00, 437.6, 605.3)">e</text><text xml:space="preserve" font-family="HoeflerText-Regular,Hoefler Text" font-size="48.0" fill="#303030" transform="matrix(1.00, 0.00, -0.00, -1.00, 460.1, 605.3)">,</text><text xml:space="preserve" font-family="HoeflerText-Regular,Hoefler Text" font-size="48.0" fill="#303030" transform="matrix(1.00, 0.00, -0.00, -1.00, 471.9, 605.3)"> </text><text xml:space="preserve" font-family="HoeflerText-Regular,Hoefler Text" font-size="48.0" fill="#303030" transform="matrix(1.00, 0.00, -0.00, -1.00, 483.9, 605.3)">i</text><text xml:space="preserve" font-family="HoeflerText-Regular,Hoefler Text" font-size="48.0" fill="#303030" transform="matrix(1.00, 0.00, -0.00, -1.00, 497.4, 605.3)">n</text><text xml:space="preserve" font-family="HoeflerText-Regular,Hoefler Text" font-size="48.0" fill="#303030" transform="matrix(1.00, 0.00, -0.00, -1.00, 523.7, 605.3)">t</text><text xml:space="preserve" font-family="HoeflerText-Regular,Hoefler Text" font-size="48.0" fill="#303030" transform="matrix(1.00, 0.00, -0.00, -1.00, 540.7, 605.3)">e</text><text xml:space="preserve" font-family="HoeflerText-Regular,Hoefler Text" font-size="48.0" fill="#303030" transform="matrix(1.00, 0.00, -0.00, -1.00, 563.1, 605.3)">l</text><text xml:space="preserve" font-family="HoeflerText-Regular,Hoefler Text" font-size="48.0" fill="#303030" transform="matrix(1.00, 0.00, -0.00, -1.00, 576.1, 605.3)">l</text><text xml:space="preserve" font-family="HoeflerText-Regular,Hoefler Text" font-size="48.0" fill="#303030" transform="matrix(1.00, 0.00, -0.00, -1.00, 588.5, 605.3)">i</text><text xml:space="preserve" font-family="HoeflerText-Regular,Hoefler Text" font-size="48.0" fill="#303030" transform="matrix(1.00, 0.00, -0.00, -1.00, 601.9, 605.3)">g</text><text xml:space="preserve" font-family="HoeflerText-Regular,Hoefler Text" font-size="48.0" fill="#303030" transform="matrix(1.00, 0.00, -0.00, -1.00, 624.6, 605.3)">i</text><text xml:space="preserve" font-family="HoeflerText-Regular,Hoefler Text" font-size="48.0" fill="#303030" transform="matrix(1.00, 0.00, -0.00, -1.00, 638.0, 605.3)">b</text><text xml:space="preserve" font-family="HoeflerText-Regular,Hoefler Text" font-size="48.0" fill="#303030" transform="matrix(1.00, 0.00, -0.00, -1.00, 664.3, 605.3)">l</text><text xml:space="preserve" font-family="HoeflerText-Regular,Hoefler Text" font-size="48.0" fill="#303030" transform="matrix(1.00, 0.00, -0.00, -1.00, 676.8, 605.3)">e</text><text xml:space="preserve" font-family="HoeflerText-Regular,Hoefler Text" font-size="48.0" fill="#303030" transform="matrix(1.00, 0.00, -0.00, -1.00, 699.2, 605.3)">)</text><text xml:space="preserve" font-family="HoeflerText-Regular,Hoefler Text" font-size="48.0" fill="#303030" transform="matrix(1.00, 0.00, -0.00, -1.00, 713.4, 605.3)">?</text><image xlink:href="../../31056429-9E15-400A-8230-D02FA5BBA935/assets/8FB77FB1AF6248F8B2DC7BE5CB1DCA9E.png" width="21.00" height="21.00" transform="matrix(1.00, 0.00, -0.00, -1.00, 69.0, 562.0)"></image><text xml:space="preserve" font-family="HoeflerText-Regular,Hoefler Text" font-size="60.0" fill="#001D57" transform="matrix(1.00, 0.00, -0.00, -1.00, 68.1, 531.7)">•</text><image xlink:href="5508871A020CFB01ECAB964BC56C2DD9.png" width="552.00" height="54.00" transform="matrix(1.00, 0.00, -0.00, -1.00, 98.0, 572.0)"></image><text xml:space="preserve" font-family="HoeflerText-Regular,Hoefler Text" font-size="48.0" fill="#001D57" transform="matrix(1.00, 0.00, -0.00, -1.00, 98.1, 535.3)">K</text><text xml:space="preserve" font-family="HoeflerText-Regular,Hoefler Text" font-size="48.0" fill="#001D57" transform="matrix(1.00, 0.00, -0.00, -1.00, 133.7, 535.3)">o</text><text xml:space="preserve" font-family="HoeflerText-Regular,Hoefler Text" font-size="48.0" fill="#001D57" transform="matrix(1.00, 0.00, -0.00, -1.00, 159.5, 535.3)">n</text><text xml:space="preserve" font-family="HoeflerText-Regular,Hoefler Text" font-size="48.0" fill="#001D57" transform="matrix(1.00, 0.00, -0.00, -1.00, 185.8, 535.3)">s</text><text xml:space="preserve" font-family="HoeflerText-Regular,Hoefler Text" font-size="48.0" fill="#001D57" transform="matrix(1.00, 0.00, -0.00, -1.00, 204.1, 535.3)">t</text><text xml:space="preserve" font-family="HoeflerText-Regular,Hoefler Text" font-size="48.0" fill="#001D57" transform="matrix(1.00, 0.00, -0.00, -1.00, 221.8, 535.3)">a</text><text xml:space="preserve" font-family="HoeflerText-Regular,Hoefler Text" font-size="48.0" fill="#001D57" transform="matrix(1.00, 0.00, -0.00, -1.00, 243.2, 535.3)">n</text><text xml:space="preserve" font-family="HoeflerText-Regular,Hoefler Text" font-size="48.0" fill="#001D57" transform="matrix(1.00, 0.00, -0.00, -1.00, 269.5, 535.3)">t</text><text xml:space="preserve" font-family="HoeflerText-Regular,Hoefler Text" font-size="48.0" fill="#001D57" transform="matrix(1.00, 0.00, -0.00, -1.00, 287.2, 535.3)">i</text><text xml:space="preserve" font-family="HoeflerText-Regular,Hoefler Text" font-size="48.0" fill="#001D57" transform="matrix(1.00, 0.00, -0.00, -1.00, 300.7, 535.3)">n</text><text xml:space="preserve" font-family="HoeflerText-Regular,Hoefler Text" font-size="48.0" fill="#001D57" transform="matrix(1.00, 0.00, -0.00, -1.00, 327.0, 535.3)"> </text><text xml:space="preserve" font-family="HoeflerText-Regular,Hoefler Text" font-size="48.0" fill="#001D57" transform="matrix(1.00, 0.00, -0.00, -1.00, 336.6, 535.3)">A</text><text xml:space="preserve" font-family="HoeflerText-Regular,Hoefler Text" font-size="48.0" fill="#001D57" transform="matrix(1.00, 0.00, -0.00, -1.00, 371.8, 535.3)">n</text><text xml:space="preserve" font-family="HoeflerText-Regular,Hoefler Text" font-size="48.0" fill="#001D57" transform="matrix(1.00, 0.00, -0.00, -1.00, 398.1, 535.3)">d</text><text xml:space="preserve" font-family="HoeflerText-Regular,Hoefler Text" font-size="48.0" fill="#001D57" transform="matrix(1.00, 0.00, -0.00, -1.00, 424.1, 535.3)">r</text><text xml:space="preserve" font-family="HoeflerText-Regular,Hoefler Text" font-size="48.0" fill="#001D57" transform="matrix(1.00, 0.00, -0.00, -1.00, 442.0, 535.3)">e</text><text xml:space="preserve" font-family="HoeflerText-Regular,Hoefler Text" font-size="48.0" fill="#001D57" transform="matrix(1.00, 0.00, -0.00, -1.00, 464.5, 535.3)">e</text><text xml:space="preserve" font-family="HoeflerText-Regular,Hoefler Text" font-size="48.0" fill="#001D57" transform="matrix(1.00, 0.00, -0.00, -1.00, 487.4, 535.3)">v</text><text xml:space="preserve" font-family="HoeflerText-Regular,Hoefler Text" font-size="48.0" fill="#001D57" transform="matrix(1.00, 0.00, -0.00, -1.00, 509.2, 535.3)"> </text><text xml:space="preserve" font-family="HoeflerText-Regular,Hoefler Text" font-size="48.0" fill="#001D57" transform="matrix(1.00, 0.00, -0.00, -1.00, 521.2, 535.3)">s</text><text xml:space="preserve" font-family="HoeflerText-Regular,Hoefler Text" font-size="48.0" fill="#001D57" transform="matrix(1.00, 0.00, -0.00, -1.00, 539.6, 535.3)">a</text><text xml:space="preserve" font-family="HoeflerText-Regular,Hoefler Text" font-size="48.0" fill="#001D57" transform="matrix(1.00, 0.00, -0.00, -1.00, 561.0, 535.3)">y</text><text xml:space="preserve" font-family="HoeflerText-Regular,Hoefler Text" font-size="48.0" fill="#001D57" transform="matrix(1.00, 0.00, -0.00, -1.00, 583.0, 535.3)">s</text><text xml:space="preserve" font-family="HoeflerText-Regular,Hoefler Text" font-size="48.0" fill="#001D57" transform="matrix(1.00, 0.00, -0.00, -1.00, 601.3, 535.3)"> </text><text xml:space="preserve" font-family="HoeflerText-Regular,Hoefler Text" font-size="48.0" fill="#001D57" transform="matrix(1.00, 0.00, -0.00, -1.00, 613.3, 535.3)">…</text></g></svg>