<?xml version="1.0" encoding="UTF-8" standalone="no"?><svg xmlns="http://www.w3.org/2000/svg" xmlns:xlink="http://www.w3.org/1999/xlink" clip-rule="evenodd" stroke-miterlimit="10" viewBox="0 0 1024 768"><desc>SVG generated by Keynote</desc><defs></defs><g transform="matrix(1.00, 0.00, -0.00, -1.00, 0.0, 768.0)"><path d="M 0.0 768.0 L 1024.0 768.0 L 1024.0 0.0 L 0.0 0.0 Z M 0.0 768.0 " fill="#ECEAD5"></path><image xlink:href="../../29DFDB5E-73DA-4DDA-8FBC-2DA22ED010F4/assets/8E75D7116A7AF5660BBEA2E88C6DE961.png" width="714.00" height="69.00" transform="matrix(1.00, 0.00, -0.00, -1.00, 144.0, 738.0)"></image><text xml:space="preserve" font-family="HoeflerText-Regular,Hoefler Text" font-size="64.0" fill="#3B3B3B" transform="matrix(1.00, 0.00, -0.00, -1.00, 143.6, 689.9)">H</text><text xml:space="preserve" font-family="HoeflerText-Regular,Hoefler Text" font-size="64.0" fill="#3B3B3B" transform="matrix(1.00, 0.00, -0.00, -1.00, 197.1, 689.9)">a</text><text xml:space="preserve" font-family="HoeflerText-Regular,Hoefler Text" font-size="64.0" fill="#3B3B3B" transform="matrix(1.00, 0.00, -0.00, -1.00, 226.2, 689.9)">s</text><text xml:space="preserve" font-family="HoeflerText-Regular,Hoefler Text" font-size="64.0" fill="#3B3B3B" transform="matrix(1.00, 0.00, -0.00, -1.00, 250.7, 689.9)"> </text><text xml:space="preserve" font-family="HoeflerText-Regular,Hoefler Text" font-size="64.0" fill="#3B3B3B" transform="matrix(1.00, 0.00, -0.00, -1.00, 266.7, 689.9)">E</text><text xml:space="preserve" font-family="HoeflerText-Regular,Hoefler Text" font-size="64.0" fill="#3B3B3B" transform="matrix(1.00, 0.00, -0.00, -1.00, 308.4, 689.9)">s</text><text xml:space="preserve" font-family="HoeflerText-Regular,Hoefler Text" font-size="64.0" fill="#3B3B3B" transform="matrix(1.00, 0.00, -0.00, -1.00, 332.8, 689.9)">p</text><text xml:space="preserve" font-family="HoeflerText-Regular,Hoefler Text" font-size="64.0" fill="#3B3B3B" transform="matrix(1.00, 0.00, -0.00, -1.00, 367.9, 689.9)">e</text><text xml:space="preserve" font-family="HoeflerText-Regular,Hoefler Text" font-size="64.0" fill="#3B3B3B" transform="matrix(1.00, 0.00, -0.00, -1.00, 397.8, 689.9)">r</text><text xml:space="preserve" font-family="HoeflerText-Regular,Hoefler Text" font-size="64.0" fill="#3B3B3B" transform="matrix(1.00, 0.00, -0.00, -1.00, 421.6, 689.9)">a</text><text xml:space="preserve" font-family="HoeflerText-Regular,Hoefler Text" font-size="64.0" fill="#3B3B3B" transform="matrix(1.00, 0.00, -0.00, -1.00, 450.2, 689.9)">n</text><text xml:space="preserve" font-family="HoeflerText-Regular,Hoefler Text" font-size="64.0" fill="#3B3B3B" transform="matrix(1.00, 0.00, -0.00, -1.00, 485.2, 689.9)">t</text><text xml:space="preserve" font-family="HoeflerText-Regular,Hoefler Text" font-size="64.0" fill="#3B3B3B" transform="matrix(1.00, 0.00, -0.00, -1.00, 507.9, 689.9)">o</text><text xml:space="preserve" font-family="HoeflerText-Regular,Hoefler Text" font-size="64.0" fill="#3B3B3B" transform="matrix(1.00, 0.00, -0.00, -1.00, 542.2, 689.9)"> </text><text xml:space="preserve" font-family="HoeflerText-Regular,Hoefler Text" font-size="64.0" fill="#3B3B3B" transform="matrix(1.00, 0.00, -0.00, -1.00, 558.2, 689.9)">s</text><text xml:space="preserve" font-family="HoeflerText-Regular,Hoefler Text" font-size="64.0" fill="#3B3B3B" transform="matrix(1.00, 0.00, -0.00, -1.00, 582.7, 689.9)">u</text><text xml:space="preserve" font-family="HoeflerText-Regular,Hoefler Text" font-size="64.0" fill="#3B3B3B" transform="matrix(1.00, 0.00, -0.00, -1.00, 616.1, 689.9)">c</text><text xml:space="preserve" font-family="HoeflerText-Regular,Hoefler Text" font-size="64.0" fill="#3B3B3B" transform="matrix(1.00, 0.00, -0.00, -1.00, 645.7, 689.9)">c</text><text xml:space="preserve" font-family="HoeflerText-Regular,Hoefler Text" font-size="64.0" fill="#3B3B3B" transform="matrix(1.00, 0.00, -0.00, -1.00, 674.6, 689.9)">e</text><text xml:space="preserve" font-family="HoeflerText-Regular,Hoefler Text" font-size="64.0" fill="#3B3B3B" transform="matrix(1.00, 0.00, -0.00, -1.00, 704.6, 689.9)">e</text><text xml:space="preserve" font-family="HoeflerText-Regular,Hoefler Text" font-size="64.0" fill="#3B3B3B" transform="matrix(1.00, 0.00, -0.00, -1.00, 734.5, 689.9)">d</text><text xml:space="preserve" font-family="HoeflerText-Regular,Hoefler Text" font-size="64.0" fill="#3B3B3B" transform="matrix(1.00, 0.00, -0.00, -1.00, 769.2, 689.9)">e</text><text xml:space="preserve" font-family="HoeflerText-Regular,Hoefler Text" font-size="64.0" fill="#3B3B3B" transform="matrix(1.00, 0.00, -0.00, -1.00, 799.2, 689.9)">d</text><text xml:space="preserve" font-family="HoeflerText-Regular,Hoefler Text" font-size="64.0" fill="#3B3B3B" transform="matrix(1.00, 0.00, -0.00, -1.00, 833.9, 689.9)">?</text><image xlink:href="../../31056429-9E15-400A-8230-D02FA5BBA935/assets/13885E107BF5B665641C71C8083581DD.png" width="226.00" height="41.00" transform="matrix(1.00, 0.00, -0.00, -1.00, 49.0, 642.0)"></image><text xml:space="preserve" font-family="HoeflerText-Black,Hoefler Text" font-weight="bold" font-size="48.0" fill="#303030" transform="matrix(1.00, 0.00, -0.00, -1.00, 50.1, 605.3)">U</text><text xml:space="preserve" font-family="HoeflerText-Black,Hoefler Text" font-weight="bold" font-size="48.0" fill="#303030" transform="matrix(1.00, 0.00, -0.00, -1.00, 87.3, 605.3)">n</text><text xml:space="preserve" font-family="HoeflerText-Black,Hoefler Text" font-weight="bold" font-size="48.0" fill="#303030" transform="matrix(1.00, 0.00, -0.00, -1.00, 117.3, 605.3)">i</text><text xml:space="preserve" font-family="HoeflerText-Black,Hoefler Text" font-weight="bold" font-size="48.0" fill="#303030" transform="matrix(1.00, 0.00, -0.00, -1.00, 133.1, 605.3)">v</text><text xml:space="preserve" font-family="HoeflerText-Black,Hoefler Text" font-weight="bold" font-size="48.0" fill="#303030" transform="matrix(1.00, 0.00, -0.00, -1.00, 159.0, 605.3)">e</text><text xml:space="preserve" font-family="HoeflerText-Black,Hoefler Text" font-weight="bold" font-size="48.0" fill="#303030" transform="matrix(1.00, 0.00, -0.00, -1.00, 184.9, 605.3)">r</text><text xml:space="preserve" font-family="HoeflerText-Black,Hoefler Text" font-weight="bold" font-size="48.0" fill="#303030" transform="matrix(1.00, 0.00, -0.00, -1.00, 207.4, 605.3)">s</text><text xml:space="preserve" font-family="HoeflerText-Black,Hoefler Text" font-weight="bold" font-size="48.0" fill="#303030" transform="matrix(1.00, 0.00, -0.00, -1.00, 230.2, 605.3)">a</text><text xml:space="preserve" font-family="HoeflerText-Black,Hoefler Text" font-weight="bold" font-size="48.0" fill="#303030" transform="matrix(1.00, 0.00, -0.00, -1.00, 255.8, 605.3)">l</text><image xlink:href="../../6EBD4AB0-9928-4E8A-B858-3090DE368A6B/assets/0B363F7F468B37998ED10DB0620CD551.png" width="643.00" height="47.00" transform="matrix(1.00, 0.00, -0.00, -1.00, 284.0, 644.0)"></image><text xml:space="preserve" font-family="HoeflerText-Regular,Hoefler Text" font-size="48.0" fill="#303030" transform="matrix(1.00, 0.00, -0.00, -1.00, 271.0, 605.3)"> </text><text xml:space="preserve" font-family="HoeflerText-Regular,Hoefler Text" font-size="48.0" fill="#303030" transform="matrix(1.00, 0.00, -0.00, -1.00, 283.0, 605.3)">(</text><text xml:space="preserve" font-family="HoeflerText-Regular,Hoefler Text" font-size="48.0" fill="#303030" transform="matrix(1.00, 0.00, -0.00, -1.00, 297.1, 605.3)">w</text><text xml:space="preserve" font-family="HoeflerText-Regular,Hoefler Text" font-size="48.0" fill="#303030" transform="matrix(1.00, 0.00, -0.00, -1.00, 330.3, 605.3)">o</text><text xml:space="preserve" font-family="HoeflerText-Regular,Hoefler Text" font-size="48.0" fill="#303030" transform="matrix(1.00, 0.00, -0.00, -1.00, 356.1, 605.3)">r</text><text xml:space="preserve" font-family="HoeflerText-Regular,Hoefler Text" font-size="48.0" fill="#303030" transform="matrix(1.00, 0.00, -0.00, -1.00, 373.9, 605.3)">l</text><text xml:space="preserve" font-family="HoeflerText-Regular,Hoefler Text" font-size="48.0" fill="#303030" transform="matrix(1.00, 0.00, -0.00, -1.00, 386.4, 605.3)">d</text><text xml:space="preserve" font-family="HoeflerText-Regular,Hoefler Text" font-size="48.0" fill="#303030" transform="matrix(1.00, 0.00, -0.00, -1.00, 412.4, 605.3)">-</text><text xml:space="preserve" font-family="HoeflerText-Regular,Hoefler Text" font-size="48.0" fill="#303030" transform="matrix(1.00, 0.00, -0.00, -1.00, 427.6, 605.3)">w</text><text xml:space="preserve" font-family="HoeflerText-Regular,Hoefler Text" font-size="48.0" fill="#303030" transform="matrix(1.00, 0.00, -0.00, -1.00, 461.1, 605.3)">i</text><text xml:space="preserve" font-family="HoeflerText-Regular,Hoefler Text" font-size="48.0" fill="#303030" transform="matrix(1.00, 0.00, -0.00, -1.00, 474.6, 605.3)">d</text><text xml:space="preserve" font-family="HoeflerText-Regular,Hoefler Text" font-size="48.0" fill="#303030" transform="matrix(1.00, 0.00, -0.00, -1.00, 500.6, 605.3)">e</text><text xml:space="preserve" font-family="HoeflerText-Regular,Hoefler Text" font-size="48.0" fill="#303030" transform="matrix(1.00, 0.00, -0.00, -1.00, 523.1, 605.3)"> </text><text xml:space="preserve" font-family="HoeflerText-Regular,Hoefler Text" font-size="48.0" fill="#303030" transform="matrix(1.00, 0.00, -0.00, -1.00, 535.1, 605.3)">u</text><text xml:space="preserve" font-family="HoeflerText-Regular,Hoefler Text" font-size="48.0" fill="#303030" transform="matrix(1.00, 0.00, -0.00, -1.00, 560.2, 605.3)">s</text><text xml:space="preserve" font-family="HoeflerText-Regular,Hoefler Text" font-size="48.0" fill="#303030" transform="matrix(1.00, 0.00, -0.00, -1.00, 578.5, 605.3)">e</text><text xml:space="preserve" font-family="HoeflerText-Regular,Hoefler Text" font-size="48.0" fill="#303030" transform="matrix(1.00, 0.00, -0.00, -1.00, 601.0, 605.3)"> </text><text xml:space="preserve" font-family="HoeflerText-Regular,Hoefler Text" font-size="48.0" fill="#303030" transform="matrix(1.00, 0.00, -0.00, -1.00, 613.0, 605.3)">i</text><text xml:space="preserve" font-family="HoeflerText-Regular,Hoefler Text" font-size="48.0" fill="#303030" transform="matrix(1.00, 0.00, -0.00, -1.00, 626.4, 605.3)">n</text><text xml:space="preserve" font-family="HoeflerText-Regular,Hoefler Text" font-size="48.0" fill="#303030" transform="matrix(1.00, 0.00, -0.00, -1.00, 652.7, 605.3)"> </text><text xml:space="preserve" font-family="HoeflerText-Regular,Hoefler Text" font-size="48.0" fill="#303030" transform="matrix(1.00, 0.00, -0.00, -1.00, 664.7, 605.3)">a</text><text xml:space="preserve" font-family="HoeflerText-Regular,Hoefler Text" font-size="48.0" fill="#303030" transform="matrix(1.00, 0.00, -0.00, -1.00, 686.1, 605.3)">l</text><text xml:space="preserve" font-family="HoeflerText-Regular,Hoefler Text" font-size="48.0" fill="#303030" transform="matrix(1.00, 0.00, -0.00, -1.00, 699.0, 605.3)">l</text><text xml:space="preserve" font-family="HoeflerText-Regular,Hoefler Text" font-size="48.0" fill="#303030" transform="matrix(1.00, 0.00, -0.00, -1.00, 711.5, 605.3)"> </text><text xml:space="preserve" font-family="HoeflerText-Regular,Hoefler Text" font-size="48.0" fill="#303030" transform="matrix(1.00, 0.00, -0.00, -1.00, 723.5, 605.3)">d</text><text xml:space="preserve" font-family="HoeflerText-Regular,Hoefler Text" font-size="48.0" fill="#303030" transform="matrix(1.00, 0.00, -0.00, -1.00, 749.5, 605.3)">o</text><text xml:space="preserve" font-family="HoeflerText-Regular,Hoefler Text" font-size="48.0" fill="#303030" transform="matrix(1.00, 0.00, -0.00, -1.00, 775.2, 605.3)">m</text><text xml:space="preserve" font-family="HoeflerText-Regular,Hoefler Text" font-size="48.0" fill="#303030" transform="matrix(1.00, 0.00, -0.00, -1.00, 814.9, 605.3)">a</text><text xml:space="preserve" font-family="HoeflerText-Regular,Hoefler Text" font-size="48.0" fill="#303030" transform="matrix(1.00, 0.00, -0.00, -1.00, 836.3, 605.3)">i</text><text xml:space="preserve" font-family="HoeflerText-Regular,Hoefler Text" font-size="48.0" fill="#303030" transform="matrix(1.00, 0.00, -0.00, -1.00, 849.8, 605.3)">n</text><text xml:space="preserve" font-family="HoeflerText-Regular,Hoefler Text" font-size="48.0" fill="#303030" transform="matrix(1.00, 0.00, -0.00, -1.00, 876.1, 605.3)">s</text><text xml:space="preserve" font-family="HoeflerText-Regular,Hoefler Text" font-size="48.0" fill="#303030" transform="matrix(1.00, 0.00, -0.00, -1.00, 894.4, 605.3)">)</text><text xml:space="preserve" font-family="HoeflerText-Regular,Hoefler Text" font-size="48.0" fill="#303030" transform="matrix(1.00, 0.00, -0.00, -1.00, 908.6, 605.3)">?</text><image xlink:href="../../31056429-9E15-400A-8230-D02FA5BBA935/assets/8FB77FB1AF6248F8B2DC7BE5CB1DCA9E.png" width="21.00" height="21.00" transform="matrix(1.00, 0.00, -0.00, -1.00, 69.0, 562.0)"></image><text xml:space="preserve" font-family="HoeflerText-Regular,Hoefler Text" font-size="60.0" fill="#303030" transform="matrix(1.00, 0.00, -0.00, -1.00, 68.1, 531.7)">•</text><image xlink:href="9FC5E1B5B3C0CCC9E65715CEA7F356EB.png" width="745.00" height="54.00" transform="matrix(1.00, 0.00, -0.00, -1.00, 97.0, 572.0)"></image><text xml:space="preserve" font-family="HoeflerText-Regular,Hoefler Text" font-size="48.0" fill="#303030" transform="matrix(1.00, 0.00, -0.00, -1.00, 98.1, 535.3)">U</text><text xml:space="preserve" font-family="HoeflerText-Regular,Hoefler Text" font-size="48.0" fill="#303030" transform="matrix(1.00, 0.00, -0.00, -1.00, 132.8, 535.3)">s</text><text xml:space="preserve" font-family="HoeflerText-Regular,Hoefler Text" font-size="48.0" fill="#303030" transform="matrix(1.00, 0.00, -0.00, -1.00, 151.2, 535.3)">e</text><text xml:space="preserve" font-family="HoeflerText-Regular,Hoefler Text" font-size="48.0" fill="#303030" transform="matrix(1.00, 0.00, -0.00, -1.00, 173.6, 535.3)">d</text><text xml:space="preserve" font-family="HoeflerText-Regular,Hoefler Text" font-size="48.0" fill="#303030" transform="matrix(1.00, 0.00, -0.00, -1.00, 199.6, 535.3)"> </text><text xml:space="preserve" font-family="HoeflerText-Regular,Hoefler Text" font-size="48.0" fill="#303030" transform="matrix(1.00, 0.00, -0.00, -1.00, 211.6, 535.3)">s</text><text xml:space="preserve" font-family="HoeflerText-Regular,Hoefler Text" font-size="48.0" fill="#303030" transform="matrix(1.00, 0.00, -0.00, -1.00, 230.0, 535.3)">p</text><text xml:space="preserve" font-family="HoeflerText-Regular,Hoefler Text" font-size="48.0" fill="#303030" transform="matrix(1.00, 0.00, -0.00, -1.00, 256.3, 535.3)">a</text><text xml:space="preserve" font-family="HoeflerText-Regular,Hoefler Text" font-size="48.0" fill="#303030" transform="matrix(1.00, 0.00, -0.00, -1.00, 277.7, 535.3)">r</text><text xml:space="preserve" font-family="HoeflerText-Regular,Hoefler Text" font-size="48.0" fill="#303030" transform="matrix(1.00, 0.00, -0.00, -1.00, 295.5, 535.3)">i</text><text xml:space="preserve" font-family="HoeflerText-Regular,Hoefler Text" font-size="48.0" fill="#303030" transform="matrix(1.00, 0.00, -0.00, -1.00, 309.0, 535.3)">n</text><text xml:space="preserve" font-family="HoeflerText-Regular,Hoefler Text" font-size="48.0" fill="#303030" transform="matrix(1.00, 0.00, -0.00, -1.00, 335.3, 535.3)">g</text><text xml:space="preserve" font-family="HoeflerText-Regular,Hoefler Text" font-size="48.0" fill="#303030" transform="matrix(1.00, 0.00, -0.00, -1.00, 357.9, 535.3)">l</text><text xml:space="preserve" font-family="HoeflerText-Regular,Hoefler Text" font-size="48.0" fill="#303030" transform="matrix(1.00, 0.00, -0.00, -1.00, 371.1, 535.3)">y</text><text xml:space="preserve" font-family="HoeflerText-Regular,Hoefler Text" font-size="48.0" fill="#303030" transform="matrix(1.00, 0.00, -0.00, -1.00, 393.1, 535.3)"> </text><text xml:space="preserve" font-family="HoeflerText-Regular,Hoefler Text" font-size="48.0" fill="#303030" transform="matrix(1.00, 0.00, -0.00, -1.00, 405.1, 535.3)">i</text><text xml:space="preserve" font-family="HoeflerText-Regular,Hoefler Text" font-size="48.0" fill="#303030" transform="matrix(1.00, 0.00, -0.00, -1.00, 418.5, 535.3)">n</text><text xml:space="preserve" font-family="HoeflerText-Regular,Hoefler Text" font-size="48.0" fill="#303030" transform="matrix(1.00, 0.00, -0.00, -1.00, 444.8, 535.3)"> </text><text xml:space="preserve" font-family="HoeflerText-Regular,Hoefler Text" font-size="48.0" fill="#303030" transform="matrix(1.00, 0.00, -0.00, -1.00, 456.8, 535.3)">m</text><text xml:space="preserve" font-family="HoeflerText-Regular,Hoefler Text" font-size="48.0" fill="#303030" transform="matrix(1.00, 0.00, -0.00, -1.00, 496.5, 535.3)">u</text><text xml:space="preserve" font-family="HoeflerText-Regular,Hoefler Text" font-size="48.0" fill="#303030" transform="matrix(1.00, 0.00, -0.00, -1.00, 521.6, 535.3)">s</text><text xml:space="preserve" font-family="HoeflerText-Regular,Hoefler Text" font-size="48.0" fill="#303030" transform="matrix(1.00, 0.00, -0.00, -1.00, 540.0, 535.3)">i</text><text xml:space="preserve" font-family="HoeflerText-Regular,Hoefler Text" font-size="48.0" fill="#303030" transform="matrix(1.00, 0.00, -0.00, -1.00, 553.4, 535.3)">c</text><text xml:space="preserve" font-family="HoeflerText-Regular,Hoefler Text" font-size="48.0" fill="#303030" transform="matrix(1.00, 0.00, -0.00, -1.00, 575.6, 535.3)">,</text><text xml:space="preserve" font-family="HoeflerText-Regular,Hoefler Text" font-size="48.0" fill="#303030" transform="matrix(1.00, 0.00, -0.00, -1.00, 587.4, 535.3)"> </text><text xml:space="preserve" font-family="HoeflerText-Regular,Hoefler Text" font-size="48.0" fill="#303030" transform="matrix(1.00, 0.00, -0.00, -1.00, 599.4, 535.3)">t</text><text xml:space="preserve" font-family="HoeflerText-Regular,Hoefler Text" font-size="48.0" fill="#303030" transform="matrix(1.00, 0.00, -0.00, -1.00, 617.1, 535.3)">h</text><text xml:space="preserve" font-family="HoeflerText-Regular,Hoefler Text" font-size="48.0" fill="#303030" transform="matrix(1.00, 0.00, -0.00, -1.00, 643.7, 535.3)">e</text><text xml:space="preserve" font-family="HoeflerText-Regular,Hoefler Text" font-size="48.0" fill="#303030" transform="matrix(1.00, 0.00, -0.00, -1.00, 666.2, 535.3)">a</text><text xml:space="preserve" font-family="HoeflerText-Regular,Hoefler Text" font-size="48.0" fill="#303030" transform="matrix(1.00, 0.00, -0.00, -1.00, 687.6, 535.3)">t</text><text xml:space="preserve" font-family="HoeflerText-Regular,Hoefler Text" font-size="48.0" fill="#303030" transform="matrix(1.00, 0.00, -0.00, -1.00, 704.6, 535.3)">e</text><text xml:space="preserve" font-family="HoeflerText-Regular,Hoefler Text" font-size="48.0" fill="#303030" transform="matrix(1.00, 0.00, -0.00, -1.00, 727.1, 535.3)">r</text><text xml:space="preserve" font-family="HoeflerText-Regular,Hoefler Text" font-size="48.0" fill="#303030" transform="matrix(1.00, 0.00, -0.00, -1.00, 741.5, 535.3)">,</text><text xml:space="preserve" font-family="HoeflerText-Regular,Hoefler Text" font-size="48.0" fill="#303030" transform="matrix(1.00, 0.00, -0.00, -1.00, 753.3, 535.3)"> </text><text xml:space="preserve" font-family="HoeflerText-Regular,Hoefler Text" font-size="48.0" fill="#303030" transform="matrix(1.00, 0.00, -0.00, -1.00, 765.3, 535.3)">a</text><text xml:space="preserve" font-family="HoeflerText-Regular,Hoefler Text" font-size="48.0" fill="#303030" transform="matrix(1.00, 0.00, -0.00, -1.00, 786.7, 535.3)">n</text><text xml:space="preserve" font-family="HoeflerText-Regular,Hoefler Text" font-size="48.0" fill="#303030" transform="matrix(1.00, 0.00, -0.00, -1.00, 813.0, 535.3)">d</text><text xml:space="preserve" font-family="HoeflerText-Regular,Hoefler Text" font-size="48.0" fill="#303030" transform="matrix(1.00, 0.00, -0.00, -1.00, 839.0, 535.3)"> </text><image xlink:href="DCCA2495CE68B5342FA4D7C3C8BCC2F4.png" width="149.00" height="38.00" transform="matrix(1.00, 0.00, -0.00, -1.00, 98.0, 511.0)"></image><text xml:space="preserve" font-family="HoeflerText-Regular,Hoefler Text" font-size="48.0" fill="#303030" transform="matrix(1.00, 0.00, -0.00, -1.00, 98.1, 477.3)">c</text><text xml:space="preserve" font-family="HoeflerText-Regular,Hoefler Text" font-size="48.0" fill="#303030" transform="matrix(1.00, 0.00, -0.00, -1.00, 120.3, 477.3)">i</text><text xml:space="preserve" font-family="HoeflerText-Regular,Hoefler Text" font-size="48.0" fill="#303030" transform="matrix(1.00, 0.00, -0.00, -1.00, 133.7, 477.3)">n</text><text xml:space="preserve" font-family="HoeflerText-Regular,Hoefler Text" font-size="48.0" fill="#303030" transform="matrix(1.00, 0.00, -0.00, -1.00, 160.0, 477.3)">e</text><text xml:space="preserve" font-family="HoeflerText-Regular,Hoefler Text" font-size="48.0" fill="#303030" transform="matrix(1.00, 0.00, -0.00, -1.00, 182.5, 477.3)">m</text><text xml:space="preserve" font-family="HoeflerText-Regular,Hoefler Text" font-size="48.0" fill="#303030" transform="matrix(1.00, 0.00, -0.00, -1.00, 222.2, 477.3)">a</text><text xml:space="preserve" font-family="HoeflerText-Regular,Hoefler Text" font-size="24.0" fill="#555239" transform="matrix(1.00, 0.00, -0.00, -1.00, 500.2, 12.7)"></text><image xlink:href="5DAC75426D221170B61124E620585583.png" width="25.00" height="21.00" transform="matrix(1.00, 0.00, -0.00, -1.00, 500.0, 25.0)"></image><text xml:space="preserve" font-family="HoeflerText-Regular,Hoefler Text" font-size="24.0" fill="#555239" transform="matrix(1.00, 0.00, -0.00, -1.00, 500.2, 12.7)">1</text><text xml:space="preserve" font-family="HoeflerText-Regular,Hoefler Text" font-size="24.0" fill="#555239" transform="matrix(1.00, 0.00, -0.00, -1.00, 509.3, 12.7)">4</text></g></svg>