<?xml version="1.0" encoding="UTF-8" standalone="no"?><svg xmlns="http://www.w3.org/2000/svg" xmlns:xlink="http://www.w3.org/1999/xlink" clip-rule="evenodd" stroke-miterlimit="10" viewBox="0 0 1024 768"><desc>SVG generated by Keynote</desc><defs></defs><g transform="matrix(1.00, 0.00, -0.00, -1.00, 0.0, 768.0)"><path d="M 0.0 768.0 L 1024.0 768.0 L 1024.0 0.0 L 0.0 0.0 Z M 0.0 768.0 " fill="#ECEAD5"></path><image xlink:href="8E75D7116A7AF5660BBEA2E88C6DE961.png" width="714.00" height="69.00" transform="matrix(1.00, 0.00, -0.00, -1.00, 144.0, 738.0)"></image><text xml:space="preserve" font-family="HoeflerText-Regular,Hoefler Text" font-size="64.0" fill="#3B3B3B" transform="matrix(1.00, 0.00, -0.00, -1.00, 143.6, 689.9)">H</text><text xml:space="preserve" font-family="HoeflerText-Regular,Hoefler Text" font-size="64.0" fill="#3B3B3B" transform="matrix(1.00, 0.00, -0.00, -1.00, 197.1, 689.9)">a</text><text xml:space="preserve" font-family="HoeflerText-Regular,Hoefler Text" font-size="64.0" fill="#3B3B3B" transform="matrix(1.00, 0.00, -0.00, -1.00, 226.2, 689.9)">s</text><text xml:space="preserve" font-family="HoeflerText-Regular,Hoefler Text" font-size="64.0" fill="#3B3B3B" transform="matrix(1.00, 0.00, -0.00, -1.00, 250.7, 689.9)"> </text><text xml:space="preserve" font-family="HoeflerText-Regular,Hoefler Text" font-size="64.0" fill="#3B3B3B" transform="matrix(1.00, 0.00, -0.00, -1.00, 266.7, 689.9)">E</text><text xml:space="preserve" font-family="HoeflerText-Regular,Hoefler Text" font-size="64.0" fill="#3B3B3B" transform="matrix(1.00, 0.00, -0.00, -1.00, 308.4, 689.9)">s</text><text xml:space="preserve" font-family="HoeflerText-Regular,Hoefler Text" font-size="64.0" fill="#3B3B3B" transform="matrix(1.00, 0.00, -0.00, -1.00, 332.8, 689.9)">p</text><text xml:space="preserve" font-family="HoeflerText-Regular,Hoefler Text" font-size="64.0" fill="#3B3B3B" transform="matrix(1.00, 0.00, -0.00, -1.00, 367.9, 689.9)">e</text><text xml:space="preserve" font-family="HoeflerText-Regular,Hoefler Text" font-size="64.0" fill="#3B3B3B" transform="matrix(1.00, 0.00, -0.00, -1.00, 397.8, 689.9)">r</text><text xml:space="preserve" font-family="HoeflerText-Regular,Hoefler Text" font-size="64.0" fill="#3B3B3B" transform="matrix(1.00, 0.00, -0.00, -1.00, 421.6, 689.9)">a</text><text xml:space="preserve" font-family="HoeflerText-Regular,Hoefler Text" font-size="64.0" fill="#3B3B3B" transform="matrix(1.00, 0.00, -0.00, -1.00, 450.2, 689.9)">n</text><text xml:space="preserve" font-family="HoeflerText-Regular,Hoefler Text" font-size="64.0" fill="#3B3B3B" transform="matrix(1.00, 0.00, -0.00, -1.00, 485.2, 689.9)">t</text><text xml:space="preserve" font-family="HoeflerText-Regular,Hoefler Text" font-size="64.0" fill="#3B3B3B" transform="matrix(1.00, 0.00, -0.00, -1.00, 507.9, 689.9)">o</text><text xml:space="preserve" font-family="HoeflerText-Regular,Hoefler Text" font-size="64.0" fill="#3B3B3B" transform="matrix(1.00, 0.00, -0.00, -1.00, 542.2, 689.9)"> </text><text xml:space="preserve" font-family="HoeflerText-Regular,Hoefler Text" font-size="64.0" fill="#3B3B3B" transform="matrix(1.00, 0.00, -0.00, -1.00, 558.2, 689.9)">s</text><text xml:space="preserve" font-family="HoeflerText-Regular,Hoefler Text" font-size="64.0" fill="#3B3B3B" transform="matrix(1.00, 0.00, -0.00, -1.00, 582.7, 689.9)">u</text><text xml:space="preserve" font-family="HoeflerText-Regular,Hoefler Text" font-size="64.0" fill="#3B3B3B" transform="matrix(1.00, 0.00, -0.00, -1.00, 616.1, 689.9)">c</text><text xml:space="preserve" font-family="HoeflerText-Regular,Hoefler Text" font-size="64.0" fill="#3B3B3B" transform="matrix(1.00, 0.00, -0.00, -1.00, 645.7, 689.9)">c</text><text xml:space="preserve" font-family="HoeflerText-Regular,Hoefler Text" font-size="64.0" fill="#3B3B3B" transform="matrix(1.00, 0.00, -0.00, -1.00, 674.6, 689.9)">e</text><text xml:space="preserve" font-family="HoeflerText-Regular,Hoefler Text" font-size="64.0" fill="#3B3B3B" transform="matrix(1.00, 0.00, -0.00, -1.00, 704.6, 689.9)">e</text><text xml:space="preserve" font-family="HoeflerText-Regular,Hoefler Text" font-size="64.0" fill="#3B3B3B" transform="matrix(1.00, 0.00, -0.00, -1.00, 734.5, 689.9)">d</text><text xml:space="preserve" font-family="HoeflerText-Regular,Hoefler Text" font-size="64.0" fill="#3B3B3B" transform="matrix(1.00, 0.00, -0.00, -1.00, 769.2, 689.9)">e</text><text xml:space="preserve" font-family="HoeflerText-Regular,Hoefler Text" font-size="64.0" fill="#3B3B3B" transform="matrix(1.00, 0.00, -0.00, -1.00, 799.2, 689.9)">d</text><text xml:space="preserve" font-family="HoeflerText-Regular,Hoefler Text" font-size="64.0" fill="#3B3B3B" transform="matrix(1.00, 0.00, -0.00, -1.00, 833.9, 689.9)">?</text><image xlink:href="4FAA9C958447236F190595615D3D5E7E.png" width="627.00" height="53.00" transform="matrix(1.00, 0.00, -0.00, -1.00, 51.0, 642.0)"></image><text xml:space="preserve" font-family="HoeflerText-Regular,Hoefler Text" font-size="48.0" fill="#303030" transform="matrix(1.00, 0.00, -0.00, -1.00, 50.1, 605.3)">I</text><text xml:space="preserve" font-family="HoeflerText-Regular,Hoefler Text" font-size="48.0" fill="#303030" transform="matrix(1.00, 0.00, -0.00, -1.00, 69.4, 605.3)">n</text><text xml:space="preserve" font-family="HoeflerText-Regular,Hoefler Text" font-size="48.0" fill="#303030" transform="matrix(1.00, 0.00, -0.00, -1.00, 95.7, 605.3)">v</text><text xml:space="preserve" font-family="HoeflerText-Regular,Hoefler Text" font-size="48.0" fill="#303030" transform="matrix(1.00, 0.00, -0.00, -1.00, 117.5, 605.3)">e</text><text xml:space="preserve" font-family="HoeflerText-Regular,Hoefler Text" font-size="48.0" fill="#303030" transform="matrix(1.00, 0.00, -0.00, -1.00, 140.0, 605.3)">n</text><text xml:space="preserve" font-family="HoeflerText-Regular,Hoefler Text" font-size="48.0" fill="#303030" transform="matrix(1.00, 0.00, -0.00, -1.00, 166.3, 605.3)">t</text><text xml:space="preserve" font-family="HoeflerText-Regular,Hoefler Text" font-size="48.0" fill="#303030" transform="matrix(1.00, 0.00, -0.00, -1.00, 183.3, 605.3)">e</text><text xml:space="preserve" font-family="HoeflerText-Regular,Hoefler Text" font-size="48.0" fill="#303030" transform="matrix(1.00, 0.00, -0.00, -1.00, 205.7, 605.3)">d</text><text xml:space="preserve" font-family="HoeflerText-Regular,Hoefler Text" font-size="48.0" fill="#303030" transform="matrix(1.00, 0.00, -0.00, -1.00, 231.8, 605.3)"> </text><text xml:space="preserve" font-family="HoeflerText-Regular,Hoefler Text" font-size="48.0" fill="#303030" transform="matrix(1.00, 0.00, -0.00, -1.00, 243.8, 605.3)">a</text><text xml:space="preserve" font-family="HoeflerText-Regular,Hoefler Text" font-size="48.0" fill="#303030" transform="matrix(1.00, 0.00, -0.00, -1.00, 265.2, 605.3)">n</text><text xml:space="preserve" font-family="HoeflerText-Regular,Hoefler Text" font-size="48.0" fill="#303030" transform="matrix(1.00, 0.00, -0.00, -1.00, 291.5, 605.3)">d</text><text xml:space="preserve" font-family="HoeflerText-Regular,Hoefler Text" font-size="48.0" fill="#303030" transform="matrix(1.00, 0.00, -0.00, -1.00, 317.5, 605.3)"> </text><text xml:space="preserve" font-family="HoeflerText-Regular,Hoefler Text" font-size="48.0" fill="#303030" transform="matrix(1.00, 0.00, -0.00, -1.00, 329.5, 605.3)">p</text><text xml:space="preserve" font-family="HoeflerText-Regular,Hoefler Text" font-size="48.0" fill="#303030" transform="matrix(1.00, 0.00, -0.00, -1.00, 355.8, 605.3)">u</text><text xml:space="preserve" font-family="HoeflerText-Regular,Hoefler Text" font-size="48.0" fill="#303030" transform="matrix(1.00, 0.00, -0.00, -1.00, 380.9, 605.3)">b</text><text xml:space="preserve" font-family="HoeflerText-Regular,Hoefler Text" font-size="48.0" fill="#303030" transform="matrix(1.00, 0.00, -0.00, -1.00, 407.2, 605.3)">l</text><text xml:space="preserve" font-family="HoeflerText-Regular,Hoefler Text" font-size="48.0" fill="#303030" transform="matrix(1.00, 0.00, -0.00, -1.00, 419.6, 605.3)">i</text><text xml:space="preserve" font-family="HoeflerText-Regular,Hoefler Text" font-size="48.0" fill="#303030" transform="matrix(1.00, 0.00, -0.00, -1.00, 433.1, 605.3)">s</text><text xml:space="preserve" font-family="HoeflerText-Regular,Hoefler Text" font-size="48.0" fill="#303030" transform="matrix(1.00, 0.00, -0.00, -1.00, 451.4, 605.3)">h</text><text xml:space="preserve" font-family="HoeflerText-Regular,Hoefler Text" font-size="48.0" fill="#303030" transform="matrix(1.00, 0.00, -0.00, -1.00, 478.0, 605.3)">e</text><text xml:space="preserve" font-family="HoeflerText-Regular,Hoefler Text" font-size="48.0" fill="#303030" transform="matrix(1.00, 0.00, -0.00, -1.00, 500.5, 605.3)">d</text><text xml:space="preserve" font-family="HoeflerText-Regular,Hoefler Text" font-size="48.0" fill="#303030" transform="matrix(1.00, 0.00, -0.00, -1.00, 526.5, 605.3)"> </text><text xml:space="preserve" font-family="HoeflerText-Regular,Hoefler Text" font-size="48.0" fill="#303030" transform="matrix(1.00, 0.00, -0.00, -1.00, 538.5, 605.3)">i</text><text xml:space="preserve" font-family="HoeflerText-Regular,Hoefler Text" font-size="48.0" fill="#303030" transform="matrix(1.00, 0.00, -0.00, -1.00, 551.9, 605.3)">n</text><text xml:space="preserve" font-family="HoeflerText-Regular,Hoefler Text" font-size="48.0" fill="#303030" transform="matrix(1.00, 0.00, -0.00, -1.00, 578.2, 605.3)"> </text><text xml:space="preserve" font-family="HoeflerText-Regular,Hoefler Text" font-size="48.0" fill="#303030" transform="matrix(1.00, 0.00, -0.00, -1.00, 590.2, 605.3)">1</text><text xml:space="preserve" font-family="HoeflerText-Regular,Hoefler Text" font-size="48.0" fill="#303030" transform="matrix(1.00, 0.00, -0.00, -1.00, 608.4, 605.3)">8</text><text xml:space="preserve" font-family="HoeflerText-Regular,Hoefler Text" font-size="48.0" fill="#303030" transform="matrix(1.00, 0.00, -0.00, -1.00, 631.5, 605.3)">8</text><text xml:space="preserve" font-family="HoeflerText-Regular,Hoefler Text" font-size="48.0" fill="#303030" transform="matrix(1.00, 0.00, -0.00, -1.00, 654.6, 605.3)">7</text><image xlink:href="9C7E8DE70427A5DDB5CE33028AA4F454.png" width="406.00" height="54.00" transform="matrix(1.00, 0.00, -0.00, -1.00, 51.0, 572.0)"></image><text xml:space="preserve" font-family="HoeflerText-Regular,Hoefler Text" font-size="48.0" fill="#303030" transform="matrix(1.00, 0.00, -0.00, -1.00, 50.1, 535.3)">1</text><text xml:space="preserve" font-family="HoeflerText-Regular,Hoefler Text" font-size="48.0" fill="#303030" transform="matrix(1.00, 0.00, -0.00, -1.00, 68.3, 535.3)">2</text><text xml:space="preserve" font-family="HoeflerText-Regular,Hoefler Text" font-size="48.0" fill="#303030" transform="matrix(1.00, 0.00, -0.00, -1.00, 89.8, 535.3)">6</text><text xml:space="preserve" font-family="HoeflerText-Regular,Hoefler Text" font-size="48.0" fill="#303030" transform="matrix(1.00, 0.00, -0.00, -1.00, 115.0, 535.3)"> </text><text xml:space="preserve" font-family="HoeflerText-Regular,Hoefler Text" font-size="48.0" fill="#303030" transform="matrix(1.00, 0.00, -0.00, -1.00, 127.0, 535.3)">y</text><text xml:space="preserve" font-family="HoeflerText-Regular,Hoefler Text" font-size="48.0" fill="#303030" transform="matrix(1.00, 0.00, -0.00, -1.00, 149.0, 535.3)">e</text><text xml:space="preserve" font-family="HoeflerText-Regular,Hoefler Text" font-size="48.0" fill="#303030" transform="matrix(1.00, 0.00, -0.00, -1.00, 171.5, 535.3)">a</text><text xml:space="preserve" font-family="HoeflerText-Regular,Hoefler Text" font-size="48.0" fill="#303030" transform="matrix(1.00, 0.00, -0.00, -1.00, 192.9, 535.3)">r</text><text xml:space="preserve" font-family="HoeflerText-Regular,Hoefler Text" font-size="48.0" fill="#303030" transform="matrix(1.00, 0.00, -0.00, -1.00, 210.7, 535.3)">s</text><text xml:space="preserve" font-family="HoeflerText-Regular,Hoefler Text" font-size="48.0" fill="#303030" transform="matrix(1.00, 0.00, -0.00, -1.00, 229.1, 535.3)"> </text><text xml:space="preserve" font-family="HoeflerText-Regular,Hoefler Text" font-size="48.0" fill="#303030" transform="matrix(1.00, 0.00, -0.00, -1.00, 241.1, 535.3)">t</text><text xml:space="preserve" font-family="HoeflerText-Regular,Hoefler Text" font-size="48.0" fill="#303030" transform="matrix(1.00, 0.00, -0.00, -1.00, 258.1, 535.3)">o</text><text xml:space="preserve" font-family="HoeflerText-Regular,Hoefler Text" font-size="48.0" fill="#303030" transform="matrix(1.00, 0.00, -0.00, -1.00, 283.8, 535.3)"> </text><text xml:space="preserve" font-family="HoeflerText-Regular,Hoefler Text" font-size="48.0" fill="#303030" transform="matrix(1.00, 0.00, -0.00, -1.00, 295.8, 535.3)">s</text><text xml:space="preserve" font-family="HoeflerText-Regular,Hoefler Text" font-size="48.0" fill="#303030" transform="matrix(1.00, 0.00, -0.00, -1.00, 314.1, 535.3)">u</text><text xml:space="preserve" font-family="HoeflerText-Regular,Hoefler Text" font-size="48.0" fill="#303030" transform="matrix(1.00, 0.00, -0.00, -1.00, 339.2, 535.3)">c</text><text xml:space="preserve" font-family="HoeflerText-Regular,Hoefler Text" font-size="48.0" fill="#303030" transform="matrix(1.00, 0.00, -0.00, -1.00, 361.4, 535.3)">c</text><text xml:space="preserve" font-family="HoeflerText-Regular,Hoefler Text" font-size="48.0" fill="#303030" transform="matrix(1.00, 0.00, -0.00, -1.00, 383.1, 535.3)">e</text><text xml:space="preserve" font-family="HoeflerText-Regular,Hoefler Text" font-size="48.0" fill="#303030" transform="matrix(1.00, 0.00, -0.00, -1.00, 405.6, 535.3)">e</text><text xml:space="preserve" font-family="HoeflerText-Regular,Hoefler Text" font-size="48.0" fill="#303030" transform="matrix(1.00, 0.00, -0.00, -1.00, 428.0, 535.3)">d</text><image xlink:href="5F4C5E3E7965165F987995F10BFBF94A.png" width="367.00" height="41.00" transform="matrix(1.00, 0.00, -0.00, -1.00, 51.0, 502.0)"></image><text xml:space="preserve" font-family="HoeflerText-Regular,Hoefler Text" font-size="48.0" fill="#303030" transform="matrix(1.00, 0.00, -0.00, -1.00, 50.1, 465.3)">S</text><text xml:space="preserve" font-family="HoeflerText-Regular,Hoefler Text" font-size="48.0" fill="#303030" transform="matrix(1.00, 0.00, -0.00, -1.00, 74.5, 465.3)">u</text><text xml:space="preserve" font-family="HoeflerText-Regular,Hoefler Text" font-size="48.0" fill="#303030" transform="matrix(1.00, 0.00, -0.00, -1.00, 99.6, 465.3)">c</text><text xml:space="preserve" font-family="HoeflerText-Regular,Hoefler Text" font-size="48.0" fill="#303030" transform="matrix(1.00, 0.00, -0.00, -1.00, 121.7, 465.3)">c</text><text xml:space="preserve" font-family="HoeflerText-Regular,Hoefler Text" font-size="48.0" fill="#303030" transform="matrix(1.00, 0.00, -0.00, -1.00, 143.4, 465.3)">e</text><text xml:space="preserve" font-family="HoeflerText-Regular,Hoefler Text" font-size="48.0" fill="#303030" transform="matrix(1.00, 0.00, -0.00, -1.00, 165.9, 465.3)">s</text><text xml:space="preserve" font-family="HoeflerText-Regular,Hoefler Text" font-size="48.0" fill="#303030" transform="matrix(1.00, 0.00, -0.00, -1.00, 184.2, 465.3)">s</text><text xml:space="preserve" font-family="HoeflerText-Regular,Hoefler Text" font-size="48.0" fill="#303030" transform="matrix(1.00, 0.00, -0.00, -1.00, 202.6, 465.3)"> </text><text xml:space="preserve" font-family="HoeflerText-Regular,Hoefler Text" font-size="48.0" fill="#303030" transform="matrix(1.00, 0.00, -0.00, -1.00, 214.6, 465.3)">o</text><text xml:space="preserve" font-family="HoeflerText-Regular,Hoefler Text" font-size="48.0" fill="#303030" transform="matrix(1.00, 0.00, -0.00, -1.00, 240.3, 465.3)">r</text><text xml:space="preserve" font-family="HoeflerText-Regular,Hoefler Text" font-size="48.0" fill="#303030" transform="matrix(1.00, 0.00, -0.00, -1.00, 258.2, 465.3)"> </text><text xml:space="preserve" font-family="HoeflerText-Regular,Hoefler Text" font-size="48.0" fill="#303030" transform="matrix(1.00, 0.00, -0.00, -1.00, 270.2, 465.3)">f</text><text xml:space="preserve" font-family="HoeflerText-Regular,Hoefler Text" font-size="48.0" fill="#303030" transform="matrix(1.00, 0.00, -0.00, -1.00, 286.2, 465.3)">a</text><text xml:space="preserve" font-family="HoeflerText-Regular,Hoefler Text" font-size="48.0" fill="#303030" transform="matrix(1.00, 0.00, -0.00, -1.00, 307.6, 465.3)">i</text><text xml:space="preserve" font-family="HoeflerText-Regular,Hoefler Text" font-size="48.0" fill="#303030" transform="matrix(1.00, 0.00, -0.00, -1.00, 321.1, 465.3)">l</text><text xml:space="preserve" font-family="HoeflerText-Regular,Hoefler Text" font-size="48.0" fill="#303030" transform="matrix(1.00, 0.00, -0.00, -1.00, 333.5, 465.3)">u</text><text xml:space="preserve" font-family="HoeflerText-Regular,Hoefler Text" font-size="48.0" fill="#303030" transform="matrix(1.00, 0.00, -0.00, -1.00, 358.6, 465.3)">r</text><text xml:space="preserve" font-family="HoeflerText-Regular,Hoefler Text" font-size="48.0" fill="#303030" transform="matrix(1.00, 0.00, -0.00, -1.00, 376.5, 465.3)">e</text><text xml:space="preserve" font-family="HoeflerText-Regular,Hoefler Text" font-size="48.0" fill="#303030" transform="matrix(1.00, 0.00, -0.00, -1.00, 398.9, 465.3)">?</text><text xml:space="preserve" font-family="HoeflerText-Regular,Hoefler Text" font-size="24.0" fill="#555239" transform="matrix(1.00, 0.00, -0.00, -1.00, 504.9, 12.7)"></text><image xlink:href="4BEAA0A8727D3A2F08D18EC557B1695E.png" width="15.00" height="22.00" transform="matrix(1.00, 0.00, -0.00, -1.00, 505.0, 31.0)"></image><text xml:space="preserve" font-family="HoeflerText-Regular,Hoefler Text" font-size="24.0" fill="#555239" transform="matrix(1.00, 0.00, -0.00, -1.00, 504.9, 12.7)">6</text></g></svg>