<?xml version="1.0" encoding="UTF-8" standalone="no"?><svg xmlns="http://www.w3.org/2000/svg" xmlns:xlink="http://www.w3.org/1999/xlink" clip-rule="evenodd" stroke-miterlimit="10" viewBox="0 0 1024 768"><desc>SVG generated by Keynote</desc><defs></defs><g transform="matrix(1.00, 0.00, -0.00, -1.00, 0.0, 768.0)"><path d="M 0.0 768.0 L 1024.0 768.0 L 1024.0 0.0 L 0.0 0.0 Z M 0.0 768.0 " fill="#ECEAD5"></path><image xlink:href="../../29DFDB5E-73DA-4DDA-8FBC-2DA22ED010F4/assets/8E75D7116A7AF5660BBEA2E88C6DE961.png" width="714.00" height="69.00" transform="matrix(1.00, 0.00, -0.00, -1.00, 144.0, 738.0)"></image><text xml:space="preserve" font-family="HoeflerText-Regular,Hoefler Text" font-size="64.0" fill="#3B3B3B" transform="matrix(1.00, 0.00, -0.00, -1.00, 143.6, 689.9)">H</text><text xml:space="preserve" font-family="HoeflerText-Regular,Hoefler Text" font-size="64.0" fill="#3B3B3B" transform="matrix(1.00, 0.00, -0.00, -1.00, 197.1, 689.9)">a</text><text xml:space="preserve" font-family="HoeflerText-Regular,Hoefler Text" font-size="64.0" fill="#3B3B3B" transform="matrix(1.00, 0.00, -0.00, -1.00, 226.2, 689.9)">s</text><text xml:space="preserve" font-family="HoeflerText-Regular,Hoefler Text" font-size="64.0" fill="#3B3B3B" transform="matrix(1.00, 0.00, -0.00, -1.00, 250.7, 689.9)"> </text><text xml:space="preserve" font-family="HoeflerText-Regular,Hoefler Text" font-size="64.0" fill="#3B3B3B" transform="matrix(1.00, 0.00, -0.00, -1.00, 266.7, 689.9)">E</text><text xml:space="preserve" font-family="HoeflerText-Regular,Hoefler Text" font-size="64.0" fill="#3B3B3B" transform="matrix(1.00, 0.00, -0.00, -1.00, 308.4, 689.9)">s</text><text xml:space="preserve" font-family="HoeflerText-Regular,Hoefler Text" font-size="64.0" fill="#3B3B3B" transform="matrix(1.00, 0.00, -0.00, -1.00, 332.8, 689.9)">p</text><text xml:space="preserve" font-family="HoeflerText-Regular,Hoefler Text" font-size="64.0" fill="#3B3B3B" transform="matrix(1.00, 0.00, -0.00, -1.00, 367.9, 689.9)">e</text><text xml:space="preserve" font-family="HoeflerText-Regular,Hoefler Text" font-size="64.0" fill="#3B3B3B" transform="matrix(1.00, 0.00, -0.00, -1.00, 397.8, 689.9)">r</text><text xml:space="preserve" font-family="HoeflerText-Regular,Hoefler Text" font-size="64.0" fill="#3B3B3B" transform="matrix(1.00, 0.00, -0.00, -1.00, 421.6, 689.9)">a</text><text xml:space="preserve" font-family="HoeflerText-Regular,Hoefler Text" font-size="64.0" fill="#3B3B3B" transform="matrix(1.00, 0.00, -0.00, -1.00, 450.2, 689.9)">n</text><text xml:space="preserve" font-family="HoeflerText-Regular,Hoefler Text" font-size="64.0" fill="#3B3B3B" transform="matrix(1.00, 0.00, -0.00, -1.00, 485.2, 689.9)">t</text><text xml:space="preserve" font-family="HoeflerText-Regular,Hoefler Text" font-size="64.0" fill="#3B3B3B" transform="matrix(1.00, 0.00, -0.00, -1.00, 507.9, 689.9)">o</text><text xml:space="preserve" font-family="HoeflerText-Regular,Hoefler Text" font-size="64.0" fill="#3B3B3B" transform="matrix(1.00, 0.00, -0.00, -1.00, 542.2, 689.9)"> </text><text xml:space="preserve" font-family="HoeflerText-Regular,Hoefler Text" font-size="64.0" fill="#3B3B3B" transform="matrix(1.00, 0.00, -0.00, -1.00, 558.2, 689.9)">s</text><text xml:space="preserve" font-family="HoeflerText-Regular,Hoefler Text" font-size="64.0" fill="#3B3B3B" transform="matrix(1.00, 0.00, -0.00, -1.00, 582.7, 689.9)">u</text><text xml:space="preserve" font-family="HoeflerText-Regular,Hoefler Text" font-size="64.0" fill="#3B3B3B" transform="matrix(1.00, 0.00, -0.00, -1.00, 616.1, 689.9)">c</text><text xml:space="preserve" font-family="HoeflerText-Regular,Hoefler Text" font-size="64.0" fill="#3B3B3B" transform="matrix(1.00, 0.00, -0.00, -1.00, 645.7, 689.9)">c</text><text xml:space="preserve" font-family="HoeflerText-Regular,Hoefler Text" font-size="64.0" fill="#3B3B3B" transform="matrix(1.00, 0.00, -0.00, -1.00, 674.6, 689.9)">e</text><text xml:space="preserve" font-family="HoeflerText-Regular,Hoefler Text" font-size="64.0" fill="#3B3B3B" transform="matrix(1.00, 0.00, -0.00, -1.00, 704.6, 689.9)">e</text><text xml:space="preserve" font-family="HoeflerText-Regular,Hoefler Text" font-size="64.0" fill="#3B3B3B" transform="matrix(1.00, 0.00, -0.00, -1.00, 734.5, 689.9)">d</text><text xml:space="preserve" font-family="HoeflerText-Regular,Hoefler Text" font-size="64.0" fill="#3B3B3B" transform="matrix(1.00, 0.00, -0.00, -1.00, 769.2, 689.9)">e</text><text xml:space="preserve" font-family="HoeflerText-Regular,Hoefler Text" font-size="64.0" fill="#3B3B3B" transform="matrix(1.00, 0.00, -0.00, -1.00, 799.2, 689.9)">d</text><text xml:space="preserve" font-family="HoeflerText-Regular,Hoefler Text" font-size="64.0" fill="#3B3B3B" transform="matrix(1.00, 0.00, -0.00, -1.00, 833.9, 689.9)">?</text><text xml:space="preserve" font-family="HoeflerText-Regular,Hoefler Text" font-size="24.0" fill="#555239" transform="matrix(1.00, 0.00, -0.00, -1.00, 500.9, 12.7)"></text><image xlink:href="50AFE68F84F9CE38E1F3CBA970C2AB9F.png" width="24.00" height="22.00" transform="matrix(1.00, 0.00, -0.00, -1.00, 500.0, 26.0)"></image><text xml:space="preserve" font-family="HoeflerText-Regular,Hoefler Text" font-size="24.0" fill="#555239" transform="matrix(1.00, 0.00, -0.00, -1.00, 500.9, 12.7)">2</text><text xml:space="preserve" font-family="HoeflerText-Regular,Hoefler Text" font-size="24.0" fill="#555239" transform="matrix(1.00, 0.00, -0.00, -1.00, 511.6, 12.7)">5</text><image xlink:href="35A74559E53288E0775A63DE28644024.png" width="49.00" height="37.00" transform="matrix(1.00, 0.00, -0.00, -1.00, 53.0, 378.0)"></image><text xml:space="preserve" font-family="HoeflerText-Regular,Hoefler Text" font-size="42.0" fill="#253D0E" transform="matrix(1.00, 0.00, -0.00, -1.00, 54.1, 345.7)">l</text><text xml:space="preserve" font-family="HoeflerText-Regular,Hoefler Text" font-size="42.0" fill="#253D0E" transform="matrix(1.00, 0.00, -0.00, -1.00, 64.9, 345.7)">u</text><text xml:space="preserve" font-family="HoeflerText-Regular,Hoefler Text" font-size="42.0" fill="#253D0E" transform="matrix(1.00, 0.00, -0.00, -1.00, 86.9, 345.7)">i</text><image xlink:href="78492C65D82B435DE89DF25531E314AD.png" width="21.00" height="14.00" transform="matrix(1.00, 0.00, -0.00, -1.00, 109.0, 361.0)"></image><text xml:space="preserve" font-family="HoeflerText-Regular,Hoefler Text" font-size="42.0" fill="#555239" transform="matrix(1.00, 0.00, -0.00, -1.00, 98.7, 345.7)"> </text><text xml:space="preserve" font-family="HoeflerText-Regular,Hoefler Text" font-size="42.0" fill="#555239" transform="matrix(1.00, 0.00, -0.00, -1.00, 109.2, 345.7)">=</text><text xml:space="preserve" font-family="HoeflerText-Regular,Hoefler Text" font-size="42.0" fill="#555239" transform="matrix(1.00, 0.00, -0.00, -1.00, 127.5, 345.7)"> </text><image xlink:href="07E13A7DA1CD3B34E7CD4CB40992CF3C.png" width="437.00" height="47.00" transform="matrix(1.00, 0.00, -0.00, -1.00, 137.0, 378.0)"></image><text xml:space="preserve" font-family="HoeflerText-Regular,Hoefler Text" font-size="42.0" fill="#2E063D" transform="matrix(1.00, 0.00, -0.00, -1.00, 138.0, 345.7)">u</text><text xml:space="preserve" font-family="HoeflerText-Regular,Hoefler Text" font-size="42.0" fill="#2E063D" transform="matrix(1.00, 0.00, -0.00, -1.00, 159.9, 345.7)">s</text><text xml:space="preserve" font-family="HoeflerText-Regular,Hoefler Text" font-size="42.0" fill="#2E063D" transform="matrix(1.00, 0.00, -0.00, -1.00, 176.0, 345.7)">e</text><text xml:space="preserve" font-family="HoeflerText-Regular,Hoefler Text" font-size="42.0" fill="#2E063D" transform="matrix(1.00, 0.00, -0.00, -1.00, 195.6, 345.7)"> </text><text xml:space="preserve" font-family="HoeflerText-Regular,Hoefler Text" font-size="42.0" fill="#2E063D" transform="matrix(1.00, 0.00, -0.00, -1.00, 206.1, 345.7)">a</text><text xml:space="preserve" font-family="HoeflerText-Regular,Hoefler Text" font-size="42.0" fill="#2E063D" transform="matrix(1.00, 0.00, -0.00, -1.00, 225.3, 345.7)">s</text><text xml:space="preserve" font-family="HoeflerText-Regular,Hoefler Text" font-size="42.0" fill="#2E063D" transform="matrix(1.00, 0.00, -0.00, -1.00, 241.3, 345.7)"> </text><text xml:space="preserve" font-family="HoeflerText-Regular,Hoefler Text" font-size="42.0" fill="#2E063D" transform="matrix(1.00, 0.00, -0.00, -1.00, 251.8, 345.7)">a</text><text xml:space="preserve" font-family="HoeflerText-Regular,Hoefler Text" font-size="42.0" fill="#2E063D" transform="matrix(1.00, 0.00, -0.00, -1.00, 270.6, 345.7)"> </text><text xml:space="preserve" font-family="HoeflerText-Regular,Hoefler Text" font-size="42.0" fill="#2E063D" transform="matrix(1.00, 0.00, -0.00, -1.00, 281.1, 345.7)">p</text><text xml:space="preserve" font-family="HoeflerText-Regular,Hoefler Text" font-size="42.0" fill="#2E063D" transform="matrix(1.00, 0.00, -0.00, -1.00, 304.1, 345.7)">a</text><text xml:space="preserve" font-family="HoeflerText-Regular,Hoefler Text" font-size="42.0" fill="#2E063D" transform="matrix(1.00, 0.00, -0.00, -1.00, 322.8, 345.7)">y</text><text xml:space="preserve" font-family="HoeflerText-Regular,Hoefler Text" font-size="42.0" fill="#2E063D" transform="matrix(1.00, 0.00, -0.00, -1.00, 342.1, 345.7)">i</text><text xml:space="preserve" font-family="HoeflerText-Regular,Hoefler Text" font-size="42.0" fill="#2E063D" transform="matrix(1.00, 0.00, -0.00, -1.00, 353.8, 345.7)">n</text><text xml:space="preserve" font-family="HoeflerText-Regular,Hoefler Text" font-size="42.0" fill="#2E063D" transform="matrix(1.00, 0.00, -0.00, -1.00, 376.8, 345.7)">g</text><text xml:space="preserve" font-family="HoeflerText-Regular,Hoefler Text" font-size="42.0" fill="#2E063D" transform="matrix(1.00, 0.00, -0.00, -1.00, 396.7, 345.7)"> </text><text xml:space="preserve" font-family="HoeflerText-Regular,Hoefler Text" font-size="42.0" fill="#2E063D" transform="matrix(1.00, 0.00, -0.00, -1.00, 407.2, 345.7)">b</text><text xml:space="preserve" font-family="HoeflerText-Regular,Hoefler Text" font-size="42.0" fill="#2E063D" transform="matrix(1.00, 0.00, -0.00, -1.00, 430.2, 345.7)">o</text><text xml:space="preserve" font-family="HoeflerText-Regular,Hoefler Text" font-size="42.0" fill="#2E063D" transform="matrix(1.00, 0.00, -0.00, -1.00, 452.7, 345.7)">r</text><text xml:space="preserve" font-family="HoeflerText-Regular,Hoefler Text" font-size="42.0" fill="#2E063D" transform="matrix(1.00, 0.00, -0.00, -1.00, 468.3, 345.7)">r</text><text xml:space="preserve" font-family="HoeflerText-Regular,Hoefler Text" font-size="42.0" fill="#2E063D" transform="matrix(1.00, 0.00, -0.00, -1.00, 483.9, 345.7)">o</text><text xml:space="preserve" font-family="HoeflerText-Regular,Hoefler Text" font-size="42.0" fill="#2E063D" transform="matrix(1.00, 0.00, -0.00, -1.00, 506.4, 345.7)">w</text><text xml:space="preserve" font-family="HoeflerText-Regular,Hoefler Text" font-size="42.0" fill="#2E063D" transform="matrix(1.00, 0.00, -0.00, -1.00, 535.4, 345.7)">e</text><text xml:space="preserve" font-family="HoeflerText-Regular,Hoefler Text" font-size="42.0" fill="#2E063D" transform="matrix(1.00, 0.00, -0.00, -1.00, 555.1, 345.7)">r</text><image xlink:href="B3102BC56DDBF7A0925E2DE93B944E50.png" width="80.00" height="47.00" transform="matrix(1.00, 0.00, -0.00, -1.00, 53.0, 327.0)"></image><text xml:space="preserve" font-family="HoeflerText-Regular,Hoefler Text" font-size="42.0" fill="#253D0E" transform="matrix(1.00, 0.00, -0.00, -1.00, 54.1, 294.7)">l</text><text xml:space="preserve" font-family="HoeflerText-Regular,Hoefler Text" font-size="42.0" fill="#253D0E" transform="matrix(1.00, 0.00, -0.00, -1.00, 64.9, 294.7)">u</text><text xml:space="preserve" font-family="HoeflerText-Regular,Hoefler Text" font-size="42.0" fill="#253D0E" transform="matrix(1.00, 0.00, -0.00, -1.00, 86.9, 294.7)">i</text><text xml:space="preserve" font-family="HoeflerText-Regular,Hoefler Text" font-size="42.0" fill="#253D0E" transform="matrix(1.00, 0.00, -0.00, -1.00, 98.7, 294.7)">g</text><text xml:space="preserve" font-family="HoeflerText-Regular,Hoefler Text" font-size="42.0" fill="#253D0E" transform="matrix(1.00, 0.00, -0.00, -1.00, 118.5, 294.7)">i</text><image xlink:href="../../2C7E861C-4ECD-4A35-832A-5FB913450038/assets/99893228FBB789BA83CD196DDBEB6878.png" width="20.00" height="14.00" transform="matrix(1.00, 0.00, -0.00, -1.00, 141.0, 310.0)"></image><text xml:space="preserve" font-family="HoeflerText-Regular,Hoefler Text" font-size="42.0" fill="#555239" transform="matrix(1.00, 0.00, -0.00, -1.00, 130.2, 294.7)"> </text><text xml:space="preserve" font-family="HoeflerText-Regular,Hoefler Text" font-size="42.0" fill="#555239" transform="matrix(1.00, 0.00, -0.00, -1.00, 140.7, 294.7)">=</text><text xml:space="preserve" font-family="HoeflerText-Regular,Hoefler Text" font-size="42.0" fill="#555239" transform="matrix(1.00, 0.00, -0.00, -1.00, 159.1, 294.7)"> </text><image xlink:href="E0C940991124622FF359B08456D906B9.png" width="306.00" height="47.00" transform="matrix(1.00, 0.00, -0.00, -1.00, 169.0, 327.0)"></image><text xml:space="preserve" font-family="HoeflerText-Regular,Hoefler Text" font-size="42.0" fill="#2E063D" transform="matrix(1.00, 0.00, -0.00, -1.00, 169.6, 294.7)">l</text><text xml:space="preserve" font-family="HoeflerText-Regular,Hoefler Text" font-size="42.0" fill="#2E063D" transform="matrix(1.00, 0.00, -0.00, -1.00, 180.4, 294.7)">e</text><text xml:space="preserve" font-family="HoeflerText-Regular,Hoefler Text" font-size="42.0" fill="#2E063D" transform="matrix(1.00, 0.00, -0.00, -1.00, 200.1, 294.7)">n</text><text xml:space="preserve" font-family="HoeflerText-Regular,Hoefler Text" font-size="42.0" fill="#2E063D" transform="matrix(1.00, 0.00, -0.00, -1.00, 223.1, 294.7)">d</text><text xml:space="preserve" font-family="HoeflerText-Regular,Hoefler Text" font-size="42.0" fill="#2E063D" transform="matrix(1.00, 0.00, -0.00, -1.00, 245.9, 294.7)"> </text><text xml:space="preserve" font-family="HoeflerText-Regular,Hoefler Text" font-size="42.0" fill="#2E063D" transform="matrix(1.00, 0.00, -0.00, -1.00, 256.4, 294.7)">f</text><text xml:space="preserve" font-family="HoeflerText-Regular,Hoefler Text" font-size="42.0" fill="#2E063D" transform="matrix(1.00, 0.00, -0.00, -1.00, 270.4, 294.7)">o</text><text xml:space="preserve" font-family="HoeflerText-Regular,Hoefler Text" font-size="42.0" fill="#2E063D" transform="matrix(1.00, 0.00, -0.00, -1.00, 293.0, 294.7)">r</text><text xml:space="preserve" font-family="HoeflerText-Regular,Hoefler Text" font-size="42.0" fill="#2E063D" transform="matrix(1.00, 0.00, -0.00, -1.00, 308.6, 294.7)"> </text><text xml:space="preserve" font-family="HoeflerText-Regular,Hoefler Text" font-size="42.0" fill="#2E063D" transform="matrix(1.00, 0.00, -0.00, -1.00, 319.1, 294.7)">p</text><text xml:space="preserve" font-family="HoeflerText-Regular,Hoefler Text" font-size="42.0" fill="#2E063D" transform="matrix(1.00, 0.00, -0.00, -1.00, 342.1, 294.7)">a</text><text xml:space="preserve" font-family="HoeflerText-Regular,Hoefler Text" font-size="42.0" fill="#2E063D" transform="matrix(1.00, 0.00, -0.00, -1.00, 360.8, 294.7)">y</text><text xml:space="preserve" font-family="HoeflerText-Regular,Hoefler Text" font-size="42.0" fill="#2E063D" transform="matrix(1.00, 0.00, -0.00, -1.00, 380.1, 294.7)">m</text><text xml:space="preserve" font-family="HoeflerText-Regular,Hoefler Text" font-size="42.0" fill="#2E063D" transform="matrix(1.00, 0.00, -0.00, -1.00, 414.8, 294.7)">e</text><text xml:space="preserve" font-family="HoeflerText-Regular,Hoefler Text" font-size="42.0" fill="#2E063D" transform="matrix(1.00, 0.00, -0.00, -1.00, 434.5, 294.7)">n</text><text xml:space="preserve" font-family="HoeflerText-Regular,Hoefler Text" font-size="42.0" fill="#2E063D" transform="matrix(1.00, 0.00, -0.00, -1.00, 457.5, 294.7)">t</text><image xlink:href="4CD9D20DA7680D8C3FFEAF7EF84875A5.png" width="98.00" height="28.00" transform="matrix(1.00, 0.00, -0.00, -1.00, 54.0, 267.0)"></image><text xml:space="preserve" font-family="HoeflerText-Regular,Hoefler Text" font-size="42.0" fill="#253D0E" transform="matrix(1.00, 0.00, -0.00, -1.00, 54.1, 243.7)">r</text><text xml:space="preserve" font-family="HoeflerText-Regular,Hoefler Text" font-size="42.0" fill="#253D0E" transform="matrix(1.00, 0.00, -0.00, -1.00, 69.7, 243.7)">e</text><text xml:space="preserve" font-family="HoeflerText-Regular,Hoefler Text" font-size="42.0" fill="#253D0E" transform="matrix(1.00, 0.00, -0.00, -1.00, 89.3, 243.7)">n</text><text xml:space="preserve" font-family="HoeflerText-Regular,Hoefler Text" font-size="42.0" fill="#253D0E" transform="matrix(1.00, 0.00, -0.00, -1.00, 112.4, 243.7)">t</text><text xml:space="preserve" font-family="HoeflerText-Regular,Hoefler Text" font-size="42.0" fill="#253D0E" transform="matrix(1.00, 0.00, -0.00, -1.00, 127.2, 243.7)">o</text><image xlink:href="9F8195D999DF299C7829D10907460107.png" width="21.00" height="14.00" transform="matrix(1.00, 0.00, -0.00, -1.00, 160.0, 259.0)"></image><text xml:space="preserve" font-family="HoeflerText-Regular,Hoefler Text" font-size="42.0" fill="#555239" transform="matrix(1.00, 0.00, -0.00, -1.00, 149.7, 243.7)"> </text><text xml:space="preserve" font-family="HoeflerText-Regular,Hoefler Text" font-size="42.0" fill="#555239" transform="matrix(1.00, 0.00, -0.00, -1.00, 160.2, 243.7)">=</text><text xml:space="preserve" font-family="HoeflerText-Regular,Hoefler Text" font-size="42.0" fill="#555239" transform="matrix(1.00, 0.00, -0.00, -1.00, 178.5, 243.7)"> </text><image xlink:href="C3D0DDA171469A1D6C49C62DB441BD1B.png" width="341.00" height="34.00" transform="matrix(1.00, 0.00, -0.00, -1.00, 189.0, 273.0)"></image><text xml:space="preserve" font-family="HoeflerText-Regular,Hoefler Text" font-size="42.0" fill="#2E063D" transform="matrix(1.00, 0.00, -0.00, -1.00, 189.0, 243.7)">i</text><text xml:space="preserve" font-family="HoeflerText-Regular,Hoefler Text" font-size="42.0" fill="#2E063D" transform="matrix(1.00, 0.00, -0.00, -1.00, 200.8, 243.7)">n</text><text xml:space="preserve" font-family="HoeflerText-Regular,Hoefler Text" font-size="42.0" fill="#2E063D" transform="matrix(1.00, 0.00, -0.00, -1.00, 223.8, 243.7)">v</text><text xml:space="preserve" font-family="HoeflerText-Regular,Hoefler Text" font-size="42.0" fill="#2E063D" transform="matrix(1.00, 0.00, -0.00, -1.00, 242.9, 243.7)">e</text><text xml:space="preserve" font-family="HoeflerText-Regular,Hoefler Text" font-size="42.0" fill="#2E063D" transform="matrix(1.00, 0.00, -0.00, -1.00, 262.6, 243.7)">s</text><text xml:space="preserve" font-family="HoeflerText-Regular,Hoefler Text" font-size="42.0" fill="#2E063D" transform="matrix(1.00, 0.00, -0.00, -1.00, 278.6, 243.7)">t</text><text xml:space="preserve" font-family="HoeflerText-Regular,Hoefler Text" font-size="42.0" fill="#2E063D" transform="matrix(1.00, 0.00, -0.00, -1.00, 294.1, 243.7)">m</text><text xml:space="preserve" font-family="HoeflerText-Regular,Hoefler Text" font-size="42.0" fill="#2E063D" transform="matrix(1.00, 0.00, -0.00, -1.00, 328.9, 243.7)">e</text><text xml:space="preserve" font-family="HoeflerText-Regular,Hoefler Text" font-size="42.0" fill="#2E063D" transform="matrix(1.00, 0.00, -0.00, -1.00, 348.5, 243.7)">n</text><text xml:space="preserve" font-family="HoeflerText-Regular,Hoefler Text" font-size="42.0" fill="#2E063D" transform="matrix(1.00, 0.00, -0.00, -1.00, 371.5, 243.7)">t</text><text xml:space="preserve" font-family="HoeflerText-Regular,Hoefler Text" font-size="42.0" fill="#2E063D" transform="matrix(1.00, 0.00, -0.00, -1.00, 387.0, 243.7)"> </text><text xml:space="preserve" font-family="HoeflerText-Regular,Hoefler Text" font-size="42.0" fill="#2E063D" transform="matrix(1.00, 0.00, -0.00, -1.00, 397.5, 243.7)">i</text><text xml:space="preserve" font-family="HoeflerText-Regular,Hoefler Text" font-size="42.0" fill="#2E063D" transform="matrix(1.00, 0.00, -0.00, -1.00, 409.3, 243.7)">n</text><text xml:space="preserve" font-family="HoeflerText-Regular,Hoefler Text" font-size="42.0" fill="#2E063D" transform="matrix(1.00, 0.00, -0.00, -1.00, 432.3, 243.7)">c</text><text xml:space="preserve" font-family="HoeflerText-Regular,Hoefler Text" font-size="42.0" fill="#2E063D" transform="matrix(1.00, 0.00, -0.00, -1.00, 451.3, 243.7)">o</text><text xml:space="preserve" font-family="HoeflerText-Regular,Hoefler Text" font-size="42.0" fill="#2E063D" transform="matrix(1.00, 0.00, -0.00, -1.00, 473.8, 243.7)">m</text><text xml:space="preserve" font-family="HoeflerText-Regular,Hoefler Text" font-size="42.0" fill="#2E063D" transform="matrix(1.00, 0.00, -0.00, -1.00, 508.5, 243.7)">e</text><image xlink:href="2F4AC3FE4C2EE3E94CDA002E06D2C732.png" width="136.00" height="47.00" transform="matrix(1.00, 0.00, -0.00, -1.00, 54.0, 174.0)"></image><text xml:space="preserve" font-family="HoeflerText-Regular,Hoefler Text" font-size="42.0" fill="#253D0E" transform="matrix(1.00, 0.00, -0.00, -1.00, 55.1, 141.7)">l</text><text xml:space="preserve" font-family="HoeflerText-Regular,Hoefler Text" font-size="42.0" fill="#253D0E" transform="matrix(1.00, 0.00, -0.00, -1.00, 65.9, 141.7)">u</text><text xml:space="preserve" font-family="HoeflerText-Regular,Hoefler Text" font-size="42.0" fill="#253D0E" transform="matrix(1.00, 0.00, -0.00, -1.00, 87.9, 141.7)">p</text><text xml:space="preserve" font-family="HoeflerText-Regular,Hoefler Text" font-size="42.0" fill="#253D0E" transform="matrix(1.00, 0.00, -0.00, -1.00, 110.9, 141.7)">r</text><text xml:space="preserve" font-family="HoeflerText-Regular,Hoefler Text" font-size="42.0" fill="#253D0E" transform="matrix(1.00, 0.00, -0.00, -1.00, 126.5, 141.7)">e</text><text xml:space="preserve" font-family="HoeflerText-Regular,Hoefler Text" font-size="42.0" fill="#253D0E" transform="matrix(1.00, 0.00, -0.00, -1.00, 146.2, 141.7)">z</text><text xml:space="preserve" font-family="HoeflerText-Regular,Hoefler Text" font-size="42.0" fill="#253D0E" transform="matrix(1.00, 0.00, -0.00, -1.00, 165.4, 141.7)">o</text><image xlink:href="DD5BC0BE20F48AF5BA70ED6C59F14AD5.png" width="21.00" height="14.00" transform="matrix(1.00, 0.00, -0.00, -1.00, 198.0, 157.0)"></image><text xml:space="preserve" font-family="HoeflerText-Regular,Hoefler Text" font-size="42.0" fill="#555239" transform="matrix(1.00, 0.00, -0.00, -1.00, 187.9, 141.7)"> </text><text xml:space="preserve" font-family="HoeflerText-Regular,Hoefler Text" font-size="42.0" fill="#555239" transform="matrix(1.00, 0.00, -0.00, -1.00, 198.4, 141.7)">=</text><text xml:space="preserve" font-family="HoeflerText-Regular,Hoefler Text" font-size="42.0" fill="#555239" transform="matrix(1.00, 0.00, -0.00, -1.00, 216.7, 141.7)"> </text><image xlink:href="93197316C99A5D720B61C72000A8BAD4.png" width="350.00" height="47.00" transform="matrix(1.00, 0.00, -0.00, -1.00, 226.0, 174.0)"></image><text xml:space="preserve" font-family="HoeflerText-Regular,Hoefler Text" font-size="42.0" fill="#2E063D" transform="matrix(1.00, 0.00, -0.00, -1.00, 227.2, 141.7)">p</text><text xml:space="preserve" font-family="HoeflerText-Regular,Hoefler Text" font-size="42.0" fill="#2E063D" transform="matrix(1.00, 0.00, -0.00, -1.00, 250.2, 141.7)">r</text><text xml:space="preserve" font-family="HoeflerText-Regular,Hoefler Text" font-size="42.0" fill="#2E063D" transform="matrix(1.00, 0.00, -0.00, -1.00, 265.9, 141.7)">i</text><text xml:space="preserve" font-family="HoeflerText-Regular,Hoefler Text" font-size="42.0" fill="#2E063D" transform="matrix(1.00, 0.00, -0.00, -1.00, 277.6, 141.7)">c</text><text xml:space="preserve" font-family="HoeflerText-Regular,Hoefler Text" font-size="42.0" fill="#2E063D" transform="matrix(1.00, 0.00, -0.00, -1.00, 296.6, 141.7)">e</text><text xml:space="preserve" font-family="HoeflerText-Regular,Hoefler Text" font-size="42.0" fill="#2E063D" transform="matrix(1.00, 0.00, -0.00, -1.00, 316.3, 141.7)"> </text><text xml:space="preserve" font-family="HoeflerText-Regular,Hoefler Text" font-size="42.0" fill="#2E063D" transform="matrix(1.00, 0.00, -0.00, -1.00, 326.8, 141.7)">f</text><text xml:space="preserve" font-family="HoeflerText-Regular,Hoefler Text" font-size="42.0" fill="#2E063D" transform="matrix(1.00, 0.00, -0.00, -1.00, 340.8, 141.7)">o</text><text xml:space="preserve" font-family="HoeflerText-Regular,Hoefler Text" font-size="42.0" fill="#2E063D" transform="matrix(1.00, 0.00, -0.00, -1.00, 363.3, 141.7)">r</text><text xml:space="preserve" font-family="HoeflerText-Regular,Hoefler Text" font-size="42.0" fill="#2E063D" transform="matrix(1.00, 0.00, -0.00, -1.00, 379.0, 141.7)"> </text><text xml:space="preserve" font-family="HoeflerText-Regular,Hoefler Text" font-size="42.0" fill="#2E063D" transform="matrix(1.00, 0.00, -0.00, -1.00, 389.5, 141.7)">b</text><text xml:space="preserve" font-family="HoeflerText-Regular,Hoefler Text" font-size="42.0" fill="#2E063D" transform="matrix(1.00, 0.00, -0.00, -1.00, 412.5, 141.7)">o</text><text xml:space="preserve" font-family="HoeflerText-Regular,Hoefler Text" font-size="42.0" fill="#2E063D" transform="matrix(1.00, 0.00, -0.00, -1.00, 435.0, 141.7)">r</text><text xml:space="preserve" font-family="HoeflerText-Regular,Hoefler Text" font-size="42.0" fill="#2E063D" transform="matrix(1.00, 0.00, -0.00, -1.00, 450.6, 141.7)">r</text><text xml:space="preserve" font-family="HoeflerText-Regular,Hoefler Text" font-size="42.0" fill="#2E063D" transform="matrix(1.00, 0.00, -0.00, -1.00, 466.2, 141.7)">o</text><text xml:space="preserve" font-family="HoeflerText-Regular,Hoefler Text" font-size="42.0" fill="#2E063D" transform="matrix(1.00, 0.00, -0.00, -1.00, 488.8, 141.7)">w</text><text xml:space="preserve" font-family="HoeflerText-Regular,Hoefler Text" font-size="42.0" fill="#2E063D" transform="matrix(1.00, 0.00, -0.00, -1.00, 518.1, 141.7)">i</text><text xml:space="preserve" font-family="HoeflerText-Regular,Hoefler Text" font-size="42.0" fill="#2E063D" transform="matrix(1.00, 0.00, -0.00, -1.00, 529.9, 141.7)">n</text><text xml:space="preserve" font-family="HoeflerText-Regular,Hoefler Text" font-size="42.0" fill="#2E063D" transform="matrix(1.00, 0.00, -0.00, -1.00, 552.9, 141.7)">g</text><image xlink:href="82482F155EB5716A3180195F28E0D5A1.png" width="121.00" height="47.00" transform="matrix(1.00, 0.00, -0.00, -1.00, 53.0, 225.0)"></image><text xml:space="preserve" font-family="HoeflerText-Regular,Hoefler Text" font-size="42.0" fill="#253D0E" transform="matrix(1.00, 0.00, -0.00, -1.00, 54.1, 192.7)">l</text><text xml:space="preserve" font-family="HoeflerText-Regular,Hoefler Text" font-size="42.0" fill="#253D0E" transform="matrix(1.00, 0.00, -0.00, -1.00, 64.9, 192.7)">u</text><text xml:space="preserve" font-family="HoeflerText-Regular,Hoefler Text" font-size="42.0" fill="#253D0E" transform="matrix(1.00, 0.00, -0.00, -1.00, 86.9, 192.7)">p</text><text xml:space="preserve" font-family="HoeflerText-Regular,Hoefler Text" font-size="42.0" fill="#253D0E" transform="matrix(1.00, 0.00, -0.00, -1.00, 109.9, 192.7)">a</text><text xml:space="preserve" font-family="HoeflerText-Regular,Hoefler Text" font-size="42.0" fill="#253D0E" transform="matrix(1.00, 0.00, -0.00, -1.00, 129.7, 192.7)">g</text><text xml:space="preserve" font-family="HoeflerText-Regular,Hoefler Text" font-size="42.0" fill="#253D0E" transform="matrix(1.00, 0.00, -0.00, -1.00, 149.5, 192.7)">o</text><image xlink:href="A907ADB0381C425567B69761452CA755.png" width="20.00" height="14.00" transform="matrix(1.00, 0.00, -0.00, -1.00, 183.0, 208.0)"></image><text xml:space="preserve" font-family="HoeflerText-Regular,Hoefler Text" font-size="42.0" fill="#555239" transform="matrix(1.00, 0.00, -0.00, -1.00, 172.0, 192.7)"> </text><text xml:space="preserve" font-family="HoeflerText-Regular,Hoefler Text" font-size="42.0" fill="#555239" transform="matrix(1.00, 0.00, -0.00, -1.00, 182.5, 192.7)">=</text><text xml:space="preserve" font-family="HoeflerText-Regular,Hoefler Text" font-size="42.0" fill="#555239" transform="matrix(1.00, 0.00, -0.00, -1.00, 200.9, 192.7)"> </text><image xlink:href="DFFABCE160554CE075843B805B7CEF83.png" width="356.00" height="47.00" transform="matrix(1.00, 0.00, -0.00, -1.00, 210.0, 225.0)"></image><text xml:space="preserve" font-family="HoeflerText-Regular,Hoefler Text" font-size="42.0" fill="#2E063D" transform="matrix(1.00, 0.00, -0.00, -1.00, 211.4, 192.7)">b</text><text xml:space="preserve" font-family="HoeflerText-Regular,Hoefler Text" font-size="42.0" fill="#2E063D" transform="matrix(1.00, 0.00, -0.00, -1.00, 234.4, 192.7)">o</text><text xml:space="preserve" font-family="HoeflerText-Regular,Hoefler Text" font-size="42.0" fill="#2E063D" transform="matrix(1.00, 0.00, -0.00, -1.00, 256.9, 192.7)">r</text><text xml:space="preserve" font-family="HoeflerText-Regular,Hoefler Text" font-size="42.0" fill="#2E063D" transform="matrix(1.00, 0.00, -0.00, -1.00, 272.5, 192.7)">r</text><text xml:space="preserve" font-family="HoeflerText-Regular,Hoefler Text" font-size="42.0" fill="#2E063D" transform="matrix(1.00, 0.00, -0.00, -1.00, 288.1, 192.7)">o</text><text xml:space="preserve" font-family="HoeflerText-Regular,Hoefler Text" font-size="42.0" fill="#2E063D" transform="matrix(1.00, 0.00, -0.00, -1.00, 310.6, 192.7)">w</text><text xml:space="preserve" font-family="HoeflerText-Regular,Hoefler Text" font-size="42.0" fill="#2E063D" transform="matrix(1.00, 0.00, -0.00, -1.00, 339.6, 192.7)">e</text><text xml:space="preserve" font-family="HoeflerText-Regular,Hoefler Text" font-size="42.0" fill="#2E063D" transform="matrix(1.00, 0.00, -0.00, -1.00, 359.3, 192.7)">r</text><text xml:space="preserve" font-family="HoeflerText-Regular,Hoefler Text" font-size="42.0" fill="#2E063D" transform="matrix(1.00, 0.00, -0.00, -1.00, 376.1, 192.7)">’</text><text xml:space="preserve" font-family="HoeflerText-Regular,Hoefler Text" font-size="42.0" fill="#2E063D" transform="matrix(1.00, 0.00, -0.00, -1.00, 383.0, 192.7)">s</text><text xml:space="preserve" font-family="HoeflerText-Regular,Hoefler Text" font-size="42.0" fill="#2E063D" transform="matrix(1.00, 0.00, -0.00, -1.00, 399.0, 192.7)"> </text><text xml:space="preserve" font-family="HoeflerText-Regular,Hoefler Text" font-size="42.0" fill="#2E063D" transform="matrix(1.00, 0.00, -0.00, -1.00, 409.5, 192.7)">p</text><text xml:space="preserve" font-family="HoeflerText-Regular,Hoefler Text" font-size="42.0" fill="#2E063D" transform="matrix(1.00, 0.00, -0.00, -1.00, 432.6, 192.7)">a</text><text xml:space="preserve" font-family="HoeflerText-Regular,Hoefler Text" font-size="42.0" fill="#2E063D" transform="matrix(1.00, 0.00, -0.00, -1.00, 451.3, 192.7)">y</text><text xml:space="preserve" font-family="HoeflerText-Regular,Hoefler Text" font-size="42.0" fill="#2E063D" transform="matrix(1.00, 0.00, -0.00, -1.00, 470.5, 192.7)">m</text><text xml:space="preserve" font-family="HoeflerText-Regular,Hoefler Text" font-size="42.0" fill="#2E063D" transform="matrix(1.00, 0.00, -0.00, -1.00, 505.3, 192.7)">e</text><text xml:space="preserve" font-family="HoeflerText-Regular,Hoefler Text" font-size="42.0" fill="#2E063D" transform="matrix(1.00, 0.00, -0.00, -1.00, 524.9, 192.7)">n</text><text xml:space="preserve" font-family="HoeflerText-Regular,Hoefler Text" font-size="42.0" fill="#2E063D" transform="matrix(1.00, 0.00, -0.00, -1.00, 547.9, 192.7)">t</text><image xlink:href="7DE307C9E17DCC31C9F1D60987042784.png" width="18.00" height="34.00" transform="matrix(1.00, 0.00, -0.00, -1.00, 54.0, 120.0)"></image><text xml:space="preserve" font-family="Times-Roman,Times" font-size="42.0" fill="#253D0E" transform="matrix(1.00, 0.00, -0.00, -1.00, 54.1, 89.5)">ŝ</text><image xlink:href="2FC0957EFB806DF675A9D58A95150402.png" width="52.00" height="34.00" transform="matrix(1.00, 0.00, -0.00, -1.00, 70.0, 119.0)"></image><text xml:space="preserve" font-family="HoeflerText-Regular,Hoefler Text" font-size="42.0" fill="#253D0E" transform="matrix(1.00, 0.00, -0.00, -1.00, 70.4, 89.5)">i</text><text xml:space="preserve" font-family="HoeflerText-Regular,Hoefler Text" font-size="42.0" fill="#253D0E" transform="matrix(1.00, 0.00, -0.00, -1.00, 82.2, 89.5)">r</text><text xml:space="preserve" font-family="HoeflerText-Regular,Hoefler Text" font-size="42.0" fill="#253D0E" transform="matrix(1.00, 0.00, -0.00, -1.00, 97.8, 89.5)">o</text><image xlink:href="8752C6B5930366DE6D47599DD435C777.png" width="20.00" height="14.00" transform="matrix(1.00, 0.00, -0.00, -1.00, 131.0, 105.0)"></image><text xml:space="preserve" font-family="HoeflerText-Regular,Hoefler Text" font-size="42.0" fill="#555239" transform="matrix(1.00, 0.00, -0.00, -1.00, 120.3, 89.5)"> </text><text xml:space="preserve" font-family="HoeflerText-Regular,Hoefler Text" font-size="42.0" fill="#555239" transform="matrix(1.00, 0.00, -0.00, -1.00, 130.8, 89.5)">=</text><text xml:space="preserve" font-family="HoeflerText-Regular,Hoefler Text" font-size="42.0" fill="#555239" transform="matrix(1.00, 0.00, -0.00, -1.00, 149.1, 89.5)"> </text><image xlink:href="A00E262B32297BABFFAB8121AB482875.png" width="230.00" height="36.00" transform="matrix(1.00, 0.00, -0.00, -1.00, 159.0, 121.0)"></image><text xml:space="preserve" font-family="HoeflerText-Regular,Hoefler Text" font-size="42.0" fill="#2E063D" transform="matrix(1.00, 0.00, -0.00, -1.00, 159.6, 89.5)">t</text><text xml:space="preserve" font-family="HoeflerText-Regular,Hoefler Text" font-size="42.0" fill="#2E063D" transform="matrix(1.00, 0.00, -0.00, -1.00, 174.5, 89.5)">e</text><text xml:space="preserve" font-family="HoeflerText-Regular,Hoefler Text" font-size="42.0" fill="#2E063D" transform="matrix(1.00, 0.00, -0.00, -1.00, 194.1, 89.5)">a</text><text xml:space="preserve" font-family="HoeflerText-Regular,Hoefler Text" font-size="42.0" fill="#2E063D" transform="matrix(1.00, 0.00, -0.00, -1.00, 212.9, 89.5)">r</text><text xml:space="preserve" font-family="HoeflerText-Regular,Hoefler Text" font-size="42.0" fill="#2E063D" transform="matrix(1.00, 0.00, -0.00, -1.00, 228.5, 89.5)"> </text><text xml:space="preserve" font-family="HoeflerText-Regular,Hoefler Text" font-size="42.0" fill="#2E063D" transform="matrix(1.00, 0.00, -0.00, -1.00, 239.0, 89.5)">i</text><text xml:space="preserve" font-family="HoeflerText-Regular,Hoefler Text" font-size="42.0" fill="#2E063D" transform="matrix(1.00, 0.00, -0.00, -1.00, 250.8, 89.5)">n</text><text xml:space="preserve" font-family="HoeflerText-Regular,Hoefler Text" font-size="42.0" fill="#2E063D" transform="matrix(1.00, 0.00, -0.00, -1.00, 273.8, 89.5)"> </text><text xml:space="preserve" font-family="HoeflerText-Regular,Hoefler Text" font-size="42.0" fill="#2E063D" transform="matrix(1.00, 0.00, -0.00, -1.00, 284.3, 89.5)">f</text><text xml:space="preserve" font-family="HoeflerText-Regular,Hoefler Text" font-size="42.0" fill="#2E063D" transform="matrix(1.00, 0.00, -0.00, -1.00, 298.3, 89.5)">a</text><text xml:space="preserve" font-family="HoeflerText-Regular,Hoefler Text" font-size="42.0" fill="#2E063D" transform="matrix(1.00, 0.00, -0.00, -1.00, 317.1, 89.5)">b</text><text xml:space="preserve" font-family="HoeflerText-Regular,Hoefler Text" font-size="42.0" fill="#2E063D" transform="matrix(1.00, 0.00, -0.00, -1.00, 340.1, 89.5)">r</text><text xml:space="preserve" font-family="HoeflerText-Regular,Hoefler Text" font-size="42.0" fill="#2E063D" transform="matrix(1.00, 0.00, -0.00, -1.00, 355.7, 89.5)">i</text><text xml:space="preserve" font-family="HoeflerText-Regular,Hoefler Text" font-size="42.0" fill="#2E063D" transform="matrix(1.00, 0.00, -0.00, -1.00, 367.5, 89.5)">c</text><image xlink:href="../../31056429-9E15-400A-8230-D02FA5BBA935/assets/5E652C73679FE762087A6555857AB717.png" width="202.00" height="40.00" transform="matrix(1.00, 0.00, -0.00, -1.00, 51.0, 641.0)"></image><text xml:space="preserve" font-family="HoeflerText-Black,Hoefler Text" font-weight="bold" font-size="48.0" fill="#303030" transform="matrix(1.00, 0.00, -0.00, -1.00, 50.1, 605.3)">E</text><text xml:space="preserve" font-family="HoeflerText-Black,Hoefler Text" font-weight="bold" font-size="48.0" fill="#303030" transform="matrix(1.00, 0.00, -0.00, -1.00, 85.9, 605.3)">f</text><text xml:space="preserve" font-family="HoeflerText-Black,Hoefler Text" font-weight="bold" font-size="48.0" fill="#303030" transform="matrix(1.00, 0.00, -0.00, -1.00, 105.1, 605.3)">f</text><text xml:space="preserve" font-family="HoeflerText-Black,Hoefler Text" font-weight="bold" font-size="48.0" fill="#303030" transform="matrix(1.00, 0.00, -0.00, -1.00, 124.3, 605.3)">i</text><text xml:space="preserve" font-family="HoeflerText-Black,Hoefler Text" font-weight="bold" font-size="48.0" fill="#303030" transform="matrix(1.00, 0.00, -0.00, -1.00, 140.1, 605.3)">c</text><text xml:space="preserve" font-family="HoeflerText-Black,Hoefler Text" font-weight="bold" font-size="48.0" fill="#303030" transform="matrix(1.00, 0.00, -0.00, -1.00, 165.1, 605.3)">i</text><text xml:space="preserve" font-family="HoeflerText-Black,Hoefler Text" font-weight="bold" font-size="48.0" fill="#303030" transform="matrix(1.00, 0.00, -0.00, -1.00, 180.9, 605.3)">e</text><text xml:space="preserve" font-family="HoeflerText-Black,Hoefler Text" font-weight="bold" font-size="48.0" fill="#303030" transform="matrix(1.00, 0.00, -0.00, -1.00, 206.7, 605.3)">n</text><text xml:space="preserve" font-family="HoeflerText-Black,Hoefler Text" font-weight="bold" font-size="48.0" fill="#303030" transform="matrix(1.00, 0.00, -0.00, -1.00, 236.8, 605.3)">t</text><image xlink:href="../../08563D04-DE72-4CC7-A2A6-DA5F573905E1/assets/876C146A43271FAE25FF16E52077C4A2.png" width="469.00" height="56.00" transform="matrix(1.00, 0.00, -0.00, -1.00, 263.0, 644.0)"></image><text xml:space="preserve" font-family="HoeflerText-Regular,Hoefler Text" font-size="48.0" fill="#303030" transform="matrix(1.00, 0.00, -0.00, -1.00, 250.4, 605.3)"> </text><text xml:space="preserve" font-family="HoeflerText-Regular,Hoefler Text" font-size="48.0" fill="#303030" transform="matrix(1.00, 0.00, -0.00, -1.00, 262.4, 605.3)">(</text><text xml:space="preserve" font-family="HoeflerText-Regular,Hoefler Text" font-size="48.0" fill="#303030" transform="matrix(1.00, 0.00, -0.00, -1.00, 276.5, 605.3)">l</text><text xml:space="preserve" font-family="HoeflerText-Regular,Hoefler Text" font-size="48.0" fill="#303030" transform="matrix(1.00, 0.00, -0.00, -1.00, 289.0, 605.3)">e</text><text xml:space="preserve" font-family="HoeflerText-Regular,Hoefler Text" font-size="48.0" fill="#303030" transform="matrix(1.00, 0.00, -0.00, -1.00, 311.4, 605.3)">a</text><text xml:space="preserve" font-family="HoeflerText-Regular,Hoefler Text" font-size="48.0" fill="#303030" transform="matrix(1.00, 0.00, -0.00, -1.00, 332.8, 605.3)">r</text><text xml:space="preserve" font-family="HoeflerText-Regular,Hoefler Text" font-size="48.0" fill="#303030" transform="matrix(1.00, 0.00, -0.00, -1.00, 351.2, 605.3)">n</text><text xml:space="preserve" font-family="HoeflerText-Regular,Hoefler Text" font-size="48.0" fill="#303030" transform="matrix(1.00, 0.00, -0.00, -1.00, 377.5, 605.3)">a</text><text xml:space="preserve" font-family="HoeflerText-Regular,Hoefler Text" font-size="48.0" fill="#303030" transform="matrix(1.00, 0.00, -0.00, -1.00, 398.9, 605.3)">b</text><text xml:space="preserve" font-family="HoeflerText-Regular,Hoefler Text" font-size="48.0" fill="#303030" transform="matrix(1.00, 0.00, -0.00, -1.00, 425.2, 605.3)">l</text><text xml:space="preserve" font-family="HoeflerText-Regular,Hoefler Text" font-size="48.0" fill="#303030" transform="matrix(1.00, 0.00, -0.00, -1.00, 437.6, 605.3)">e</text><text xml:space="preserve" font-family="HoeflerText-Regular,Hoefler Text" font-size="48.0" fill="#303030" transform="matrix(1.00, 0.00, -0.00, -1.00, 460.1, 605.3)">,</text><text xml:space="preserve" font-family="HoeflerText-Regular,Hoefler Text" font-size="48.0" fill="#303030" transform="matrix(1.00, 0.00, -0.00, -1.00, 471.9, 605.3)"> </text><text xml:space="preserve" font-family="HoeflerText-Regular,Hoefler Text" font-size="48.0" fill="#303030" transform="matrix(1.00, 0.00, -0.00, -1.00, 483.9, 605.3)">i</text><text xml:space="preserve" font-family="HoeflerText-Regular,Hoefler Text" font-size="48.0" fill="#303030" transform="matrix(1.00, 0.00, -0.00, -1.00, 497.4, 605.3)">n</text><text xml:space="preserve" font-family="HoeflerText-Regular,Hoefler Text" font-size="48.0" fill="#303030" transform="matrix(1.00, 0.00, -0.00, -1.00, 523.7, 605.3)">t</text><text xml:space="preserve" font-family="HoeflerText-Regular,Hoefler Text" font-size="48.0" fill="#303030" transform="matrix(1.00, 0.00, -0.00, -1.00, 540.7, 605.3)">e</text><text xml:space="preserve" font-family="HoeflerText-Regular,Hoefler Text" font-size="48.0" fill="#303030" transform="matrix(1.00, 0.00, -0.00, -1.00, 563.1, 605.3)">l</text><text xml:space="preserve" font-family="HoeflerText-Regular,Hoefler Text" font-size="48.0" fill="#303030" transform="matrix(1.00, 0.00, -0.00, -1.00, 576.1, 605.3)">l</text><text xml:space="preserve" font-family="HoeflerText-Regular,Hoefler Text" font-size="48.0" fill="#303030" transform="matrix(1.00, 0.00, -0.00, -1.00, 588.5, 605.3)">i</text><text xml:space="preserve" font-family="HoeflerText-Regular,Hoefler Text" font-size="48.0" fill="#303030" transform="matrix(1.00, 0.00, -0.00, -1.00, 601.9, 605.3)">g</text><text xml:space="preserve" font-family="HoeflerText-Regular,Hoefler Text" font-size="48.0" fill="#303030" transform="matrix(1.00, 0.00, -0.00, -1.00, 624.6, 605.3)">i</text><text xml:space="preserve" font-family="HoeflerText-Regular,Hoefler Text" font-size="48.0" fill="#303030" transform="matrix(1.00, 0.00, -0.00, -1.00, 638.0, 605.3)">b</text><text xml:space="preserve" font-family="HoeflerText-Regular,Hoefler Text" font-size="48.0" fill="#303030" transform="matrix(1.00, 0.00, -0.00, -1.00, 664.3, 605.3)">l</text><text xml:space="preserve" font-family="HoeflerText-Regular,Hoefler Text" font-size="48.0" fill="#303030" transform="matrix(1.00, 0.00, -0.00, -1.00, 676.8, 605.3)">e</text><text xml:space="preserve" font-family="HoeflerText-Regular,Hoefler Text" font-size="48.0" fill="#303030" transform="matrix(1.00, 0.00, -0.00, -1.00, 699.2, 605.3)">)</text><text xml:space="preserve" font-family="HoeflerText-Regular,Hoefler Text" font-size="48.0" fill="#303030" transform="matrix(1.00, 0.00, -0.00, -1.00, 713.4, 605.3)">?</text><image xlink:href="../../31056429-9E15-400A-8230-D02FA5BBA935/assets/8FB77FB1AF6248F8B2DC7BE5CB1DCA9E.png" width="21.00" height="21.00" transform="matrix(1.00, 0.00, -0.00, -1.00, 69.0, 562.0)"></image><text xml:space="preserve" font-family="HoeflerText-Regular,Hoefler Text" font-size="60.0" fill="#303030" transform="matrix(1.00, 0.00, -0.00, -1.00, 68.1, 531.7)">•</text><image xlink:href="../../08563D04-DE72-4CC7-A2A6-DA5F573905E1/assets/0D91A508EC17E69B1931DE8FFE73E5F1.png" width="504.00" height="54.00" transform="matrix(1.00, 0.00, -0.00, -1.00, 97.0, 572.0)"></image><text xml:space="preserve" font-family="HoeflerText-Regular,Hoefler Text" font-size="48.0" fill="#303030" transform="matrix(1.00, 0.00, -0.00, -1.00, 98.1, 535.3)">A</text><text xml:space="preserve" font-family="HoeflerText-Regular,Hoefler Text" font-size="48.0" fill="#303030" transform="matrix(1.00, 0.00, -0.00, -1.00, 130.3, 535.3)">v</text><text xml:space="preserve" font-family="HoeflerText-Regular,Hoefler Text" font-size="48.0" fill="#303030" transform="matrix(1.00, 0.00, -0.00, -1.00, 152.2, 535.3)">o</text><text xml:space="preserve" font-family="HoeflerText-Regular,Hoefler Text" font-size="48.0" fill="#303030" transform="matrix(1.00, 0.00, -0.00, -1.00, 177.9, 535.3)">i</text><text xml:space="preserve" font-family="HoeflerText-Regular,Hoefler Text" font-size="48.0" fill="#303030" transform="matrix(1.00, 0.00, -0.00, -1.00, 191.3, 535.3)">d</text><text xml:space="preserve" font-family="HoeflerText-Regular,Hoefler Text" font-size="48.0" fill="#303030" transform="matrix(1.00, 0.00, -0.00, -1.00, 217.4, 535.3)">s</text><text xml:space="preserve" font-family="HoeflerText-Regular,Hoefler Text" font-size="48.0" fill="#303030" transform="matrix(1.00, 0.00, -0.00, -1.00, 235.7, 535.3)"> </text><text xml:space="preserve" font-family="HoeflerText-Regular,Hoefler Text" font-size="48.0" fill="#303030" transform="matrix(1.00, 0.00, -0.00, -1.00, 247.7, 535.3)">a</text><text xml:space="preserve" font-family="HoeflerText-Regular,Hoefler Text" font-size="48.0" fill="#303030" transform="matrix(1.00, 0.00, -0.00, -1.00, 269.1, 535.3)">m</text><text xml:space="preserve" font-family="HoeflerText-Regular,Hoefler Text" font-size="48.0" fill="#303030" transform="matrix(1.00, 0.00, -0.00, -1.00, 308.8, 535.3)">b</text><text xml:space="preserve" font-family="HoeflerText-Regular,Hoefler Text" font-size="48.0" fill="#303030" transform="matrix(1.00, 0.00, -0.00, -1.00, 335.1, 535.3)">i</text><text xml:space="preserve" font-family="HoeflerText-Regular,Hoefler Text" font-size="48.0" fill="#303030" transform="matrix(1.00, 0.00, -0.00, -1.00, 348.5, 535.3)">g</text><text xml:space="preserve" font-family="HoeflerText-Regular,Hoefler Text" font-size="48.0" fill="#303030" transform="matrix(1.00, 0.00, -0.00, -1.00, 371.2, 535.3)">u</text><text xml:space="preserve" font-family="HoeflerText-Regular,Hoefler Text" font-size="48.0" fill="#303030" transform="matrix(1.00, 0.00, -0.00, -1.00, 396.3, 535.3)">o</text><text xml:space="preserve" font-family="HoeflerText-Regular,Hoefler Text" font-size="48.0" fill="#303030" transform="matrix(1.00, 0.00, -0.00, -1.00, 422.0, 535.3)">u</text><text xml:space="preserve" font-family="HoeflerText-Regular,Hoefler Text" font-size="48.0" fill="#303030" transform="matrix(1.00, 0.00, -0.00, -1.00, 447.1, 535.3)">s</text><text xml:space="preserve" font-family="HoeflerText-Regular,Hoefler Text" font-size="48.0" fill="#303030" transform="matrix(1.00, 0.00, -0.00, -1.00, 465.5, 535.3)"> </text><text xml:space="preserve" font-family="HoeflerText-Regular,Hoefler Text" font-size="48.0" fill="#303030" transform="matrix(1.00, 0.00, -0.00, -1.00, 477.5, 535.3)">w</text><text xml:space="preserve" font-family="HoeflerText-Regular,Hoefler Text" font-size="48.0" fill="#303030" transform="matrix(1.00, 0.00, -0.00, -1.00, 510.7, 535.3)">o</text><text xml:space="preserve" font-family="HoeflerText-Regular,Hoefler Text" font-size="48.0" fill="#303030" transform="matrix(1.00, 0.00, -0.00, -1.00, 536.4, 535.3)">r</text><text xml:space="preserve" font-family="HoeflerText-Regular,Hoefler Text" font-size="48.0" fill="#303030" transform="matrix(1.00, 0.00, -0.00, -1.00, 554.3, 535.3)">d</text><text xml:space="preserve" font-family="HoeflerText-Regular,Hoefler Text" font-size="48.0" fill="#303030" transform="matrix(1.00, 0.00, -0.00, -1.00, 580.3, 535.3)">s</text><image xlink:href="8885F425BE0C24DCC4987DCFA1A0BDEA.png" width="115.00" height="39.00" transform="matrix(1.00, 0.00, -0.00, -1.00, 455.0, 476.0)"></image><text xml:space="preserve" font-family="HoeflerText-Regular,Hoefler Text" font-size="64.0" fill="#2E063D" transform="matrix(1.00, 0.00, -0.00, -1.00, 455.3, 441.4)">r</text><text xml:space="preserve" font-family="HoeflerText-Regular,Hoefler Text" font-size="64.0" fill="#2E063D" transform="matrix(1.00, 0.00, -0.00, -1.00, 479.1, 441.4)">e</text><text xml:space="preserve" font-family="HoeflerText-Regular,Hoefler Text" font-size="64.0" fill="#2E063D" transform="matrix(1.00, 0.00, -0.00, -1.00, 509.1, 441.4)">n</text><text xml:space="preserve" font-family="HoeflerText-Regular,Hoefler Text" font-size="64.0" fill="#2E063D" transform="matrix(1.00, 0.00, -0.00, -1.00, 544.2, 441.4)">t</text></g></svg>