<?xml version="1.0" encoding="UTF-8" standalone="no"?><svg xmlns="http://www.w3.org/2000/svg" xmlns:xlink="http://www.w3.org/1999/xlink" clip-rule="evenodd" stroke-miterlimit="10" viewBox="0 0 1024 768"><desc>SVG generated by Keynote</desc><defs></defs><g transform="matrix(1.00, 0.00, -0.00, -1.00, 0.0, 768.0)"><path d="M 0.0 768.0 L 1024.0 768.0 L 1024.0 0.0 L 0.0 0.0 Z M 0.0 768.0 " fill="#ECEAD5"></path><image xlink:href="../../22173742-CE2C-4E9D-A23D-87AB90922FF0/assets/121B02B07BF152ABF6F15C9A48F8B827.png" width="535.00" height="69.00" transform="matrix(1.00, 0.00, -0.00, -1.00, 232.0, 738.0)"></image><text xml:space="preserve" font-family="HoeflerText-Regular,Hoefler Text" font-size="64.0" fill="#3B3B3B" transform="matrix(1.00, 0.00, -0.00, -1.00, 234.0, 689.9)">W</text><text xml:space="preserve" font-family="HoeflerText-Regular,Hoefler Text" font-size="64.0" fill="#3B3B3B" transform="matrix(1.00, 0.00, -0.00, -1.00, 305.9, 689.9)">h</text><text xml:space="preserve" font-family="HoeflerText-Regular,Hoefler Text" font-size="64.0" fill="#3B3B3B" transform="matrix(1.00, 0.00, -0.00, -1.00, 341.4, 689.9)">a</text><text xml:space="preserve" font-family="HoeflerText-Regular,Hoefler Text" font-size="64.0" fill="#3B3B3B" transform="matrix(1.00, 0.00, -0.00, -1.00, 369.9, 689.9)">t</text><text xml:space="preserve" font-family="HoeflerText-Regular,Hoefler Text" font-size="64.0" fill="#3B3B3B" transform="matrix(1.00, 0.00, -0.00, -1.00, 393.5, 689.9)"> </text><text xml:space="preserve" font-family="HoeflerText-Regular,Hoefler Text" font-size="64.0" fill="#3B3B3B" transform="matrix(1.00, 0.00, -0.00, -1.00, 409.5, 689.9)">i</text><text xml:space="preserve" font-family="HoeflerText-Regular,Hoefler Text" font-size="64.0" fill="#3B3B3B" transform="matrix(1.00, 0.00, -0.00, -1.00, 427.5, 689.9)">s</text><text xml:space="preserve" font-family="HoeflerText-Regular,Hoefler Text" font-size="64.0" fill="#3B3B3B" transform="matrix(1.00, 0.00, -0.00, -1.00, 451.9, 689.9)"> </text><text xml:space="preserve" font-family="HoeflerText-Regular,Hoefler Text" font-size="64.0" fill="#3B3B3B" transform="matrix(1.00, 0.00, -0.00, -1.00, 467.9, 689.9)">E</text><text xml:space="preserve" font-family="HoeflerText-Regular,Hoefler Text" font-size="64.0" fill="#3B3B3B" transform="matrix(1.00, 0.00, -0.00, -1.00, 509.6, 689.9)">s</text><text xml:space="preserve" font-family="HoeflerText-Regular,Hoefler Text" font-size="64.0" fill="#3B3B3B" transform="matrix(1.00, 0.00, -0.00, -1.00, 534.0, 689.9)">p</text><text xml:space="preserve" font-family="HoeflerText-Regular,Hoefler Text" font-size="64.0" fill="#3B3B3B" transform="matrix(1.00, 0.00, -0.00, -1.00, 569.1, 689.9)">e</text><text xml:space="preserve" font-family="HoeflerText-Regular,Hoefler Text" font-size="64.0" fill="#3B3B3B" transform="matrix(1.00, 0.00, -0.00, -1.00, 599.0, 689.9)">r</text><text xml:space="preserve" font-family="HoeflerText-Regular,Hoefler Text" font-size="64.0" fill="#3B3B3B" transform="matrix(1.00, 0.00, -0.00, -1.00, 622.8, 689.9)">a</text><text xml:space="preserve" font-family="HoeflerText-Regular,Hoefler Text" font-size="64.0" fill="#3B3B3B" transform="matrix(1.00, 0.00, -0.00, -1.00, 651.4, 689.9)">n</text><text xml:space="preserve" font-family="HoeflerText-Regular,Hoefler Text" font-size="64.0" fill="#3B3B3B" transform="matrix(1.00, 0.00, -0.00, -1.00, 686.5, 689.9)">t</text><text xml:space="preserve" font-family="HoeflerText-Regular,Hoefler Text" font-size="64.0" fill="#3B3B3B" transform="matrix(1.00, 0.00, -0.00, -1.00, 709.1, 689.9)">o</text><text xml:space="preserve" font-family="HoeflerText-Regular,Hoefler Text" font-size="64.0" fill="#3B3B3B" transform="matrix(1.00, 0.00, -0.00, -1.00, 743.4, 689.9)">?</text><image xlink:href="../../9AB233DB-C45D-480D-AFDA-EE6856EE53E7/assets/402AEE1CE6848EF7FB777BEC5184715E.png" width="66.00" height="39.00" transform="matrix(1.00, 0.00, -0.00, -1.00, 49.0, 641.0)"></image><text xml:space="preserve" font-family="HoeflerText-Regular,Hoefler Text" font-size="48.0" fill="#303030" transform="matrix(1.00, 0.00, -0.00, -1.00, 50.1, 605.3)">A</text><text xml:space="preserve" font-family="HoeflerText-Regular,Hoefler Text" font-size="48.0" fill="#303030" transform="matrix(1.00, 0.00, -0.00, -1.00, 85.4, 605.3)">n</text><text xml:space="preserve" font-family="HoeflerText-Regular,Hoefler Text" font-size="48.0" fill="#303030" transform="matrix(1.00, 0.00, -0.00, -1.00, 111.7, 605.3)"> </text><image xlink:href="../../9AB233DB-C45D-480D-AFDA-EE6856EE53E7/assets/FC5732809B0C7284EA50446CE1B9084A.png" width="204.00" height="41.00" transform="matrix(1.00, 0.00, -0.00, -1.00, 123.0, 642.0)"></image><text xml:space="preserve" font-family="HoeflerText-Black,Hoefler Text" font-weight="bold" font-size="48.0" fill="#303030" transform="matrix(1.00, 0.00, -0.00, -1.00, 123.7, 605.3)">a</text><text xml:space="preserve" font-family="HoeflerText-Black,Hoefler Text" font-weight="bold" font-size="48.0" fill="#303030" transform="matrix(1.00, 0.00, -0.00, -1.00, 149.3, 605.3)">r</text><text xml:space="preserve" font-family="HoeflerText-Black,Hoefler Text" font-weight="bold" font-size="48.0" fill="#303030" transform="matrix(1.00, 0.00, -0.00, -1.00, 173.2, 605.3)">t</text><text xml:space="preserve" font-family="HoeflerText-Black,Hoefler Text" font-weight="bold" font-size="48.0" fill="#303030" transform="matrix(1.00, 0.00, -0.00, -1.00, 193.7, 605.3)">i</text><text xml:space="preserve" font-family="HoeflerText-Black,Hoefler Text" font-weight="bold" font-size="48.0" fill="#303030" transform="matrix(1.00, 0.00, -0.00, -1.00, 209.5, 605.3)">ﬁ</text><text xml:space="preserve" font-family="HoeflerText-Black,Hoefler Text" font-weight="bold" font-size="48.0" fill="#303030" transform="matrix(1.00, 0.00, -0.00, -1.00, 241.3, 605.3)">c</text><text xml:space="preserve" font-family="HoeflerText-Black,Hoefler Text" font-weight="bold" font-size="48.0" fill="#303030" transform="matrix(1.00, 0.00, -0.00, -1.00, 266.3, 605.3)">i</text><text xml:space="preserve" font-family="HoeflerText-Black,Hoefler Text" font-weight="bold" font-size="48.0" fill="#303030" transform="matrix(1.00, 0.00, -0.00, -1.00, 282.5, 605.3)">a</text><text xml:space="preserve" font-family="HoeflerText-Black,Hoefler Text" font-weight="bold" font-size="48.0" fill="#303030" transform="matrix(1.00, 0.00, -0.00, -1.00, 308.2, 605.3)">l</text><image xlink:href="../../9AB233DB-C45D-480D-AFDA-EE6856EE53E7/assets/396D1C62F76A8EC453AB67E09A86DA6B.png" width="586.00" height="54.00" transform="matrix(1.00, 0.00, -0.00, -1.00, 334.0, 642.0)"></image><text xml:space="preserve" font-family="HoeflerText-Regular,Hoefler Text" font-size="48.0" fill="#303030" transform="matrix(1.00, 0.00, -0.00, -1.00, 323.3, 605.3)"> </text><text xml:space="preserve" font-family="HoeflerText-Regular,Hoefler Text" font-size="48.0" fill="#303030" transform="matrix(1.00, 0.00, -0.00, -1.00, 335.3, 605.3)">l</text><text xml:space="preserve" font-family="HoeflerText-Regular,Hoefler Text" font-size="48.0" fill="#303030" transform="matrix(1.00, 0.00, -0.00, -1.00, 347.7, 605.3)">a</text><text xml:space="preserve" font-family="HoeflerText-Regular,Hoefler Text" font-size="48.0" fill="#303030" transform="matrix(1.00, 0.00, -0.00, -1.00, 369.1, 605.3)">n</text><text xml:space="preserve" font-family="HoeflerText-Regular,Hoefler Text" font-size="48.0" fill="#303030" transform="matrix(1.00, 0.00, -0.00, -1.00, 395.4, 605.3)">g</text><text xml:space="preserve" font-family="HoeflerText-Regular,Hoefler Text" font-size="48.0" fill="#303030" transform="matrix(1.00, 0.00, -0.00, -1.00, 418.1, 605.3)">u</text><text xml:space="preserve" font-family="HoeflerText-Regular,Hoefler Text" font-size="48.0" fill="#303030" transform="matrix(1.00, 0.00, -0.00, -1.00, 443.2, 605.3)">a</text><text xml:space="preserve" font-family="HoeflerText-Regular,Hoefler Text" font-size="48.0" fill="#303030" transform="matrix(1.00, 0.00, -0.00, -1.00, 465.8, 605.3)">g</text><text xml:space="preserve" font-family="HoeflerText-Regular,Hoefler Text" font-size="48.0" fill="#303030" transform="matrix(1.00, 0.00, -0.00, -1.00, 488.5, 605.3)">e</text><text xml:space="preserve" font-family="HoeflerText-Regular,Hoefler Text" font-size="48.0" fill="#303030" transform="matrix(1.00, 0.00, -0.00, -1.00, 510.9, 605.3)">:</text><text xml:space="preserve" font-family="HoeflerText-Regular,Hoefler Text" font-size="48.0" fill="#303030" transform="matrix(1.00, 0.00, -0.00, -1.00, 522.8, 605.3)"> </text><text xml:space="preserve" font-family="HoeflerText-Regular,Hoefler Text" font-size="48.0" fill="#303030" transform="matrix(1.00, 0.00, -0.00, -1.00, 534.8, 605.3)">o</text><text xml:space="preserve" font-family="HoeflerText-Regular,Hoefler Text" font-size="48.0" fill="#303030" transform="matrix(1.00, 0.00, -0.00, -1.00, 560.5, 605.3)">n</text><text xml:space="preserve" font-family="HoeflerText-Regular,Hoefler Text" font-size="48.0" fill="#303030" transform="matrix(1.00, 0.00, -0.00, -1.00, 586.8, 605.3)">e</text><text xml:space="preserve" font-family="HoeflerText-Regular,Hoefler Text" font-size="48.0" fill="#303030" transform="matrix(1.00, 0.00, -0.00, -1.00, 609.3, 605.3)"> </text><text xml:space="preserve" font-family="HoeflerText-Regular,Hoefler Text" font-size="48.0" fill="#303030" transform="matrix(1.00, 0.00, -0.00, -1.00, 621.3, 605.3)">o</text><text xml:space="preserve" font-family="HoeflerText-Regular,Hoefler Text" font-size="48.0" fill="#303030" transform="matrix(1.00, 0.00, -0.00, -1.00, 647.0, 605.3)">f</text><text xml:space="preserve" font-family="HoeflerText-Regular,Hoefler Text" font-size="48.0" fill="#303030" transform="matrix(1.00, 0.00, -0.00, -1.00, 663.1, 605.3)"> </text><text xml:space="preserve" font-family="HoeflerText-Regular,Hoefler Text" font-size="48.0" fill="#303030" transform="matrix(1.00, 0.00, -0.00, -1.00, 675.1, 605.3)">a</text><text xml:space="preserve" font-family="HoeflerText-Regular,Hoefler Text" font-size="48.0" fill="#303030" transform="matrix(1.00, 0.00, -0.00, -1.00, 696.5, 605.3)">b</text><text xml:space="preserve" font-family="HoeflerText-Regular,Hoefler Text" font-size="48.0" fill="#303030" transform="matrix(1.00, 0.00, -0.00, -1.00, 722.8, 605.3)">o</text><text xml:space="preserve" font-family="HoeflerText-Regular,Hoefler Text" font-size="48.0" fill="#303030" transform="matrix(1.00, 0.00, -0.00, -1.00, 748.5, 605.3)">u</text><text xml:space="preserve" font-family="HoeflerText-Regular,Hoefler Text" font-size="48.0" fill="#303030" transform="matrix(1.00, 0.00, -0.00, -1.00, 773.6, 605.3)">t</text><text xml:space="preserve" font-family="HoeflerText-Regular,Hoefler Text" font-size="48.0" fill="#303030" transform="matrix(1.00, 0.00, -0.00, -1.00, 791.3, 605.3)"> </text><text xml:space="preserve" font-family="HoeflerText-Regular,Hoefler Text" font-size="48.0" fill="#303030" transform="matrix(1.00, 0.00, -0.00, -1.00, 803.3, 605.3)">1</text><text xml:space="preserve" font-family="HoeflerText-Regular,Hoefler Text" font-size="48.0" fill="#303030" transform="matrix(1.00, 0.00, -0.00, -1.00, 821.5, 605.3)">,</text><text xml:space="preserve" font-family="HoeflerText-Regular,Hoefler Text" font-size="48.0" fill="#303030" transform="matrix(1.00, 0.00, -0.00, -1.00, 833.4, 605.3)">0</text><text xml:space="preserve" font-family="HoeflerText-Regular,Hoefler Text" font-size="48.0" fill="#303030" transform="matrix(1.00, 0.00, -0.00, -1.00, 862.0, 605.3)">0</text><text xml:space="preserve" font-family="HoeflerText-Regular,Hoefler Text" font-size="48.0" fill="#303030" transform="matrix(1.00, 0.00, -0.00, -1.00, 890.6, 605.3)">0</text><text xml:space="preserve" font-family="HoeflerText-Regular,Hoefler Text" font-size="24.0" fill="#555239" transform="matrix(1.00, 0.00, -0.00, -1.00, 504.8, 12.7)"></text><image xlink:href="../../78EEBC0D-89FA-44B4-8E10-10E4B1AD3624/assets/961D4003D25ACF30219FE92DED35B361.png" width="17.00" height="21.00" transform="matrix(1.00, 0.00, -0.00, -1.00, 504.0, 25.0)"></image><text xml:space="preserve" font-family="HoeflerText-Regular,Hoefler Text" font-size="24.0" fill="#555239" transform="matrix(1.00, 0.00, -0.00, -1.00, 504.8, 12.7)">4</text><image xlink:href="../../78EEBC0D-89FA-44B4-8E10-10E4B1AD3624/assets/62FDB5D8ECD515E75A7C0BB381F0DF67.png" width="85.00" height="32.00" transform="matrix(1.00, 0.00, -0.00, -1.00, 510.0, 498.0)"></image><text xml:space="preserve" font-family="HoeflerText-Regular,Hoefler Text" font-size="36.0" fill="#555239" transform="matrix(1.00, 0.00, -0.00, -1.00, 510.2, 470.5)">L</text><text xml:space="preserve" font-family="HoeflerText-Regular,Hoefler Text" font-size="36.0" fill="#555239" transform="matrix(1.00, 0.00, -0.00, -1.00, 532.4, 470.5)">i</text><text xml:space="preserve" font-family="HoeflerText-Regular,Hoefler Text" font-size="36.0" fill="#555239" transform="matrix(1.00, 0.00, -0.00, -1.00, 542.5, 470.5)">t</text><text xml:space="preserve" font-family="HoeflerText-Regular,Hoefler Text" font-size="36.0" fill="#555239" transform="matrix(1.00, 0.00, -0.00, -1.00, 555.8, 470.5)">i</text><text xml:space="preserve" font-family="HoeflerText-Regular,Hoefler Text" font-size="36.0" fill="#555239" transform="matrix(1.00, 0.00, -0.00, -1.00, 565.8, 470.5)">l</text><text xml:space="preserve" font-family="HoeflerText-Regular,Hoefler Text" font-size="36.0" fill="#555239" transform="matrix(1.00, 0.00, -0.00, -1.00, 575.2, 470.5)">a</text><image xlink:href="../../78EEBC0D-89FA-44B4-8E10-10E4B1AD3624/assets/CE3D248703D3555B9437A0FAB41E90DD.png" width="69.00" height="31.00" transform="matrix(1.00, 0.00, -0.00, -1.00, 510.0, 454.0)"></image><text xml:space="preserve" font-family="HoeflerText-Regular,Hoefler Text" font-size="36.0" fill="#555239" transform="matrix(1.00, 0.00, -0.00, -1.00, 510.2, 427.5)">L</text><text xml:space="preserve" font-family="HoeflerText-Regular,Hoefler Text" font-size="36.0" fill="#555239" transform="matrix(1.00, 0.00, -0.00, -1.00, 532.4, 427.5)">i</text><text xml:space="preserve" font-family="HoeflerText-Regular,Hoefler Text" font-size="36.0" fill="#555239" transform="matrix(1.00, 0.00, -0.00, -1.00, 542.5, 427.5)">v</text><text xml:space="preserve" font-family="HoeflerText-Regular,Hoefler Text" font-size="36.0" fill="#555239" transform="matrix(1.00, 0.00, -0.00, -1.00, 558.9, 427.5)">a</text><image xlink:href="../../78EEBC0D-89FA-44B4-8E10-10E4B1AD3624/assets/0E872533209FE542716932799B45D8C7.png" width="119.00" height="41.00" transform="matrix(1.00, 0.00, -0.00, -1.00, 510.0, 412.0)"></image><text xml:space="preserve" font-family="HoeflerText-Regular,Hoefler Text" font-size="36.0" fill="#555239" transform="matrix(1.00, 0.00, -0.00, -1.00, 510.2, 384.5)">L</text><text xml:space="preserve" font-family="HoeflerText-Regular,Hoefler Text" font-size="36.0" fill="#555239" transform="matrix(1.00, 0.00, -0.00, -1.00, 532.4, 384.5)">l</text><text xml:space="preserve" font-family="HoeflerText-Regular,Hoefler Text" font-size="36.0" fill="#555239" transform="matrix(1.00, 0.00, -0.00, -1.00, 541.7, 384.5)">e</text><text xml:space="preserve" font-family="HoeflerText-Regular,Hoefler Text" font-size="36.0" fill="#555239" transform="matrix(1.00, 0.00, -0.00, -1.00, 558.6, 384.5)">g</text><text xml:space="preserve" font-family="HoeflerText-Regular,Hoefler Text" font-size="36.0" fill="#555239" transform="matrix(1.00, 0.00, -0.00, -1.00, 575.6, 384.5)">i</text><text xml:space="preserve" font-family="HoeflerText-Regular,Hoefler Text" font-size="36.0" fill="#555239" transform="matrix(1.00, 0.00, -0.00, -1.00, 585.6, 384.5)">s</text><text xml:space="preserve" font-family="HoeflerText-Regular,Hoefler Text" font-size="36.0" fill="#555239" transform="matrix(1.00, 0.00, -0.00, -1.00, 599.4, 384.5)">i</text><text xml:space="preserve" font-family="HoeflerText-Regular,Hoefler Text" font-size="36.0" fill="#555239" transform="matrix(1.00, 0.00, -0.00, -1.00, 609.5, 384.5)">a</text><image xlink:href="../../78EEBC0D-89FA-44B4-8E10-10E4B1AD3624/assets/1F247E07C913214ACD9BE1C0E5E71194.png" width="277.00" height="43.00" transform="matrix(1.00, 0.00, -0.00, -1.00, 510.0, 371.0)"></image><text xml:space="preserve" font-family="HoeflerText-Regular,Hoefler Text" font-size="36.0" fill="#555239" transform="matrix(1.00, 0.00, -0.00, -1.00, 510.2, 341.5)">L</text><text xml:space="preserve" font-family="HoeflerText-Regular,Hoefler Text" font-size="36.0" fill="#555239" transform="matrix(1.00, 0.00, -0.00, -1.00, 532.4, 341.5)">o</text><text xml:space="preserve" font-family="HoeflerText-Regular,Hoefler Text" font-size="36.0" fill="#555239" transform="matrix(1.00, 0.00, -0.00, -1.00, 551.7, 341.5)">g</text><text xml:space="preserve" font-family="HoeflerText-Regular,Hoefler Text" font-size="36.0" fill="#555239" transform="matrix(1.00, 0.00, -0.00, -1.00, 568.7, 341.5)">a</text><text xml:space="preserve" font-family="HoeflerText-Regular,Hoefler Text" font-size="36.0" fill="#555239" transform="matrix(1.00, 0.00, -0.00, -1.00, 584.7, 341.5)"> </text><text xml:space="preserve" font-family="HoeflerText-Regular,Hoefler Text" font-size="36.0" fill="#555239" transform="matrix(1.00, 0.00, -0.00, -1.00, 593.7, 341.5)">(</text><text xml:space="preserve" font-family="HoeflerText-Regular,Hoefler Text" font-size="36.0" fill="#555239" transform="matrix(1.00, 0.00, -0.00, -1.00, 604.4, 341.5)">N</text><text xml:space="preserve" font-family="HoeflerText-Regular,Hoefler Text" font-size="36.0" fill="#555239" transform="matrix(1.00, 0.00, -0.00, -1.00, 633.5, 341.5)">i</text><text xml:space="preserve" font-family="HoeflerText-Regular,Hoefler Text" font-size="36.0" fill="#555239" transform="matrix(1.00, 0.00, -0.00, -1.00, 643.6, 341.5)">e</text><text xml:space="preserve" font-family="HoeflerText-Regular,Hoefler Text" font-size="36.0" fill="#555239" transform="matrix(1.00, 0.00, -0.00, -1.00, 660.4, 341.5)">l</text><text xml:space="preserve" font-family="HoeflerText-Regular,Hoefler Text" font-size="36.0" fill="#555239" transform="matrix(1.00, 0.00, -0.00, -1.00, 669.7, 341.5)">d</text><text xml:space="preserve" font-family="HoeflerText-Regular,Hoefler Text" font-size="36.0" fill="#555239" transform="matrix(1.00, 0.00, -0.00, -1.00, 689.3, 341.5)">,</text><text xml:space="preserve" font-family="HoeflerText-Regular,Hoefler Text" font-size="36.0" fill="#555239" transform="matrix(1.00, 0.00, -0.00, -1.00, 698.1, 341.5)"> </text><text xml:space="preserve" font-family="HoeflerText-Regular,Hoefler Text" font-size="36.0" fill="#555239" transform="matrix(1.00, 0.00, -0.00, -1.00, 707.1, 341.5)">1</text><text xml:space="preserve" font-family="HoeflerText-Regular,Hoefler Text" font-size="36.0" fill="#555239" transform="matrix(1.00, 0.00, -0.00, -1.00, 720.8, 341.5)">9</text><text xml:space="preserve" font-family="HoeflerText-Regular,Hoefler Text" font-size="36.0" fill="#555239" transform="matrix(1.00, 0.00, -0.00, -1.00, 739.7, 341.5)">2</text><text xml:space="preserve" font-family="HoeflerText-Regular,Hoefler Text" font-size="36.0" fill="#555239" transform="matrix(1.00, 0.00, -0.00, -1.00, 755.8, 341.5)">6</text><text xml:space="preserve" font-family="HoeflerText-Regular,Hoefler Text" font-size="36.0" fill="#555239" transform="matrix(1.00, 0.00, -0.00, -1.00, 774.8, 341.5)">)</text><image xlink:href="../../78EEBC0D-89FA-44B4-8E10-10E4B1AD3624/assets/382AF286F7DDA8EF63F8EA0481663ACA.png" width="108.00" height="41.00" transform="matrix(1.00, 0.00, -0.00, -1.00, 510.0, 326.0)"></image><text xml:space="preserve" font-family="HoeflerText-Regular,Hoefler Text" font-size="36.0" fill="#555239" transform="matrix(1.00, 0.00, -0.00, -1.00, 510.2, 298.5)">L</text><text xml:space="preserve" font-family="HoeflerText-Regular,Hoefler Text" font-size="36.0" fill="#555239" transform="matrix(1.00, 0.00, -0.00, -1.00, 532.4, 298.5)">o</text><text xml:space="preserve" font-family="HoeflerText-Regular,Hoefler Text" font-size="36.0" fill="#555239" transform="matrix(1.00, 0.00, -0.00, -1.00, 551.7, 298.5)">g</text><text xml:space="preserve" font-family="HoeflerText-Regular,Hoefler Text" font-size="36.0" fill="#555239" transform="matrix(1.00, 0.00, -0.00, -1.00, 568.7, 298.5)">u</text><text xml:space="preserve" font-family="HoeflerText-Regular,Hoefler Text" font-size="36.0" fill="#555239" transform="matrix(1.00, 0.00, -0.00, -1.00, 587.5, 298.5)">l</text><text xml:space="preserve" font-family="HoeflerText-Regular,Hoefler Text" font-size="36.0" fill="#555239" transform="matrix(1.00, 0.00, -0.00, -1.00, 596.8, 298.5)">o</text><image xlink:href="../../78EEBC0D-89FA-44B4-8E10-10E4B1AD3624/assets/11E003DDC99861B4F122ACE70DBB12D4.png" width="44.00" height="31.00" transform="matrix(1.00, 0.00, -0.00, -1.00, 510.0, 281.0)"></image><text xml:space="preserve" font-family="HoeflerText-Regular,Hoefler Text" font-size="36.0" fill="#555239" transform="matrix(1.00, 0.00, -0.00, -1.00, 510.2, 254.5)">L</text><text xml:space="preserve" font-family="HoeflerText-Regular,Hoefler Text" font-size="36.0" fill="#555239" transform="matrix(1.00, 0.00, -0.00, -1.00, 532.4, 254.5)">o</text><image xlink:href="../../78EEBC0D-89FA-44B4-8E10-10E4B1AD3624/assets/DDFEED6BA0C91ACABAC04BB9B871CD00.png" width="17.00" height="37.00" transform="matrix(1.00, 0.00, -0.00, -1.00, 548.0, 280.0)"></image><text xml:space="preserve" font-family="Times-Roman,Times" font-size="36.0" fill="#555239" transform="matrix(1.00, 0.00, -0.00, -1.00, 551.7, 254.5)">ĵ</text><image xlink:href="../../78EEBC0D-89FA-44B4-8E10-10E4B1AD3624/assets/D68D0D4EF72E844D0425643994414127.png" width="180.00" height="43.00" transform="matrix(1.00, 0.00, -0.00, -1.00, 561.0, 284.0)"></image><text xml:space="preserve" font-family="HoeflerText-Regular,Hoefler Text" font-size="36.0" fill="#555239" transform="matrix(1.00, 0.00, -0.00, -1.00, 561.7, 254.5)">b</text><text xml:space="preserve" font-family="HoeflerText-Regular,Hoefler Text" font-size="36.0" fill="#555239" transform="matrix(1.00, 0.00, -0.00, -1.00, 581.4, 254.5)">a</text><text xml:space="preserve" font-family="HoeflerText-Regular,Hoefler Text" font-size="36.0" fill="#555239" transform="matrix(1.00, 0.00, -0.00, -1.00, 597.5, 254.5)">n</text><text xml:space="preserve" font-family="HoeflerText-Regular,Hoefler Text" font-size="36.0" fill="#555239" transform="matrix(1.00, 0.00, -0.00, -1.00, 617.2, 254.5)">o</text><text xml:space="preserve" font-family="HoeflerText-Regular,Hoefler Text" font-size="36.0" fill="#555239" transform="matrix(1.00, 0.00, -0.00, -1.00, 636.5, 254.5)"> </text><text xml:space="preserve" font-family="HoeflerText-Regular,Hoefler Text" font-size="36.0" fill="#555239" transform="matrix(1.00, 0.00, -0.00, -1.00, 645.5, 254.5)">[</text><text xml:space="preserve" font-family="HoeflerText-Regular,Hoefler Text" font-size="36.0" fill="#555239" transform="matrix(1.00, 0.00, -0.00, -1.00, 657.6, 254.5)">j</text><text xml:space="preserve" font-family="HoeflerText-Regular,Hoefler Text" font-size="36.0" fill="#555239" transform="matrix(1.00, 0.00, -0.00, -1.00, 666.4, 254.5)">b</text><text xml:space="preserve" font-family="HoeflerText-Regular,Hoefler Text" font-size="36.0" fill="#555239" transform="matrix(1.00, 0.00, -0.00, -1.00, 686.1, 254.5)">o</text><text xml:space="preserve" font-family="HoeflerText-Regular,Hoefler Text" font-size="36.0" fill="#555239" transform="matrix(1.00, 0.00, -0.00, -1.00, 705.4, 254.5)">]</text><text xml:space="preserve" font-family="HoeflerText-Regular,Hoefler Text" font-size="36.0" fill="#555239" transform="matrix(1.00, 0.00, -0.00, -1.00, 717.5, 254.5)"> </text><text xml:space="preserve" font-family="HoeflerText-Regular,Hoefler Text" font-size="36.0" fill="#555239" transform="matrix(1.00, 0.00, -0.00, -1.00, 726.5, 254.5)">-</text><image xlink:href="../../78EEBC0D-89FA-44B4-8E10-10E4B1AD3624/assets/EAF80A5B1B718A469970B2A6EC2569F0.png" width="87.00" height="41.00" transform="matrix(1.00, 0.00, -0.00, -1.00, 510.0, 239.0)"></image><text xml:space="preserve" font-family="HoeflerText-Regular,Hoefler Text" font-size="36.0" fill="#555239" transform="matrix(1.00, 0.00, -0.00, -1.00, 510.2, 211.5)">L</text><text xml:space="preserve" font-family="HoeflerText-Regular,Hoefler Text" font-size="36.0" fill="#555239" transform="matrix(1.00, 0.00, -0.00, -1.00, 532.4, 211.5)">o</text><text xml:space="preserve" font-family="HoeflerText-Regular,Hoefler Text" font-size="36.0" fill="#555239" transform="matrix(1.00, 0.00, -0.00, -1.00, 551.7, 211.5)">j</text><text xml:space="preserve" font-family="HoeflerText-Regular,Hoefler Text" font-size="36.0" fill="#555239" transform="matrix(1.00, 0.00, -0.00, -1.00, 560.5, 211.5)">s</text><text xml:space="preserve" font-family="HoeflerText-Regular,Hoefler Text" font-size="36.0" fill="#555239" transform="matrix(1.00, 0.00, -0.00, -1.00, 574.3, 211.5)">k</text><image xlink:href="../../78EEBC0D-89FA-44B4-8E10-10E4B1AD3624/assets/C504A1171B02F2CE26A1229749D41555.png" width="91.00" height="31.00" transform="matrix(1.00, 0.00, -0.00, -1.00, 510.0, 195.0)"></image><text xml:space="preserve" font-family="HoeflerText-Regular,Hoefler Text" font-size="36.0" fill="#555239" transform="matrix(1.00, 0.00, -0.00, -1.00, 510.2, 168.5)">L</text><text xml:space="preserve" font-family="HoeflerText-Regular,Hoefler Text" font-size="36.0" fill="#555239" transform="matrix(1.00, 0.00, -0.00, -1.00, 532.4, 168.5)">o</text><text xml:space="preserve" font-family="HoeflerText-Regular,Hoefler Text" font-size="36.0" fill="#555239" transform="matrix(1.00, 0.00, -0.00, -1.00, 551.7, 168.5)">m</text><text xml:space="preserve" font-family="HoeflerText-Regular,Hoefler Text" font-size="36.0" fill="#555239" transform="matrix(1.00, 0.00, -0.00, -1.00, 581.5, 168.5)">a</text><image xlink:href="../../78EEBC0D-89FA-44B4-8E10-10E4B1AD3624/assets/6D0B0E4F2B39433A3A1A4481D553477D.png" width="108.00" height="31.00" transform="matrix(1.00, 0.00, -0.00, -1.00, 510.0, 152.0)"></image><text xml:space="preserve" font-family="HoeflerText-Regular,Hoefler Text" font-size="36.0" fill="#555239" transform="matrix(1.00, 0.00, -0.00, -1.00, 510.2, 125.5)">L</text><text xml:space="preserve" font-family="HoeflerText-Regular,Hoefler Text" font-size="36.0" fill="#555239" transform="matrix(1.00, 0.00, -0.00, -1.00, 532.4, 125.5)">o</text><text xml:space="preserve" font-family="HoeflerText-Regular,Hoefler Text" font-size="36.0" fill="#555239" transform="matrix(1.00, 0.00, -0.00, -1.00, 551.4, 125.5)">x</text><text xml:space="preserve" font-family="HoeflerText-Regular,Hoefler Text" font-size="36.0" fill="#555239" transform="matrix(1.00, 0.00, -0.00, -1.00, 568.8, 125.5)">i</text><text xml:space="preserve" font-family="HoeflerText-Regular,Hoefler Text" font-size="36.0" fill="#555239" transform="matrix(1.00, 0.00, -0.00, -1.00, 578.8, 125.5)">a</text><text xml:space="preserve" font-family="HoeflerText-Regular,Hoefler Text" font-size="36.0" fill="#555239" transform="matrix(1.00, 0.00, -0.00, -1.00, 594.9, 125.5)">n</text><image xlink:href="../../78EEBC0D-89FA-44B4-8E10-10E4B1AD3624/assets/137A0CEADE24B35A1D883D8CA9D6D393.png" width="700.00" height="442.00" transform="matrix(1.00, 0.00, -0.00, -1.00, 106.0, 538.0)"></image></g></svg>