<?xml version="1.0" encoding="UTF-8" standalone="no"?><svg xmlns="http://www.w3.org/2000/svg" xmlns:xlink="http://www.w3.org/1999/xlink" clip-rule="evenodd" stroke-miterlimit="10" viewBox="0 0 1024 768"><desc>SVG generated by Keynote</desc><defs></defs><g transform="matrix(1.00, 0.00, -0.00, -1.00, 0.0, 768.0)"><path d="M 0.0 768.0 L 1024.0 768.0 L 1024.0 0.0 L 0.0 0.0 Z M 0.0 768.0 " fill="#ECEAD5"></path><image xlink:href="E942AA4C7E80813FC80743C6D63E4753.png" width="433.00" height="96.00" transform="matrix(1.00, 0.00, -0.00, -1.00, 295.0, 723.0)"></image><text xml:space="preserve" font-family="HoeflerText-Regular,Hoefler Text" font-size="96.0" fill="#3B3B3B" transform="matrix(1.00, 0.00, -0.00, -1.00, 293.5, 655.8)">E</text><text xml:space="preserve" font-family="HoeflerText-Regular,Hoefler Text" font-size="96.0" fill="#3B3B3B" transform="matrix(1.00, 0.00, -0.00, -1.00, 356.0, 655.8)">s</text><text xml:space="preserve" font-family="HoeflerText-Regular,Hoefler Text" font-size="96.0" fill="#3B3B3B" transform="matrix(1.00, 0.00, -0.00, -1.00, 392.7, 655.8)">p</text><text xml:space="preserve" font-family="HoeflerText-Regular,Hoefler Text" font-size="96.0" fill="#3B3B3B" transform="matrix(1.00, 0.00, -0.00, -1.00, 445.3, 655.8)">e</text><text xml:space="preserve" font-family="HoeflerText-Regular,Hoefler Text" font-size="96.0" fill="#3B3B3B" transform="matrix(1.00, 0.00, -0.00, -1.00, 490.2, 655.8)">r</text><text xml:space="preserve" font-family="HoeflerText-Regular,Hoefler Text" font-size="96.0" fill="#3B3B3B" transform="matrix(1.00, 0.00, -0.00, -1.00, 525.9, 655.8)">a</text><text xml:space="preserve" font-family="HoeflerText-Regular,Hoefler Text" font-size="96.0" fill="#3B3B3B" transform="matrix(1.00, 0.00, -0.00, -1.00, 568.7, 655.8)">n</text><text xml:space="preserve" font-family="HoeflerText-Regular,Hoefler Text" font-size="96.0" fill="#3B3B3B" transform="matrix(1.00, 0.00, -0.00, -1.00, 621.3, 655.8)">t</text><text xml:space="preserve" font-family="HoeflerText-Regular,Hoefler Text" font-size="96.0" fill="#3B3B3B" transform="matrix(1.00, 0.00, -0.00, -1.00, 655.3, 655.8)">o</text><text xml:space="preserve" font-family="HoeflerText-Regular,Hoefler Text" font-size="96.0" fill="#3B3B3B" transform="matrix(1.00, 0.00, -0.00, -1.00, 706.8, 655.8)">:</text><image xlink:href="281184C2852D9963BCE1E669E2B5F695.png" width="930.00" height="69.00" transform="matrix(1.00, 0.00, -0.00, -1.00, 47.0, 618.0)"></image><text xml:space="preserve" font-family="HoeflerText-Regular,Hoefler Text" font-size="64.0" fill="#3B3B3B" transform="matrix(1.00, 0.00, -0.00, -1.00, 47.8, 569.9)">U</text><text xml:space="preserve" font-family="HoeflerText-Regular,Hoefler Text" font-size="64.0" fill="#3B3B3B" transform="matrix(1.00, 0.00, -0.00, -1.00, 94.1, 569.9)">t</text><text xml:space="preserve" font-family="HoeflerText-Regular,Hoefler Text" font-size="64.0" fill="#3B3B3B" transform="matrix(1.00, 0.00, -0.00, -1.00, 116.8, 569.9)">o</text><text xml:space="preserve" font-family="HoeflerText-Regular,Hoefler Text" font-size="64.0" fill="#3B3B3B" transform="matrix(1.00, 0.00, -0.00, -1.00, 151.1, 569.9)">p</text><text xml:space="preserve" font-family="HoeflerText-Regular,Hoefler Text" font-size="64.0" fill="#3B3B3B" transform="matrix(1.00, 0.00, -0.00, -1.00, 186.1, 569.9)">i</text><text xml:space="preserve" font-family="HoeflerText-Regular,Hoefler Text" font-size="64.0" fill="#3B3B3B" transform="matrix(1.00, 0.00, -0.00, -1.00, 204.1, 569.9)">a</text><text xml:space="preserve" font-family="HoeflerText-Regular,Hoefler Text" font-size="64.0" fill="#3B3B3B" transform="matrix(1.00, 0.00, -0.00, -1.00, 232.6, 569.9)">n</text><text xml:space="preserve" font-family="HoeflerText-Regular,Hoefler Text" font-size="64.0" fill="#3B3B3B" transform="matrix(1.00, 0.00, -0.00, -1.00, 267.7, 569.9)"> </text><text xml:space="preserve" font-family="HoeflerText-Regular,Hoefler Text" font-size="64.0" fill="#3B3B3B" transform="matrix(1.00, 0.00, -0.00, -1.00, 283.7, 569.9)">F</text><text xml:space="preserve" font-family="HoeflerText-Regular,Hoefler Text" font-size="64.0" fill="#3B3B3B" transform="matrix(1.00, 0.00, -0.00, -1.00, 322.1, 569.9)">l</text><text xml:space="preserve" font-family="HoeflerText-Regular,Hoefler Text" font-size="64.0" fill="#3B3B3B" transform="matrix(1.00, 0.00, -0.00, -1.00, 338.7, 569.9)">o</text><text xml:space="preserve" font-family="HoeflerText-Regular,Hoefler Text" font-size="64.0" fill="#3B3B3B" transform="matrix(1.00, 0.00, -0.00, -1.00, 373.0, 569.9)">p</text><text xml:space="preserve" font-family="HoeflerText-Regular,Hoefler Text" font-size="64.0" fill="#3B3B3B" transform="matrix(1.00, 0.00, -0.00, -1.00, 408.0, 569.9)"> </text><text xml:space="preserve" font-family="HoeflerText-Regular,Hoefler Text" font-size="64.0" fill="#3B3B3B" transform="matrix(1.00, 0.00, -0.00, -1.00, 424.0, 569.9)">o</text><text xml:space="preserve" font-family="HoeflerText-Regular,Hoefler Text" font-size="64.0" fill="#3B3B3B" transform="matrix(1.00, 0.00, -0.00, -1.00, 458.3, 569.9)">r</text><text xml:space="preserve" font-family="HoeflerText-Regular,Hoefler Text" font-size="64.0" fill="#3B3B3B" transform="matrix(1.00, 0.00, -0.00, -1.00, 482.1, 569.9)"> </text><text xml:space="preserve" font-family="HoeflerText-Regular,Hoefler Text" font-size="64.0" fill="#3B3B3B" transform="matrix(1.00, 0.00, -0.00, -1.00, 498.1, 569.9)">P</text><text xml:space="preserve" font-family="HoeflerText-Regular,Hoefler Text" font-size="64.0" fill="#3B3B3B" transform="matrix(1.00, 0.00, -0.00, -1.00, 536.2, 569.9)">r</text><text xml:space="preserve" font-family="HoeflerText-Regular,Hoefler Text" font-size="64.0" fill="#3B3B3B" transform="matrix(1.00, 0.00, -0.00, -1.00, 560.0, 569.9)">a</text><text xml:space="preserve" font-family="HoeflerText-Regular,Hoefler Text" font-size="64.0" fill="#3B3B3B" transform="matrix(1.00, 0.00, -0.00, -1.00, 588.5, 569.9)">c</text><text xml:space="preserve" font-family="HoeflerText-Regular,Hoefler Text" font-size="64.0" fill="#3B3B3B" transform="matrix(1.00, 0.00, -0.00, -1.00, 618.1, 569.9)">t</text><text xml:space="preserve" font-family="HoeflerText-Regular,Hoefler Text" font-size="64.0" fill="#3B3B3B" transform="matrix(1.00, 0.00, -0.00, -1.00, 641.7, 569.9)">i</text><text xml:space="preserve" font-family="HoeflerText-Regular,Hoefler Text" font-size="64.0" fill="#3B3B3B" transform="matrix(1.00, 0.00, -0.00, -1.00, 659.6, 569.9)">c</text><text xml:space="preserve" font-family="HoeflerText-Regular,Hoefler Text" font-size="64.0" fill="#3B3B3B" transform="matrix(1.00, 0.00, -0.00, -1.00, 689.2, 569.9)">a</text><text xml:space="preserve" font-family="HoeflerText-Regular,Hoefler Text" font-size="64.0" fill="#3B3B3B" transform="matrix(1.00, 0.00, -0.00, -1.00, 717.7, 569.9)">l</text><text xml:space="preserve" font-family="HoeflerText-Regular,Hoefler Text" font-size="64.0" fill="#3B3B3B" transform="matrix(1.00, 0.00, -0.00, -1.00, 734.3, 569.9)"> </text><text xml:space="preserve" font-family="HoeflerText-Regular,Hoefler Text" font-size="64.0" fill="#3B3B3B" transform="matrix(1.00, 0.00, -0.00, -1.00, 750.3, 569.9)">S</text><text xml:space="preserve" font-family="HoeflerText-Regular,Hoefler Text" font-size="64.0" fill="#3B3B3B" transform="matrix(1.00, 0.00, -0.00, -1.00, 782.8, 569.9)">u</text><text xml:space="preserve" font-family="HoeflerText-Regular,Hoefler Text" font-size="64.0" fill="#3B3B3B" transform="matrix(1.00, 0.00, -0.00, -1.00, 816.2, 569.9)">c</text><text xml:space="preserve" font-family="HoeflerText-Regular,Hoefler Text" font-size="64.0" fill="#3B3B3B" transform="matrix(1.00, 0.00, -0.00, -1.00, 845.8, 569.9)">c</text><text xml:space="preserve" font-family="HoeflerText-Regular,Hoefler Text" font-size="64.0" fill="#3B3B3B" transform="matrix(1.00, 0.00, -0.00, -1.00, 874.7, 569.9)">e</text><text xml:space="preserve" font-family="HoeflerText-Regular,Hoefler Text" font-size="64.0" fill="#3B3B3B" transform="matrix(1.00, 0.00, -0.00, -1.00, 904.7, 569.9)">s</text><text xml:space="preserve" font-family="HoeflerText-Regular,Hoefler Text" font-size="64.0" fill="#3B3B3B" transform="matrix(1.00, 0.00, -0.00, -1.00, 929.1, 569.9)">s</text><text xml:space="preserve" font-family="HoeflerText-Regular,Hoefler Text" font-size="64.0" fill="#3B3B3B" transform="matrix(1.00, 0.00, -0.00, -1.00, 953.6, 569.9)">?</text><image xlink:href="C05BAFBB65448E992D9E235E57A8C8AC.png" width="235.00" height="42.00" transform="matrix(1.00, 0.00, -0.00, -1.00, 393.0, 484.0)"></image><text xml:space="preserve" font-family="HoeflerText-Regular,Hoefler Text" font-size="38.0" fill="#303030" transform="matrix(1.00, 0.00, -0.00, -1.00, 399.2, 454.6)">J</text><text xml:space="preserve" font-family="HoeflerText-Regular,Hoefler Text" font-size="38.0" fill="#303030" transform="matrix(1.00, 0.00, -0.00, -1.00, 411.7, 454.6)">o</text><text xml:space="preserve" font-family="HoeflerText-Regular,Hoefler Text" font-size="38.0" fill="#303030" transform="matrix(1.00, 0.00, -0.00, -1.00, 432.1, 454.6)">n</text><text xml:space="preserve" font-family="HoeflerText-Regular,Hoefler Text" font-size="38.0" fill="#303030" transform="matrix(1.00, 0.00, -0.00, -1.00, 452.9, 454.6)">a</text><text xml:space="preserve" font-family="HoeflerText-Regular,Hoefler Text" font-size="38.0" fill="#303030" transform="matrix(1.00, 0.00, -0.00, -1.00, 469.9, 454.6)">t</text><text xml:space="preserve" font-family="HoeflerText-Regular,Hoefler Text" font-size="38.0" fill="#303030" transform="matrix(1.00, 0.00, -0.00, -1.00, 483.9, 454.6)">h</text><text xml:space="preserve" font-family="HoeflerText-Regular,Hoefler Text" font-size="38.0" fill="#303030" transform="matrix(1.00, 0.00, -0.00, -1.00, 504.9, 454.6)">a</text><text xml:space="preserve" font-family="HoeflerText-Regular,Hoefler Text" font-size="38.0" fill="#303030" transform="matrix(1.00, 0.00, -0.00, -1.00, 521.9, 454.6)">n</text><text xml:space="preserve" font-family="HoeflerText-Regular,Hoefler Text" font-size="38.0" fill="#303030" transform="matrix(1.00, 0.00, -0.00, -1.00, 542.7, 454.6)"> </text><text xml:space="preserve" font-family="HoeflerText-Regular,Hoefler Text" font-size="38.0" fill="#303030" transform="matrix(1.00, 0.00, -0.00, -1.00, 552.2, 454.6)">P</text><text xml:space="preserve" font-family="HoeflerText-Regular,Hoefler Text" font-size="38.0" fill="#303030" transform="matrix(1.00, 0.00, -0.00, -1.00, 574.2, 454.6)">o</text><text xml:space="preserve" font-family="HoeflerText-Regular,Hoefler Text" font-size="38.0" fill="#303030" transform="matrix(1.00, 0.00, -0.00, -1.00, 594.6, 454.6)">o</text><text xml:space="preserve" font-family="HoeflerText-Regular,Hoefler Text" font-size="38.0" fill="#303030" transform="matrix(1.00, 0.00, -0.00, -1.00, 614.9, 454.6)">l</text><text xml:space="preserve" font-family="LucidaGrande,Lucida Grande" font-size="38.0" fill="#303030" transform="matrix(1.00, 0.00, -0.00, -1.00, 624.8, 454.6)"> </text><image xlink:href="51B67B7130662DA8F9E711C1BD4A0E4B.png" width="376.00" height="37.00" transform="matrix(1.00, 0.00, -0.00, -1.00, 325.0, 440.0)"></image><text xml:space="preserve" font-family="HoeflerText-Regular,Hoefler Text" font-size="32.0" fill="#001D57" transform="matrix(1.00, 0.00, -0.00, -1.00, 326.8, 414.9)">T</text><text xml:space="preserve" font-family="HoeflerText-Regular,Hoefler Text" font-size="32.0" fill="#001D57" transform="matrix(1.00, 0.00, -0.00, -1.00, 349.5, 414.9)">h</text><text xml:space="preserve" font-family="HoeflerText-Regular,Hoefler Text" font-size="32.0" fill="#001D57" transform="matrix(1.00, 0.00, -0.00, -1.00, 367.3, 414.9)">e</text><text xml:space="preserve" font-family="HoeflerText-Regular,Hoefler Text" font-size="32.0" fill="#001D57" transform="matrix(1.00, 0.00, -0.00, -1.00, 382.2, 414.9)"> </text><text xml:space="preserve" font-family="HoeflerText-Regular,Hoefler Text" font-size="32.0" fill="#001D57" transform="matrix(1.00, 0.00, -0.00, -1.00, 390.2, 414.9)">L</text><text xml:space="preserve" font-family="HoeflerText-Regular,Hoefler Text" font-size="32.0" fill="#001D57" transform="matrix(1.00, 0.00, -0.00, -1.00, 410.0, 414.9)">o</text><text xml:space="preserve" font-family="HoeflerText-Regular,Hoefler Text" font-size="32.0" fill="#001D57" transform="matrix(1.00, 0.00, -0.00, -1.00, 427.2, 414.9)">n</text><text xml:space="preserve" font-family="HoeflerText-Regular,Hoefler Text" font-size="32.0" fill="#001D57" transform="matrix(1.00, 0.00, -0.00, -1.00, 444.7, 414.9)">g</text><text xml:space="preserve" font-family="HoeflerText-Regular,Hoefler Text" font-size="32.0" fill="#001D57" transform="matrix(1.00, 0.00, -0.00, -1.00, 459.8, 414.9)"> </text><text xml:space="preserve" font-family="HoeflerText-Regular,Hoefler Text" font-size="32.0" fill="#001D57" transform="matrix(1.00, 0.00, -0.00, -1.00, 467.8, 414.9)">N</text><text xml:space="preserve" font-family="HoeflerText-Regular,Hoefler Text" font-size="32.0" fill="#001D57" transform="matrix(1.00, 0.00, -0.00, -1.00, 493.7, 414.9)">o</text><text xml:space="preserve" font-family="HoeflerText-Regular,Hoefler Text" font-size="32.0" fill="#001D57" transform="matrix(1.00, 0.00, -0.00, -1.00, 510.8, 414.9)">w</text><text xml:space="preserve" font-family="HoeflerText-Regular,Hoefler Text" font-size="32.0" fill="#001D57" transform="matrix(1.00, 0.00, -0.00, -1.00, 533.2, 414.9)"> </text><text xml:space="preserve" font-family="HoeflerText-Regular,Hoefler Text" font-size="32.0" fill="#001D57" transform="matrix(1.00, 0.00, -0.00, -1.00, 541.2, 414.9)">F</text><text xml:space="preserve" font-family="HoeflerText-Regular,Hoefler Text" font-size="32.0" fill="#001D57" transform="matrix(1.00, 0.00, -0.00, -1.00, 558.7, 414.9)">o</text><text xml:space="preserve" font-family="HoeflerText-Regular,Hoefler Text" font-size="32.0" fill="#001D57" transform="matrix(1.00, 0.00, -0.00, -1.00, 575.9, 414.9)">u</text><text xml:space="preserve" font-family="HoeflerText-Regular,Hoefler Text" font-size="32.0" fill="#001D57" transform="matrix(1.00, 0.00, -0.00, -1.00, 592.6, 414.9)">n</text><text xml:space="preserve" font-family="HoeflerText-Regular,Hoefler Text" font-size="32.0" fill="#001D57" transform="matrix(1.00, 0.00, -0.00, -1.00, 610.1, 414.9)">d</text><text xml:space="preserve" font-family="HoeflerText-Regular,Hoefler Text" font-size="32.0" fill="#001D57" transform="matrix(1.00, 0.00, -0.00, -1.00, 627.5, 414.9)">a</text><text xml:space="preserve" font-family="HoeflerText-Regular,Hoefler Text" font-size="32.0" fill="#001D57" transform="matrix(1.00, 0.00, -0.00, -1.00, 641.8, 414.9)">t</text><text xml:space="preserve" font-family="HoeflerText-Regular,Hoefler Text" font-size="32.0" fill="#001D57" transform="matrix(1.00, 0.00, -0.00, -1.00, 653.6, 414.9)">i</text><text xml:space="preserve" font-family="HoeflerText-Regular,Hoefler Text" font-size="32.0" fill="#001D57" transform="matrix(1.00, 0.00, -0.00, -1.00, 662.5, 414.9)">o</text><text xml:space="preserve" font-family="HoeflerText-Regular,Hoefler Text" font-size="32.0" fill="#001D57" transform="matrix(1.00, 0.00, -0.00, -1.00, 679.7, 414.9)">n</text><text xml:space="preserve" font-family="HoeflerText-Regular,Hoefler Text" font-size="34.0" fill="#303030" transform="matrix(1.00, 0.00, -0.00, -1.00, 355.2, 135.0)">B</text><text xml:space="preserve" font-family="HoeflerText-Regular,Hoefler Text" font-size="34.0" fill="#303030" transform="matrix(1.00, 0.00, -0.00, -1.00, 377.2, 135.0)">e</text><text xml:space="preserve" font-family="HoeflerText-Regular,Hoefler Text" font-size="34.0" fill="#303030" transform="matrix(1.00, 0.00, -0.00, -1.00, 393.2, 135.0)">r</text><text xml:space="preserve" font-family="HoeflerText-Regular,Hoefler Text" font-size="34.0" fill="#303030" transform="matrix(1.00, 0.00, -0.00, -1.00, 405.8, 135.0)">k</text><text xml:space="preserve" font-family="HoeflerText-Regular,Hoefler Text" font-size="34.0" fill="#303030" transform="matrix(1.00, 0.00, -0.00, -1.00, 423.2, 135.0)">e</text><text xml:space="preserve" font-family="HoeflerText-Regular,Hoefler Text" font-size="34.0" fill="#303030" transform="matrix(1.00, 0.00, -0.00, -1.00, 439.1, 135.0)">l</text><text xml:space="preserve" font-family="HoeflerText-Regular,Hoefler Text" font-size="34.0" fill="#303030" transform="matrix(1.00, 0.00, -0.00, -1.00, 447.9, 135.0)">e</text><text xml:space="preserve" font-family="HoeflerText-Regular,Hoefler Text" font-size="34.0" fill="#303030" transform="matrix(1.00, 0.00, -0.00, -1.00, 463.8, 135.0)">y</text><text xml:space="preserve" font-family="HoeflerText-Regular,Hoefler Text" font-size="34.0" fill="#303030" transform="matrix(1.00, 0.00, -0.00, -1.00, 479.4, 135.0)"> </text><text xml:space="preserve" font-family="HoeflerText-Regular,Hoefler Text" font-size="34.0" fill="#303030" transform="matrix(1.00, 0.00, -0.00, -1.00, 486.2, 135.0)">T</text><text xml:space="preserve" font-family="HoeflerText-Regular,Hoefler Text" font-size="34.0" fill="#303030" transform="matrix(1.00, 0.00, -0.00, -1.00, 506.6, 135.0)">o</text><text xml:space="preserve" font-family="HoeflerText-Regular,Hoefler Text" font-size="34.0" fill="#303030" transform="matrix(1.00, 0.00, -0.00, -1.00, 524.8, 135.0)">w</text><text xml:space="preserve" font-family="HoeflerText-Regular,Hoefler Text" font-size="34.0" fill="#303030" transform="matrix(1.00, 0.00, -0.00, -1.00, 548.6, 135.0)">n</text><text xml:space="preserve" font-family="HoeflerText-Regular,Hoefler Text" font-size="34.0" fill="#303030" transform="matrix(1.00, 0.00, -0.00, -1.00, 567.2, 135.0)"> </text><text xml:space="preserve" font-family="HoeflerText-Regular,Hoefler Text" font-size="34.0" fill="#303030" transform="matrix(1.00, 0.00, -0.00, -1.00, 575.7, 135.0)">H</text><text xml:space="preserve" font-family="HoeflerText-Regular,Hoefler Text" font-size="34.0" fill="#303030" transform="matrix(1.00, 0.00, -0.00, -1.00, 603.9, 135.0)">o</text><text xml:space="preserve" font-family="HoeflerText-Regular,Hoefler Text" font-size="34.0" fill="#303030" transform="matrix(1.00, 0.00, -0.00, -1.00, 622.1, 135.0)">u</text><text xml:space="preserve" font-family="HoeflerText-Regular,Hoefler Text" font-size="34.0" fill="#303030" transform="matrix(1.00, 0.00, -0.00, -1.00, 639.9, 135.0)">s</text><text xml:space="preserve" font-family="HoeflerText-Regular,Hoefler Text" font-size="34.0" fill="#303030" transform="matrix(1.00, 0.00, -0.00, -1.00, 652.9, 135.0)">e</text><text xml:space="preserve" font-family="HoeflerText-Regular,Hoefler Text" font-size="30.0" fill="#303030" transform="matrix(1.00, 0.00, -0.00, -1.00, 391.7, 89.9)">4</text><text xml:space="preserve" font-family="HoeflerText-Regular,Hoefler Text" font-size="30.0" fill="#303030" transform="matrix(1.00, 0.00, -0.00, -1.00, 407.8, 89.9)"> </text><text xml:space="preserve" font-family="HoeflerText-Regular,Hoefler Text" font-size="30.0" fill="#303030" transform="matrix(1.00, 0.00, -0.00, -1.00, 415.3, 89.9)">S</text><text xml:space="preserve" font-family="HoeflerText-Regular,Hoefler Text" font-size="30.0" fill="#303030" transform="matrix(1.00, 0.00, -0.00, -1.00, 430.5, 89.9)">e</text><text xml:space="preserve" font-family="HoeflerText-Regular,Hoefler Text" font-size="30.0" fill="#303030" transform="matrix(1.00, 0.00, -0.00, -1.00, 444.5, 89.9)">p</text><text xml:space="preserve" font-family="HoeflerText-Regular,Hoefler Text" font-size="30.0" fill="#303030" transform="matrix(1.00, 0.00, -0.00, -1.00, 461.0, 89.9)">t</text><text xml:space="preserve" font-family="HoeflerText-Regular,Hoefler Text" font-size="30.0" fill="#303030" transform="matrix(1.00, 0.00, -0.00, -1.00, 471.6, 89.9)">e</text><text xml:space="preserve" font-family="HoeflerText-Regular,Hoefler Text" font-size="30.0" fill="#303030" transform="matrix(1.00, 0.00, -0.00, -1.00, 485.6, 89.9)">m</text><text xml:space="preserve" font-family="HoeflerText-Regular,Hoefler Text" font-size="30.0" fill="#303030" transform="matrix(1.00, 0.00, -0.00, -1.00, 510.5, 89.9)">b</text><text xml:space="preserve" font-family="HoeflerText-Regular,Hoefler Text" font-size="30.0" fill="#303030" transform="matrix(1.00, 0.00, -0.00, -1.00, 526.9, 89.9)">e</text><text xml:space="preserve" font-family="HoeflerText-Regular,Hoefler Text" font-size="30.0" fill="#303030" transform="matrix(1.00, 0.00, -0.00, -1.00, 540.9, 89.9)">r</text><text xml:space="preserve" font-family="HoeflerText-Regular,Hoefler Text" font-size="30.0" fill="#303030" transform="matrix(1.00, 0.00, -0.00, -1.00, 552.1, 89.9)"> </text><text xml:space="preserve" font-family="HoeflerText-Regular,Hoefler Text" font-size="30.0" fill="#303030" transform="matrix(1.00, 0.00, -0.00, -1.00, 559.6, 89.9)">0</text><text xml:space="preserve" font-family="HoeflerText-Regular,Hoefler Text" font-size="30.0" fill="#303030" transform="matrix(1.00, 0.00, -0.00, -1.00, 577.5, 89.9)">2</text><text xml:space="preserve" font-family="HoeflerText-Regular,Hoefler Text" font-size="30.0" fill="#303030" transform="matrix(1.00, 0.00, -0.00, -1.00, 590.9, 89.9)">0</text><text xml:space="preserve" font-family="HoeflerText-Regular,Hoefler Text" font-size="30.0" fill="#303030" transform="matrix(1.00, 0.00, -0.00, -1.00, 608.8, 89.9)">1</text><text xml:space="preserve" font-family="HoeflerText-Regular,Hoefler Text" font-size="30.0" fill="#303030" transform="matrix(1.00, 0.00, -0.00, -1.00, 620.1, 89.9)">3</text><g><clipPath id="clip0x6000008bd580"><path d="M 318.4 213.6 L 707.4 213.6 L 707.4 275.6 L 318.4 275.6 Z M 318.4 213.6 "></path></clipPath><g clip-path="url(#clip0x6000008bd580)"><image xlink:href="92A3727DB2165CFBE99E89183C7F63B3.png" width="387.00" height="60.00" transform="matrix(1.00, 0.00, -0.00, -1.00, 319.4, 274.6)" opacity="0.75"></image></g></g><g><clipPath id="clip0x6000008bd5e0"><path d="M 315.0 218.0 L 708.0 218.0 L 708.0 279.0 L 315.0 279.0 Z M 315.0 218.0 "></path></clipPath><g clip-path="url(#clip0x6000008bd5e0)"><text xml:space="preserve" font-family="HoeflerText-Regular,Hoefler Text" font-size="36.0" fill="#0042A9" transform="matrix(1.00, 0.00, -0.00, -1.00, 384.9, 237.0)">h</text><text xml:space="preserve" font-family="HoeflerText-Regular,Hoefler Text" font-size="36.0" fill="#0042A9" transform="matrix(1.00, 0.00, -0.00, -1.00, 404.9, 237.0)">t</text><text xml:space="preserve" font-family="HoeflerText-Regular,Hoefler Text" font-size="36.0" fill="#0042A9" transform="matrix(1.00, 0.00, -0.00, -1.00, 418.2, 237.0)">t</text><text xml:space="preserve" font-family="HoeflerText-Regular,Hoefler Text" font-size="36.0" fill="#0042A9" transform="matrix(1.00, 0.00, -0.00, -1.00, 431.5, 237.0)">p</text><text xml:space="preserve" font-family="HoeflerText-Regular,Hoefler Text" font-size="36.0" fill="#0042A9" transform="matrix(1.00, 0.00, -0.00, -1.00, 451.2, 237.0)">:</text><text xml:space="preserve" font-family="HoeflerText-Regular,Hoefler Text" font-size="36.0" fill="#0042A9" transform="matrix(1.00, 0.00, -0.00, -1.00, 460.1, 237.0)">/</text><text xml:space="preserve" font-family="HoeflerText-Regular,Hoefler Text" font-size="36.0" fill="#0042A9" transform="matrix(1.00, 0.00, -0.00, -1.00, 470.3, 237.0)">/</text><text xml:space="preserve" font-family="HoeflerText-Regular,Hoefler Text" font-size="36.0" fill="#0042A9" transform="matrix(1.00, 0.00, -0.00, -1.00, 480.5, 237.0)">p</text><text xml:space="preserve" font-family="HoeflerText-Regular,Hoefler Text" font-size="36.0" fill="#0042A9" transform="matrix(1.00, 0.00, -0.00, -1.00, 500.2, 237.0)">a</text><text xml:space="preserve" font-family="HoeflerText-Regular,Hoefler Text" font-size="36.0" fill="#0042A9" transform="matrix(1.00, 0.00, -0.00, -1.00, 516.2, 237.0)">n</text><text xml:space="preserve" font-family="HoeflerText-Regular,Hoefler Text" font-size="36.0" fill="#0042A9" transform="matrix(1.00, 0.00, -0.00, -1.00, 536.0, 237.0)">l</text><text xml:space="preserve" font-family="HoeflerText-Regular,Hoefler Text" font-size="36.0" fill="#0042A9" transform="matrix(1.00, 0.00, -0.00, -1.00, 545.3, 237.0)">e</text><text xml:space="preserve" font-family="HoeflerText-Regular,Hoefler Text" font-size="36.0" fill="#0042A9" transform="matrix(1.00, 0.00, -0.00, -1.00, 562.1, 237.0)">x</text><text xml:space="preserve" font-family="HoeflerText-Regular,Hoefler Text" font-size="36.0" fill="#0042A9" transform="matrix(1.00, 0.00, -0.00, -1.00, 579.5, 237.0)">.</text><text xml:space="preserve" font-family="HoeflerText-Regular,Hoefler Text" font-size="36.0" fill="#0042A9" transform="matrix(1.00, 0.00, -0.00, -1.00, 588.4, 237.0)">o</text><text xml:space="preserve" font-family="HoeflerText-Regular,Hoefler Text" font-size="36.0" fill="#0042A9" transform="matrix(1.00, 0.00, -0.00, -1.00, 607.7, 237.0)">r</text><text xml:space="preserve" font-family="HoeflerText-Regular,Hoefler Text" font-size="36.0" fill="#0042A9" transform="matrix(1.00, 0.00, -0.00, -1.00, 621.1, 237.0)">g</text></g></g><g><clipPath id="clip0x6000008be000"><path d="M 422.2 317.9 L 601.7 317.9 L 601.7 406.1 L 422.2 406.1 Z M 422.2 317.9 "></path></clipPath><g clip-path="url(#clip0x6000008be000)"><text xml:space="preserve" font-family="Candara-Bold,Candara" font-weight="bold" font-size="48.0" fill="#006D8E" transform="matrix(1.00, 0.00, -0.00, -1.00, 437.3, 345.4)">P</text><text xml:space="preserve" font-family="Candara-Bold,Candara" font-weight="bold" font-size="48.0" fill="#006D8E" transform="matrix(1.00, 0.00, -0.00, -1.00, 464.0, 345.4)">a</text><text xml:space="preserve" font-family="Candara-Bold,Candara" font-weight="bold" font-size="48.0" fill="#006D8E" transform="matrix(1.00, 0.00, -0.00, -1.00, 487.6, 345.4)">n</text><text xml:space="preserve" font-family="Candara-Bold,Candara" font-weight="bold" font-size="48.0" fill="#006D8E" transform="matrix(1.00, 0.00, -0.00, -1.00, 514.0, 345.4)">L</text><text xml:space="preserve" font-family="Candara-Bold,Candara" font-weight="bold" font-size="48.0" fill="#006D8E" transform="matrix(1.00, 0.00, -0.00, -1.00, 537.3, 345.4)">e</text><text xml:space="preserve" font-family="Candara-Bold,Candara" font-weight="bold" font-size="48.0" fill="#006D8E" transform="matrix(1.00, 0.00, -0.00, -1.00, 561.9, 345.4)">x</text></g></g><g><clipPath id="clip0x6000008be480"><path d="M 482.0 268.0 L 542.0 268.0 L 542.0 329.0 L 482.0 329.0 Z M 482.0 268.0 "></path></clipPath><g clip-path="url(#clip0x6000008be480)"><image xlink:href="D797F18CB2172094C1F695B3FBFD5119.png" width="60.00" height="61.00" transform="matrix(1.00, 0.00, -0.00, -1.00, 482.0, 329.0)"></image></g></g><text xml:space="preserve" font-family="HoeflerText-Regular,Hoefler Text" font-size="24.0" fill="#555239" transform="matrix(1.00, 0.00, -0.00, -1.00, 506.7, 12.7)"></text><image xlink:href="718B45B62EB95117F60CCCEB02284019.png" width="12.00" height="16.00" transform="matrix(1.00, 0.00, -0.00, -1.00, 506.0, 25.0)"></image><text xml:space="preserve" font-family="HoeflerText-Regular,Hoefler Text" font-size="24.0" fill="#555239" transform="matrix(1.00, 0.00, -0.00, -1.00, 506.7, 12.7)">1</text><path d="M 0.2 0.0 L 213.2 0.0 L 213.2 33.0 L 0.2 33.0 Z M 0.0 0.0 " fill="none" stroke="#C82505" stroke-width="3.00" transform="matrix(1.00, 0.00, 0.00, -1.00, 784.3, 58.5)"></path><image xlink:href="F9339CBE02A0455E84098D61284F165B.png" width="206.00" height="24.00" transform="matrix(1.00, 0.00, -0.00, -1.00, 789.0, 51.0)"></image><g><clipPath id="clip0x6000008be8a0"><path d="M 784.7 23.1 L 1000.1 23.1 L 1000.1 58.1 L 784.7 58.1 Z M 784.7 23.1 "></path></clipPath><g clip-path="url(#clip0x6000008be8a0)"><text xml:space="preserve" font-family="HoeflerText-Regular,Hoefler Text" font-size="18.0" fill="#555239" transform="matrix(1.00, 0.00, -0.00, -1.00, 790.3, 36.0)">U</text><text xml:space="preserve" font-family="HoeflerText-Regular,Hoefler Text" font-size="18.0" fill="#555239" transform="matrix(1.00, 0.00, -0.00, -1.00, 803.3, 36.0)">s</text><text xml:space="preserve" font-family="HoeflerText-Regular,Hoefler Text" font-size="18.0" fill="#555239" transform="matrix(1.00, 0.00, -0.00, -1.00, 810.2, 36.0)">e</text><text xml:space="preserve" font-family="HoeflerText-Regular,Hoefler Text" font-size="18.0" fill="#555239" transform="matrix(1.00, 0.00, -0.00, -1.00, 818.6, 36.0)"> </text><text xml:space="preserve" font-family="HoeflerText-Regular,Hoefler Text" font-size="18.0" fill="#555239" transform="matrix(1.00, 0.00, -0.00, -1.00, 823.1, 36.0)">a</text><text xml:space="preserve" font-family="HoeflerText-Regular,Hoefler Text" font-size="18.0" fill="#555239" transform="matrix(1.00, 0.00, -0.00, -1.00, 831.1, 36.0)">r</text><text xml:space="preserve" font-family="HoeflerText-Regular,Hoefler Text" font-size="18.0" fill="#555239" transform="matrix(1.00, 0.00, -0.00, -1.00, 837.8, 36.0)">r</text><text xml:space="preserve" font-family="HoeflerText-Regular,Hoefler Text" font-size="18.0" fill="#555239" transform="matrix(1.00, 0.00, -0.00, -1.00, 844.5, 36.0)">o</text><text xml:space="preserve" font-family="HoeflerText-Regular,Hoefler Text" font-size="18.0" fill="#555239" transform="matrix(1.00, 0.00, -0.00, -1.00, 854.2, 36.0)">w</text><text xml:space="preserve" font-family="HoeflerText-Regular,Hoefler Text" font-size="18.0" fill="#555239" transform="matrix(1.00, 0.00, -0.00, -1.00, 866.7, 36.0)"> </text><text xml:space="preserve" font-family="HoeflerText-Regular,Hoefler Text" font-size="18.0" fill="#555239" transform="matrix(1.00, 0.00, -0.00, -1.00, 871.2, 36.0)">k</text><text xml:space="preserve" font-family="HoeflerText-Regular,Hoefler Text" font-size="18.0" fill="#555239" transform="matrix(1.00, 0.00, -0.00, -1.00, 880.5, 36.0)">e</text><text xml:space="preserve" font-family="HoeflerText-Regular,Hoefler Text" font-size="18.0" fill="#555239" transform="matrix(1.00, 0.00, -0.00, -1.00, 888.9, 36.0)">y</text><text xml:space="preserve" font-family="HoeflerText-Regular,Hoefler Text" font-size="18.0" fill="#555239" transform="matrix(1.00, 0.00, -0.00, -1.00, 897.1, 36.0)">s</text><text xml:space="preserve" font-family="HoeflerText-Regular,Hoefler Text" font-size="18.0" fill="#555239" transform="matrix(1.00, 0.00, -0.00, -1.00, 904.0, 36.0)"> </text><text xml:space="preserve" font-family="HoeflerText-Regular,Hoefler Text" font-size="18.0" fill="#555239" transform="matrix(1.00, 0.00, -0.00, -1.00, 908.5, 36.0)">t</text><text xml:space="preserve" font-family="HoeflerText-Regular,Hoefler Text" font-size="18.0" fill="#555239" transform="matrix(1.00, 0.00, -0.00, -1.00, 914.9, 36.0)">o</text><text xml:space="preserve" font-family="HoeflerText-Regular,Hoefler Text" font-size="18.0" fill="#555239" transform="matrix(1.00, 0.00, -0.00, -1.00, 924.5, 36.0)"> </text><text xml:space="preserve" font-family="HoeflerText-Regular,Hoefler Text" font-size="18.0" fill="#555239" transform="matrix(1.00, 0.00, -0.00, -1.00, 929.0, 36.0)">n</text><text xml:space="preserve" font-family="HoeflerText-Regular,Hoefler Text" font-size="18.0" fill="#555239" transform="matrix(1.00, 0.00, -0.00, -1.00, 938.9, 36.0)">a</text><text xml:space="preserve" font-family="HoeflerText-Regular,Hoefler Text" font-size="18.0" fill="#555239" transform="matrix(1.00, 0.00, -0.00, -1.00, 947.2, 36.0)">v</text><text xml:space="preserve" font-family="HoeflerText-Regular,Hoefler Text" font-size="18.0" fill="#555239" transform="matrix(1.00, 0.00, -0.00, -1.00, 955.4, 36.0)">i</text><text xml:space="preserve" font-family="HoeflerText-Regular,Hoefler Text" font-size="18.0" fill="#555239" transform="matrix(1.00, 0.00, -0.00, -1.00, 960.4, 36.0)">g</text><text xml:space="preserve" font-family="HoeflerText-Regular,Hoefler Text" font-size="18.0" fill="#555239" transform="matrix(1.00, 0.00, -0.00, -1.00, 968.9, 36.0)">a</text><text xml:space="preserve" font-family="HoeflerText-Regular,Hoefler Text" font-size="18.0" fill="#555239" transform="matrix(1.00, 0.00, -0.00, -1.00, 976.9, 36.0)">t</text><text xml:space="preserve" font-family="HoeflerText-Regular,Hoefler Text" font-size="18.0" fill="#555239" transform="matrix(1.00, 0.00, -0.00, -1.00, 983.3, 36.0)">e</text></g></g></g></svg>