<?xml version="1.0" encoding="UTF-8" standalone="no"?><svg xmlns="http://www.w3.org/2000/svg" xmlns:xlink="http://www.w3.org/1999/xlink" clip-rule="evenodd" stroke-miterlimit="10" viewBox="0 0 1024 768"><desc>SVG generated by Keynote</desc><defs></defs><g transform="matrix(1.00, 0.00, -0.00, -1.00, 0.0, 768.0)"><path d="M 0.0 768.0 L 1024.0 768.0 L 1024.0 0.0 L 0.0 0.0 Z M 0.0 768.0 " fill="#ECEAD5"></path><image xlink:href="../../29DFDB5E-73DA-4DDA-8FBC-2DA22ED010F4/assets/8E75D7116A7AF5660BBEA2E88C6DE961.png" width="714.00" height="69.00" transform="matrix(1.00, 0.00, -0.00, -1.00, 144.0, 738.0)"></image><text xml:space="preserve" font-family="HoeflerText-Regular,Hoefler Text" font-size="64.0" fill="#3B3B3B" transform="matrix(1.00, 0.00, -0.00, -1.00, 143.6, 689.9)">H</text><text xml:space="preserve" font-family="HoeflerText-Regular,Hoefler Text" font-size="64.0" fill="#3B3B3B" transform="matrix(1.00, 0.00, -0.00, -1.00, 197.1, 689.9)">a</text><text xml:space="preserve" font-family="HoeflerText-Regular,Hoefler Text" font-size="64.0" fill="#3B3B3B" transform="matrix(1.00, 0.00, -0.00, -1.00, 226.2, 689.9)">s</text><text xml:space="preserve" font-family="HoeflerText-Regular,Hoefler Text" font-size="64.0" fill="#3B3B3B" transform="matrix(1.00, 0.00, -0.00, -1.00, 250.7, 689.9)"> </text><text xml:space="preserve" font-family="HoeflerText-Regular,Hoefler Text" font-size="64.0" fill="#3B3B3B" transform="matrix(1.00, 0.00, -0.00, -1.00, 266.7, 689.9)">E</text><text xml:space="preserve" font-family="HoeflerText-Regular,Hoefler Text" font-size="64.0" fill="#3B3B3B" transform="matrix(1.00, 0.00, -0.00, -1.00, 308.4, 689.9)">s</text><text xml:space="preserve" font-family="HoeflerText-Regular,Hoefler Text" font-size="64.0" fill="#3B3B3B" transform="matrix(1.00, 0.00, -0.00, -1.00, 332.8, 689.9)">p</text><text xml:space="preserve" font-family="HoeflerText-Regular,Hoefler Text" font-size="64.0" fill="#3B3B3B" transform="matrix(1.00, 0.00, -0.00, -1.00, 367.9, 689.9)">e</text><text xml:space="preserve" font-family="HoeflerText-Regular,Hoefler Text" font-size="64.0" fill="#3B3B3B" transform="matrix(1.00, 0.00, -0.00, -1.00, 397.8, 689.9)">r</text><text xml:space="preserve" font-family="HoeflerText-Regular,Hoefler Text" font-size="64.0" fill="#3B3B3B" transform="matrix(1.00, 0.00, -0.00, -1.00, 421.6, 689.9)">a</text><text xml:space="preserve" font-family="HoeflerText-Regular,Hoefler Text" font-size="64.0" fill="#3B3B3B" transform="matrix(1.00, 0.00, -0.00, -1.00, 450.2, 689.9)">n</text><text xml:space="preserve" font-family="HoeflerText-Regular,Hoefler Text" font-size="64.0" fill="#3B3B3B" transform="matrix(1.00, 0.00, -0.00, -1.00, 485.2, 689.9)">t</text><text xml:space="preserve" font-family="HoeflerText-Regular,Hoefler Text" font-size="64.0" fill="#3B3B3B" transform="matrix(1.00, 0.00, -0.00, -1.00, 507.9, 689.9)">o</text><text xml:space="preserve" font-family="HoeflerText-Regular,Hoefler Text" font-size="64.0" fill="#3B3B3B" transform="matrix(1.00, 0.00, -0.00, -1.00, 542.2, 689.9)"> </text><text xml:space="preserve" font-family="HoeflerText-Regular,Hoefler Text" font-size="64.0" fill="#3B3B3B" transform="matrix(1.00, 0.00, -0.00, -1.00, 558.2, 689.9)">s</text><text xml:space="preserve" font-family="HoeflerText-Regular,Hoefler Text" font-size="64.0" fill="#3B3B3B" transform="matrix(1.00, 0.00, -0.00, -1.00, 582.7, 689.9)">u</text><text xml:space="preserve" font-family="HoeflerText-Regular,Hoefler Text" font-size="64.0" fill="#3B3B3B" transform="matrix(1.00, 0.00, -0.00, -1.00, 616.1, 689.9)">c</text><text xml:space="preserve" font-family="HoeflerText-Regular,Hoefler Text" font-size="64.0" fill="#3B3B3B" transform="matrix(1.00, 0.00, -0.00, -1.00, 645.7, 689.9)">c</text><text xml:space="preserve" font-family="HoeflerText-Regular,Hoefler Text" font-size="64.0" fill="#3B3B3B" transform="matrix(1.00, 0.00, -0.00, -1.00, 674.6, 689.9)">e</text><text xml:space="preserve" font-family="HoeflerText-Regular,Hoefler Text" font-size="64.0" fill="#3B3B3B" transform="matrix(1.00, 0.00, -0.00, -1.00, 704.6, 689.9)">e</text><text xml:space="preserve" font-family="HoeflerText-Regular,Hoefler Text" font-size="64.0" fill="#3B3B3B" transform="matrix(1.00, 0.00, -0.00, -1.00, 734.5, 689.9)">d</text><text xml:space="preserve" font-family="HoeflerText-Regular,Hoefler Text" font-size="64.0" fill="#3B3B3B" transform="matrix(1.00, 0.00, -0.00, -1.00, 769.2, 689.9)">e</text><text xml:space="preserve" font-family="HoeflerText-Regular,Hoefler Text" font-size="64.0" fill="#3B3B3B" transform="matrix(1.00, 0.00, -0.00, -1.00, 799.2, 689.9)">d</text><text xml:space="preserve" font-family="HoeflerText-Regular,Hoefler Text" font-size="64.0" fill="#3B3B3B" transform="matrix(1.00, 0.00, -0.00, -1.00, 833.9, 689.9)">?</text><image xlink:href="../../31056429-9E15-400A-8230-D02FA5BBA935/assets/915D9ECBDE4D1A9936E9FA0B8A0D7BC4.png" width="266.00" height="54.00" transform="matrix(1.00, 0.00, -0.00, -1.00, 51.0, 642.0)"></image><text xml:space="preserve" font-family="HoeflerText-Black,Hoefler Text" font-weight="bold" font-size="48.0" fill="#303030" transform="matrix(1.00, 0.00, -0.00, -1.00, 50.1, 605.3)">E</text><text xml:space="preserve" font-family="HoeflerText-Black,Hoefler Text" font-weight="bold" font-size="48.0" fill="#303030" transform="matrix(1.00, 0.00, -0.00, -1.00, 86.8, 605.3)">g</text><text xml:space="preserve" font-family="HoeflerText-Black,Hoefler Text" font-weight="bold" font-size="48.0" fill="#303030" transform="matrix(1.00, 0.00, -0.00, -1.00, 113.9, 605.3)">a</text><text xml:space="preserve" font-family="HoeflerText-Black,Hoefler Text" font-weight="bold" font-size="48.0" fill="#303030" transform="matrix(1.00, 0.00, -0.00, -1.00, 139.5, 605.3)">l</text><text xml:space="preserve" font-family="HoeflerText-Black,Hoefler Text" font-weight="bold" font-size="48.0" fill="#303030" transform="matrix(1.00, 0.00, -0.00, -1.00, 154.9, 605.3)">i</text><text xml:space="preserve" font-family="HoeflerText-Black,Hoefler Text" font-weight="bold" font-size="48.0" fill="#303030" transform="matrix(1.00, 0.00, -0.00, -1.00, 170.6, 605.3)">t</text><text xml:space="preserve" font-family="HoeflerText-Black,Hoefler Text" font-weight="bold" font-size="48.0" fill="#303030" transform="matrix(1.00, 0.00, -0.00, -1.00, 191.1, 605.3)">a</text><text xml:space="preserve" font-family="HoeflerText-Black,Hoefler Text" font-weight="bold" font-size="48.0" fill="#303030" transform="matrix(1.00, 0.00, -0.00, -1.00, 216.8, 605.3)">r</text><text xml:space="preserve" font-family="HoeflerText-Black,Hoefler Text" font-weight="bold" font-size="48.0" fill="#303030" transform="matrix(1.00, 0.00, -0.00, -1.00, 240.2, 605.3)">i</text><text xml:space="preserve" font-family="HoeflerText-Black,Hoefler Text" font-weight="bold" font-size="48.0" fill="#303030" transform="matrix(1.00, 0.00, -0.00, -1.00, 256.5, 605.3)">a</text><text xml:space="preserve" font-family="HoeflerText-Black,Hoefler Text" font-weight="bold" font-size="48.0" fill="#303030" transform="matrix(1.00, 0.00, -0.00, -1.00, 282.2, 605.3)">n</text><image xlink:href="../../53141BC3-8E10-42B3-9881-044C73D9791A/assets/A82D601466F8115CAB13596183DA04D9.png" width="538.00" height="47.00" transform="matrix(1.00, 0.00, -0.00, -1.00, 325.0, 644.0)"></image><text xml:space="preserve" font-family="HoeflerText-Regular,Hoefler Text" font-size="48.0" fill="#303030" transform="matrix(1.00, 0.00, -0.00, -1.00, 312.2, 605.3)"> </text><text xml:space="preserve" font-family="HoeflerText-Regular,Hoefler Text" font-size="48.0" fill="#303030" transform="matrix(1.00, 0.00, -0.00, -1.00, 324.2, 605.3)">(</text><text xml:space="preserve" font-family="HoeflerText-Regular,Hoefler Text" font-size="48.0" fill="#303030" transform="matrix(1.00, 0.00, -0.00, -1.00, 338.4, 605.3)">s</text><text xml:space="preserve" font-family="HoeflerText-Regular,Hoefler Text" font-size="48.0" fill="#303030" transform="matrix(1.00, 0.00, -0.00, -1.00, 356.7, 605.3)">h</text><text xml:space="preserve" font-family="HoeflerText-Regular,Hoefler Text" font-size="48.0" fill="#303030" transform="matrix(1.00, 0.00, -0.00, -1.00, 383.3, 605.3)">a</text><text xml:space="preserve" font-family="HoeflerText-Regular,Hoefler Text" font-size="48.0" fill="#303030" transform="matrix(1.00, 0.00, -0.00, -1.00, 404.7, 605.3)">r</text><text xml:space="preserve" font-family="HoeflerText-Regular,Hoefler Text" font-size="48.0" fill="#303030" transform="matrix(1.00, 0.00, -0.00, -1.00, 422.6, 605.3)">e</text><text xml:space="preserve" font-family="HoeflerText-Regular,Hoefler Text" font-size="48.0" fill="#303030" transform="matrix(1.00, 0.00, -0.00, -1.00, 445.0, 605.3)">d</text><text xml:space="preserve" font-family="HoeflerText-Regular,Hoefler Text" font-size="48.0" fill="#303030" transform="matrix(1.00, 0.00, -0.00, -1.00, 471.0, 605.3)"> </text><text xml:space="preserve" font-family="HoeflerText-Regular,Hoefler Text" font-size="48.0" fill="#303030" transform="matrix(1.00, 0.00, -0.00, -1.00, 483.0, 605.3)">c</text><text xml:space="preserve" font-family="HoeflerText-Regular,Hoefler Text" font-size="48.0" fill="#303030" transform="matrix(1.00, 0.00, -0.00, -1.00, 504.7, 605.3)">o</text><text xml:space="preserve" font-family="HoeflerText-Regular,Hoefler Text" font-size="48.0" fill="#303030" transform="matrix(1.00, 0.00, -0.00, -1.00, 530.5, 605.3)">s</text><text xml:space="preserve" font-family="HoeflerText-Regular,Hoefler Text" font-size="48.0" fill="#303030" transform="matrix(1.00, 0.00, -0.00, -1.00, 548.8, 605.3)">t</text><text xml:space="preserve" font-family="HoeflerText-Regular,Hoefler Text" font-size="48.0" fill="#303030" transform="matrix(1.00, 0.00, -0.00, -1.00, 566.5, 605.3)">s</text><text xml:space="preserve" font-family="HoeflerText-Regular,Hoefler Text" font-size="48.0" fill="#303030" transform="matrix(1.00, 0.00, -0.00, -1.00, 584.8, 605.3)"> </text><text xml:space="preserve" font-family="HoeflerText-Regular,Hoefler Text" font-size="48.0" fill="#303030" transform="matrix(1.00, 0.00, -0.00, -1.00, 596.8, 605.3)">a</text><text xml:space="preserve" font-family="HoeflerText-Regular,Hoefler Text" font-size="48.0" fill="#303030" transform="matrix(1.00, 0.00, -0.00, -1.00, 618.2, 605.3)">n</text><text xml:space="preserve" font-family="HoeflerText-Regular,Hoefler Text" font-size="48.0" fill="#303030" transform="matrix(1.00, 0.00, -0.00, -1.00, 644.6, 605.3)">d</text><text xml:space="preserve" font-family="HoeflerText-Regular,Hoefler Text" font-size="48.0" fill="#303030" transform="matrix(1.00, 0.00, -0.00, -1.00, 670.6, 605.3)"> </text><text xml:space="preserve" font-family="HoeflerText-Regular,Hoefler Text" font-size="48.0" fill="#303030" transform="matrix(1.00, 0.00, -0.00, -1.00, 682.6, 605.3)">c</text><text xml:space="preserve" font-family="HoeflerText-Regular,Hoefler Text" font-size="48.0" fill="#303030" transform="matrix(1.00, 0.00, -0.00, -1.00, 704.3, 605.3)">o</text><text xml:space="preserve" font-family="HoeflerText-Regular,Hoefler Text" font-size="48.0" fill="#303030" transform="matrix(1.00, 0.00, -0.00, -1.00, 730.0, 605.3)">n</text><text xml:space="preserve" font-family="HoeflerText-Regular,Hoefler Text" font-size="48.0" fill="#303030" transform="matrix(1.00, 0.00, -0.00, -1.00, 756.3, 605.3)">t</text><text xml:space="preserve" font-family="HoeflerText-Regular,Hoefler Text" font-size="48.0" fill="#303030" transform="matrix(1.00, 0.00, -0.00, -1.00, 774.0, 605.3)">r</text><text xml:space="preserve" font-family="HoeflerText-Regular,Hoefler Text" font-size="48.0" fill="#303030" transform="matrix(1.00, 0.00, -0.00, -1.00, 791.9, 605.3)">o</text><text xml:space="preserve" font-family="HoeflerText-Regular,Hoefler Text" font-size="48.0" fill="#303030" transform="matrix(1.00, 0.00, -0.00, -1.00, 817.6, 605.3)">l</text><text xml:space="preserve" font-family="HoeflerText-Regular,Hoefler Text" font-size="48.0" fill="#303030" transform="matrix(1.00, 0.00, -0.00, -1.00, 830.0, 605.3)">)</text><text xml:space="preserve" font-family="HoeflerText-Regular,Hoefler Text" font-size="48.0" fill="#303030" transform="matrix(1.00, 0.00, -0.00, -1.00, 844.2, 605.3)">?</text><text xml:space="preserve" font-family="HoeflerText-Black,Hoefler Text" font-weight="bold" font-size="48.0" fill="#303030" transform="matrix(1.00, 0.00, -0.00, -1.00, 861.1, 605.3)"> </text><image xlink:href="../../52CBEAE6-3856-43A4-A830-B2A41C83D35F/assets/C18E1A2711D701FF7C40B9D573B901A7.png" width="162.00" height="41.00" transform="matrix(1.00, 0.00, -0.00, -1.00, 49.0, 572.0)"></image><text xml:space="preserve" font-family="HoeflerText-Regular,Hoefler Text" font-size="48.0" fill="#303030" transform="matrix(1.00, 0.00, -0.00, -1.00, 50.1, 535.3)">V</text><text xml:space="preserve" font-family="HoeflerText-Regular,Hoefler Text" font-size="48.0" fill="#303030" transform="matrix(1.00, 0.00, -0.00, -1.00, 79.4, 535.3)">e</text><text xml:space="preserve" font-family="HoeflerText-Regular,Hoefler Text" font-size="48.0" fill="#303030" transform="matrix(1.00, 0.00, -0.00, -1.00, 101.9, 535.3)">r</text><text xml:space="preserve" font-family="HoeflerText-Regular,Hoefler Text" font-size="48.0" fill="#303030" transform="matrix(1.00, 0.00, -0.00, -1.00, 119.8, 535.3)">d</text><text xml:space="preserve" font-family="HoeflerText-Regular,Hoefler Text" font-size="48.0" fill="#303030" transform="matrix(1.00, 0.00, -0.00, -1.00, 145.8, 535.3)">i</text><text xml:space="preserve" font-family="HoeflerText-Regular,Hoefler Text" font-size="48.0" fill="#303030" transform="matrix(1.00, 0.00, -0.00, -1.00, 159.2, 535.3)">c</text><text xml:space="preserve" font-family="HoeflerText-Regular,Hoefler Text" font-size="48.0" fill="#303030" transform="matrix(1.00, 0.00, -0.00, -1.00, 181.4, 535.3)">t</text><text xml:space="preserve" font-family="HoeflerText-Regular,Hoefler Text" font-size="48.0" fill="#303030" transform="matrix(1.00, 0.00, -0.00, -1.00, 199.1, 535.3)">:</text><text xml:space="preserve" font-family="HoeflerText-Regular,Hoefler Text" font-size="48.0" fill="#303030" transform="matrix(1.00, 0.00, -0.00, -1.00, 211.0, 535.3)"> </text><image xlink:href="5D58D1E8F076C6CE76C5AF239A8EE754.png" width="129.00" height="40.00" transform="matrix(1.00, 0.00, -0.00, -1.00, 224.0, 571.0)"></image><text xml:space="preserve" font-family="HoeflerText-Black,Hoefler Text" font-weight="bold" font-size="48.0" fill="#303030" transform="matrix(1.00, 0.00, -0.00, -1.00, 223.0, 535.3)">s</text><text xml:space="preserve" font-family="HoeflerText-Black,Hoefler Text" font-weight="bold" font-size="48.0" fill="#303030" transform="matrix(1.00, 0.00, -0.00, -1.00, 245.8, 535.3)">e</text><text xml:space="preserve" font-family="HoeflerText-Black,Hoefler Text" font-weight="bold" font-size="48.0" fill="#303030" transform="matrix(1.00, 0.00, -0.00, -1.00, 271.6, 535.3)">m</text><text xml:space="preserve" font-family="HoeflerText-Black,Hoefler Text" font-weight="bold" font-size="48.0" fill="#303030" transform="matrix(1.00, 0.00, -0.00, -1.00, 317.4, 535.3)">i</text><text xml:space="preserve" font-family="HoeflerText-Black,Hoefler Text" font-weight="bold" font-size="48.0" fill="#303030" transform="matrix(1.00, 0.00, -0.00, -1.00, 333.2, 535.3)">-</text><image xlink:href="25D2D31F361FBC17AE1CA25CB2735CBF.png" width="203.00" height="41.00" transform="matrix(1.00, 0.00, -0.00, -1.00, 353.0, 572.0)"></image><text xml:space="preserve" font-family="HoeflerText-Regular,Hoefler Text" font-size="48.0" fill="#303030" transform="matrix(1.00, 0.00, -0.00, -1.00, 353.0, 535.3)">s</text><text xml:space="preserve" font-family="HoeflerText-Regular,Hoefler Text" font-size="48.0" fill="#303030" transform="matrix(1.00, 0.00, -0.00, -1.00, 371.3, 535.3)">u</text><text xml:space="preserve" font-family="HoeflerText-Regular,Hoefler Text" font-size="48.0" fill="#303030" transform="matrix(1.00, 0.00, -0.00, -1.00, 396.4, 535.3)">c</text><text xml:space="preserve" font-family="HoeflerText-Regular,Hoefler Text" font-size="48.0" fill="#303030" transform="matrix(1.00, 0.00, -0.00, -1.00, 418.6, 535.3)">c</text><text xml:space="preserve" font-family="HoeflerText-Regular,Hoefler Text" font-size="48.0" fill="#303030" transform="matrix(1.00, 0.00, -0.00, -1.00, 440.3, 535.3)">e</text><text xml:space="preserve" font-family="HoeflerText-Regular,Hoefler Text" font-size="48.0" fill="#303030" transform="matrix(1.00, 0.00, -0.00, -1.00, 462.7, 535.3)">s</text><text xml:space="preserve" font-family="HoeflerText-Regular,Hoefler Text" font-size="48.0" fill="#303030" transform="matrix(1.00, 0.00, -0.00, -1.00, 481.1, 535.3)">s</text><text xml:space="preserve" font-family="HoeflerText-Regular,Hoefler Text" font-size="48.0" fill="#303030" transform="matrix(1.00, 0.00, -0.00, -1.00, 499.4, 535.3)">f</text><text xml:space="preserve" font-family="HoeflerText-Regular,Hoefler Text" font-size="48.0" fill="#303030" transform="matrix(1.00, 0.00, -0.00, -1.00, 515.5, 535.3)">u</text><text xml:space="preserve" font-family="HoeflerText-Regular,Hoefler Text" font-size="48.0" fill="#303030" transform="matrix(1.00, 0.00, -0.00, -1.00, 540.6, 535.3)">l</text><text xml:space="preserve" font-family="HoeflerText-Regular,Hoefler Text" font-size="24.0" fill="#555239" transform="matrix(1.00, 0.00, -0.00, -1.00, 501.0, 12.7)"></text><image xlink:href="2EA6A1EB2E7C69D3121E039F72FB4F26.png" width="24.00" height="21.00" transform="matrix(1.00, 0.00, -0.00, -1.00, 500.0, 25.0)"></image><text xml:space="preserve" font-family="HoeflerText-Regular,Hoefler Text" font-size="24.0" fill="#555239" transform="matrix(1.00, 0.00, -0.00, -1.00, 501.0, 12.7)">3</text><text xml:space="preserve" font-family="HoeflerText-Regular,Hoefler Text" font-size="24.0" fill="#555239" transform="matrix(1.00, 0.00, -0.00, -1.00, 510.7, 12.7)">2</text></g></svg>