<?xml version="1.0" encoding="UTF-8" standalone="no"?><svg xmlns="http://www.w3.org/2000/svg" xmlns:xlink="http://www.w3.org/1999/xlink" clip-rule="evenodd" stroke-miterlimit="10" viewBox="0 0 1024 768"><desc>SVG generated by Keynote</desc><defs></defs><g transform="matrix(1.00, 0.00, -0.00, -1.00, 0.0, 768.0)"><path d="M 0.0 768.0 L 1024.0 768.0 L 1024.0 0.0 L 0.0 0.0 Z M 0.0 768.0 " fill="#ECEAD5"></path><image xlink:href="../../29DFDB5E-73DA-4DDA-8FBC-2DA22ED010F4/assets/8E75D7116A7AF5660BBEA2E88C6DE961.png" width="714.00" height="69.00" transform="matrix(1.00, 0.00, -0.00, -1.00, 144.0, 738.0)"></image><text xml:space="preserve" font-family="HoeflerText-Regular,Hoefler Text" font-size="64.0" fill="#3B3B3B" transform="matrix(1.00, 0.00, -0.00, -1.00, 143.6, 689.9)">H</text><text xml:space="preserve" font-family="HoeflerText-Regular,Hoefler Text" font-size="64.0" fill="#3B3B3B" transform="matrix(1.00, 0.00, -0.00, -1.00, 197.1, 689.9)">a</text><text xml:space="preserve" font-family="HoeflerText-Regular,Hoefler Text" font-size="64.0" fill="#3B3B3B" transform="matrix(1.00, 0.00, -0.00, -1.00, 226.2, 689.9)">s</text><text xml:space="preserve" font-family="HoeflerText-Regular,Hoefler Text" font-size="64.0" fill="#3B3B3B" transform="matrix(1.00, 0.00, -0.00, -1.00, 250.7, 689.9)"> </text><text xml:space="preserve" font-family="HoeflerText-Regular,Hoefler Text" font-size="64.0" fill="#3B3B3B" transform="matrix(1.00, 0.00, -0.00, -1.00, 266.7, 689.9)">E</text><text xml:space="preserve" font-family="HoeflerText-Regular,Hoefler Text" font-size="64.0" fill="#3B3B3B" transform="matrix(1.00, 0.00, -0.00, -1.00, 308.4, 689.9)">s</text><text xml:space="preserve" font-family="HoeflerText-Regular,Hoefler Text" font-size="64.0" fill="#3B3B3B" transform="matrix(1.00, 0.00, -0.00, -1.00, 332.8, 689.9)">p</text><text xml:space="preserve" font-family="HoeflerText-Regular,Hoefler Text" font-size="64.0" fill="#3B3B3B" transform="matrix(1.00, 0.00, -0.00, -1.00, 367.9, 689.9)">e</text><text xml:space="preserve" font-family="HoeflerText-Regular,Hoefler Text" font-size="64.0" fill="#3B3B3B" transform="matrix(1.00, 0.00, -0.00, -1.00, 397.8, 689.9)">r</text><text xml:space="preserve" font-family="HoeflerText-Regular,Hoefler Text" font-size="64.0" fill="#3B3B3B" transform="matrix(1.00, 0.00, -0.00, -1.00, 421.6, 689.9)">a</text><text xml:space="preserve" font-family="HoeflerText-Regular,Hoefler Text" font-size="64.0" fill="#3B3B3B" transform="matrix(1.00, 0.00, -0.00, -1.00, 450.2, 689.9)">n</text><text xml:space="preserve" font-family="HoeflerText-Regular,Hoefler Text" font-size="64.0" fill="#3B3B3B" transform="matrix(1.00, 0.00, -0.00, -1.00, 485.2, 689.9)">t</text><text xml:space="preserve" font-family="HoeflerText-Regular,Hoefler Text" font-size="64.0" fill="#3B3B3B" transform="matrix(1.00, 0.00, -0.00, -1.00, 507.9, 689.9)">o</text><text xml:space="preserve" font-family="HoeflerText-Regular,Hoefler Text" font-size="64.0" fill="#3B3B3B" transform="matrix(1.00, 0.00, -0.00, -1.00, 542.2, 689.9)"> </text><text xml:space="preserve" font-family="HoeflerText-Regular,Hoefler Text" font-size="64.0" fill="#3B3B3B" transform="matrix(1.00, 0.00, -0.00, -1.00, 558.2, 689.9)">s</text><text xml:space="preserve" font-family="HoeflerText-Regular,Hoefler Text" font-size="64.0" fill="#3B3B3B" transform="matrix(1.00, 0.00, -0.00, -1.00, 582.7, 689.9)">u</text><text xml:space="preserve" font-family="HoeflerText-Regular,Hoefler Text" font-size="64.0" fill="#3B3B3B" transform="matrix(1.00, 0.00, -0.00, -1.00, 616.1, 689.9)">c</text><text xml:space="preserve" font-family="HoeflerText-Regular,Hoefler Text" font-size="64.0" fill="#3B3B3B" transform="matrix(1.00, 0.00, -0.00, -1.00, 645.7, 689.9)">c</text><text xml:space="preserve" font-family="HoeflerText-Regular,Hoefler Text" font-size="64.0" fill="#3B3B3B" transform="matrix(1.00, 0.00, -0.00, -1.00, 674.6, 689.9)">e</text><text xml:space="preserve" font-family="HoeflerText-Regular,Hoefler Text" font-size="64.0" fill="#3B3B3B" transform="matrix(1.00, 0.00, -0.00, -1.00, 704.6, 689.9)">e</text><text xml:space="preserve" font-family="HoeflerText-Regular,Hoefler Text" font-size="64.0" fill="#3B3B3B" transform="matrix(1.00, 0.00, -0.00, -1.00, 734.5, 689.9)">d</text><text xml:space="preserve" font-family="HoeflerText-Regular,Hoefler Text" font-size="64.0" fill="#3B3B3B" transform="matrix(1.00, 0.00, -0.00, -1.00, 769.2, 689.9)">e</text><text xml:space="preserve" font-family="HoeflerText-Regular,Hoefler Text" font-size="64.0" fill="#3B3B3B" transform="matrix(1.00, 0.00, -0.00, -1.00, 799.2, 689.9)">d</text><text xml:space="preserve" font-family="HoeflerText-Regular,Hoefler Text" font-size="64.0" fill="#3B3B3B" transform="matrix(1.00, 0.00, -0.00, -1.00, 833.9, 689.9)">?</text><image xlink:href="../../31056429-9E15-400A-8230-D02FA5BBA935/assets/915D9ECBDE4D1A9936E9FA0B8A0D7BC4.png" width="266.00" height="54.00" transform="matrix(1.00, 0.00, -0.00, -1.00, 51.0, 642.0)"></image><text xml:space="preserve" font-family="HoeflerText-Black,Hoefler Text" font-weight="bold" font-size="48.0" fill="#303030" transform="matrix(1.00, 0.00, -0.00, -1.00, 50.1, 605.3)">E</text><text xml:space="preserve" font-family="HoeflerText-Black,Hoefler Text" font-weight="bold" font-size="48.0" fill="#303030" transform="matrix(1.00, 0.00, -0.00, -1.00, 86.8, 605.3)">g</text><text xml:space="preserve" font-family="HoeflerText-Black,Hoefler Text" font-weight="bold" font-size="48.0" fill="#303030" transform="matrix(1.00, 0.00, -0.00, -1.00, 113.9, 605.3)">a</text><text xml:space="preserve" font-family="HoeflerText-Black,Hoefler Text" font-weight="bold" font-size="48.0" fill="#303030" transform="matrix(1.00, 0.00, -0.00, -1.00, 139.5, 605.3)">l</text><text xml:space="preserve" font-family="HoeflerText-Black,Hoefler Text" font-weight="bold" font-size="48.0" fill="#303030" transform="matrix(1.00, 0.00, -0.00, -1.00, 154.9, 605.3)">i</text><text xml:space="preserve" font-family="HoeflerText-Black,Hoefler Text" font-weight="bold" font-size="48.0" fill="#303030" transform="matrix(1.00, 0.00, -0.00, -1.00, 170.6, 605.3)">t</text><text xml:space="preserve" font-family="HoeflerText-Black,Hoefler Text" font-weight="bold" font-size="48.0" fill="#303030" transform="matrix(1.00, 0.00, -0.00, -1.00, 191.1, 605.3)">a</text><text xml:space="preserve" font-family="HoeflerText-Black,Hoefler Text" font-weight="bold" font-size="48.0" fill="#303030" transform="matrix(1.00, 0.00, -0.00, -1.00, 216.8, 605.3)">r</text><text xml:space="preserve" font-family="HoeflerText-Black,Hoefler Text" font-weight="bold" font-size="48.0" fill="#303030" transform="matrix(1.00, 0.00, -0.00, -1.00, 240.2, 605.3)">i</text><text xml:space="preserve" font-family="HoeflerText-Black,Hoefler Text" font-weight="bold" font-size="48.0" fill="#303030" transform="matrix(1.00, 0.00, -0.00, -1.00, 256.5, 605.3)">a</text><text xml:space="preserve" font-family="HoeflerText-Black,Hoefler Text" font-weight="bold" font-size="48.0" fill="#303030" transform="matrix(1.00, 0.00, -0.00, -1.00, 282.2, 605.3)">n</text><image xlink:href="../../53141BC3-8E10-42B3-9881-044C73D9791A/assets/A82D601466F8115CAB13596183DA04D9.png" width="538.00" height="47.00" transform="matrix(1.00, 0.00, -0.00, -1.00, 325.0, 644.0)"></image><text xml:space="preserve" font-family="HoeflerText-Regular,Hoefler Text" font-size="48.0" fill="#303030" transform="matrix(1.00, 0.00, -0.00, -1.00, 312.2, 605.3)"> </text><text xml:space="preserve" font-family="HoeflerText-Regular,Hoefler Text" font-size="48.0" fill="#303030" transform="matrix(1.00, 0.00, -0.00, -1.00, 324.2, 605.3)">(</text><text xml:space="preserve" font-family="HoeflerText-Regular,Hoefler Text" font-size="48.0" fill="#303030" transform="matrix(1.00, 0.00, -0.00, -1.00, 338.4, 605.3)">s</text><text xml:space="preserve" font-family="HoeflerText-Regular,Hoefler Text" font-size="48.0" fill="#303030" transform="matrix(1.00, 0.00, -0.00, -1.00, 356.7, 605.3)">h</text><text xml:space="preserve" font-family="HoeflerText-Regular,Hoefler Text" font-size="48.0" fill="#303030" transform="matrix(1.00, 0.00, -0.00, -1.00, 383.3, 605.3)">a</text><text xml:space="preserve" font-family="HoeflerText-Regular,Hoefler Text" font-size="48.0" fill="#303030" transform="matrix(1.00, 0.00, -0.00, -1.00, 404.7, 605.3)">r</text><text xml:space="preserve" font-family="HoeflerText-Regular,Hoefler Text" font-size="48.0" fill="#303030" transform="matrix(1.00, 0.00, -0.00, -1.00, 422.6, 605.3)">e</text><text xml:space="preserve" font-family="HoeflerText-Regular,Hoefler Text" font-size="48.0" fill="#303030" transform="matrix(1.00, 0.00, -0.00, -1.00, 445.0, 605.3)">d</text><text xml:space="preserve" font-family="HoeflerText-Regular,Hoefler Text" font-size="48.0" fill="#303030" transform="matrix(1.00, 0.00, -0.00, -1.00, 471.0, 605.3)"> </text><text xml:space="preserve" font-family="HoeflerText-Regular,Hoefler Text" font-size="48.0" fill="#303030" transform="matrix(1.00, 0.00, -0.00, -1.00, 483.0, 605.3)">c</text><text xml:space="preserve" font-family="HoeflerText-Regular,Hoefler Text" font-size="48.0" fill="#303030" transform="matrix(1.00, 0.00, -0.00, -1.00, 504.7, 605.3)">o</text><text xml:space="preserve" font-family="HoeflerText-Regular,Hoefler Text" font-size="48.0" fill="#303030" transform="matrix(1.00, 0.00, -0.00, -1.00, 530.5, 605.3)">s</text><text xml:space="preserve" font-family="HoeflerText-Regular,Hoefler Text" font-size="48.0" fill="#303030" transform="matrix(1.00, 0.00, -0.00, -1.00, 548.8, 605.3)">t</text><text xml:space="preserve" font-family="HoeflerText-Regular,Hoefler Text" font-size="48.0" fill="#303030" transform="matrix(1.00, 0.00, -0.00, -1.00, 566.5, 605.3)">s</text><text xml:space="preserve" font-family="HoeflerText-Regular,Hoefler Text" font-size="48.0" fill="#303030" transform="matrix(1.00, 0.00, -0.00, -1.00, 584.8, 605.3)"> </text><text xml:space="preserve" font-family="HoeflerText-Regular,Hoefler Text" font-size="48.0" fill="#303030" transform="matrix(1.00, 0.00, -0.00, -1.00, 596.8, 605.3)">a</text><text xml:space="preserve" font-family="HoeflerText-Regular,Hoefler Text" font-size="48.0" fill="#303030" transform="matrix(1.00, 0.00, -0.00, -1.00, 618.2, 605.3)">n</text><text xml:space="preserve" font-family="HoeflerText-Regular,Hoefler Text" font-size="48.0" fill="#303030" transform="matrix(1.00, 0.00, -0.00, -1.00, 644.6, 605.3)">d</text><text xml:space="preserve" font-family="HoeflerText-Regular,Hoefler Text" font-size="48.0" fill="#303030" transform="matrix(1.00, 0.00, -0.00, -1.00, 670.6, 605.3)"> </text><text xml:space="preserve" font-family="HoeflerText-Regular,Hoefler Text" font-size="48.0" fill="#303030" transform="matrix(1.00, 0.00, -0.00, -1.00, 682.6, 605.3)">c</text><text xml:space="preserve" font-family="HoeflerText-Regular,Hoefler Text" font-size="48.0" fill="#303030" transform="matrix(1.00, 0.00, -0.00, -1.00, 704.3, 605.3)">o</text><text xml:space="preserve" font-family="HoeflerText-Regular,Hoefler Text" font-size="48.0" fill="#303030" transform="matrix(1.00, 0.00, -0.00, -1.00, 730.0, 605.3)">n</text><text xml:space="preserve" font-family="HoeflerText-Regular,Hoefler Text" font-size="48.0" fill="#303030" transform="matrix(1.00, 0.00, -0.00, -1.00, 756.3, 605.3)">t</text><text xml:space="preserve" font-family="HoeflerText-Regular,Hoefler Text" font-size="48.0" fill="#303030" transform="matrix(1.00, 0.00, -0.00, -1.00, 774.0, 605.3)">r</text><text xml:space="preserve" font-family="HoeflerText-Regular,Hoefler Text" font-size="48.0" fill="#303030" transform="matrix(1.00, 0.00, -0.00, -1.00, 791.9, 605.3)">o</text><text xml:space="preserve" font-family="HoeflerText-Regular,Hoefler Text" font-size="48.0" fill="#303030" transform="matrix(1.00, 0.00, -0.00, -1.00, 817.6, 605.3)">l</text><text xml:space="preserve" font-family="HoeflerText-Regular,Hoefler Text" font-size="48.0" fill="#303030" transform="matrix(1.00, 0.00, -0.00, -1.00, 830.0, 605.3)">)</text><text xml:space="preserve" font-family="HoeflerText-Regular,Hoefler Text" font-size="48.0" fill="#303030" transform="matrix(1.00, 0.00, -0.00, -1.00, 844.2, 605.3)">?</text><text xml:space="preserve" font-family="HoeflerText-Black,Hoefler Text" font-weight="bold" font-size="48.0" fill="#303030" transform="matrix(1.00, 0.00, -0.00, -1.00, 861.1, 605.3)"> </text><image xlink:href="../../31056429-9E15-400A-8230-D02FA5BBA935/assets/8FB77FB1AF6248F8B2DC7BE5CB1DCA9E.png" width="21.00" height="21.00" transform="matrix(1.00, 0.00, -0.00, -1.00, 69.0, 562.0)"></image><text xml:space="preserve" font-family="HoeflerText-Regular,Hoefler Text" font-size="60.0" fill="#303030" transform="matrix(1.00, 0.00, -0.00, -1.00, 68.1, 531.7)">•</text><image xlink:href="../../24486D96-C23C-4914-9CD5-D3347FFF4AD3/assets/CD1CD4A8B00C1B10690B6E93C33FADEC.png" width="780.00" height="54.00" transform="matrix(1.00, 0.00, -0.00, -1.00, 97.0, 572.0)"></image><text xml:space="preserve" font-family="HoeflerText-Regular,Hoefler Text" font-size="48.0" fill="#303030" transform="matrix(1.00, 0.00, -0.00, -1.00, 98.1, 535.3)">U</text><text xml:space="preserve" font-family="HoeflerText-Regular,Hoefler Text" font-size="48.0" fill="#303030" transform="matrix(1.00, 0.00, -0.00, -1.00, 132.8, 535.3)">s</text><text xml:space="preserve" font-family="HoeflerText-Regular,Hoefler Text" font-size="48.0" fill="#303030" transform="matrix(1.00, 0.00, -0.00, -1.00, 151.2, 535.3)">e</text><text xml:space="preserve" font-family="HoeflerText-Regular,Hoefler Text" font-size="48.0" fill="#303030" transform="matrix(1.00, 0.00, -0.00, -1.00, 173.6, 535.3)">r</text><text xml:space="preserve" font-family="HoeflerText-Regular,Hoefler Text" font-size="48.0" fill="#303030" transform="matrix(1.00, 0.00, -0.00, -1.00, 191.5, 535.3)">s</text><text xml:space="preserve" font-family="HoeflerText-Regular,Hoefler Text" font-size="48.0" fill="#303030" transform="matrix(1.00, 0.00, -0.00, -1.00, 209.8, 535.3)"> </text><text xml:space="preserve" font-family="HoeflerText-Regular,Hoefler Text" font-size="48.0" fill="#303030" transform="matrix(1.00, 0.00, -0.00, -1.00, 221.8, 535.3)">t</text><text xml:space="preserve" font-family="HoeflerText-Regular,Hoefler Text" font-size="48.0" fill="#303030" transform="matrix(1.00, 0.00, -0.00, -1.00, 239.5, 535.3)">r</text><text xml:space="preserve" font-family="HoeflerText-Regular,Hoefler Text" font-size="48.0" fill="#303030" transform="matrix(1.00, 0.00, -0.00, -1.00, 259.3, 535.3)">y</text><text xml:space="preserve" font-family="HoeflerText-Regular,Hoefler Text" font-size="48.0" fill="#303030" transform="matrix(1.00, 0.00, -0.00, -1.00, 281.3, 535.3)">i</text><text xml:space="preserve" font-family="HoeflerText-Regular,Hoefler Text" font-size="48.0" fill="#303030" transform="matrix(1.00, 0.00, -0.00, -1.00, 294.7, 535.3)">n</text><text xml:space="preserve" font-family="HoeflerText-Regular,Hoefler Text" font-size="48.0" fill="#303030" transform="matrix(1.00, 0.00, -0.00, -1.00, 321.0, 535.3)">g</text><text xml:space="preserve" font-family="HoeflerText-Regular,Hoefler Text" font-size="48.0" fill="#303030" transform="matrix(1.00, 0.00, -0.00, -1.00, 343.7, 535.3)"> </text><text xml:space="preserve" font-family="HoeflerText-Regular,Hoefler Text" font-size="48.0" fill="#303030" transform="matrix(1.00, 0.00, -0.00, -1.00, 355.7, 535.3)">t</text><text xml:space="preserve" font-family="HoeflerText-Regular,Hoefler Text" font-size="48.0" fill="#303030" transform="matrix(1.00, 0.00, -0.00, -1.00, 372.7, 535.3)">o</text><text xml:space="preserve" font-family="HoeflerText-Regular,Hoefler Text" font-size="48.0" fill="#303030" transform="matrix(1.00, 0.00, -0.00, -1.00, 398.4, 535.3)"> </text><text xml:space="preserve" font-family="HoeflerText-Regular,Hoefler Text" font-size="48.0" fill="#303030" transform="matrix(1.00, 0.00, -0.00, -1.00, 410.4, 535.3)">d</text><text xml:space="preserve" font-family="HoeflerText-Regular,Hoefler Text" font-size="48.0" fill="#303030" transform="matrix(1.00, 0.00, -0.00, -1.00, 436.4, 535.3)">e</text><text xml:space="preserve" font-family="HoeflerText-Regular,Hoefler Text" font-size="48.0" fill="#303030" transform="matrix(1.00, 0.00, -0.00, -1.00, 458.9, 535.3)">c</text><text xml:space="preserve" font-family="HoeflerText-Regular,Hoefler Text" font-size="48.0" fill="#303030" transform="matrix(1.00, 0.00, -0.00, -1.00, 481.1, 535.3)">r</text><text xml:space="preserve" font-family="HoeflerText-Regular,Hoefler Text" font-size="48.0" fill="#303030" transform="matrix(1.00, 0.00, -0.00, -1.00, 498.9, 535.3)">e</text><text xml:space="preserve" font-family="HoeflerText-Regular,Hoefler Text" font-size="48.0" fill="#303030" transform="matrix(1.00, 0.00, -0.00, -1.00, 521.4, 535.3)">a</text><text xml:space="preserve" font-family="HoeflerText-Regular,Hoefler Text" font-size="48.0" fill="#303030" transform="matrix(1.00, 0.00, -0.00, -1.00, 543.3, 535.3)">s</text><text xml:space="preserve" font-family="HoeflerText-Regular,Hoefler Text" font-size="48.0" fill="#303030" transform="matrix(1.00, 0.00, -0.00, -1.00, 561.6, 535.3)">e</text><text xml:space="preserve" font-family="HoeflerText-Regular,Hoefler Text" font-size="48.0" fill="#303030" transform="matrix(1.00, 0.00, -0.00, -1.00, 584.1, 535.3)"> </text><text xml:space="preserve" font-family="HoeflerText-Regular,Hoefler Text" font-size="48.0" fill="#303030" transform="matrix(1.00, 0.00, -0.00, -1.00, 596.1, 535.3)">E</text><text xml:space="preserve" font-family="HoeflerText-Regular,Hoefler Text" font-size="48.0" fill="#303030" transform="matrix(1.00, 0.00, -0.00, -1.00, 627.3, 535.3)">u</text><text xml:space="preserve" font-family="HoeflerText-Regular,Hoefler Text" font-size="48.0" fill="#303030" transform="matrix(1.00, 0.00, -0.00, -1.00, 652.4, 535.3)">r</text><text xml:space="preserve" font-family="HoeflerText-Regular,Hoefler Text" font-size="48.0" fill="#303030" transform="matrix(1.00, 0.00, -0.00, -1.00, 670.3, 535.3)">o</text><text xml:space="preserve" font-family="HoeflerText-Regular,Hoefler Text" font-size="48.0" fill="#303030" transform="matrix(1.00, 0.00, -0.00, -1.00, 696.0, 535.3)">c</text><text xml:space="preserve" font-family="HoeflerText-Regular,Hoefler Text" font-size="48.0" fill="#303030" transform="matrix(1.00, 0.00, -0.00, -1.00, 717.7, 535.3)">e</text><text xml:space="preserve" font-family="HoeflerText-Regular,Hoefler Text" font-size="48.0" fill="#303030" transform="matrix(1.00, 0.00, -0.00, -1.00, 740.2, 535.3)">n</text><text xml:space="preserve" font-family="HoeflerText-Regular,Hoefler Text" font-size="48.0" fill="#303030" transform="matrix(1.00, 0.00, -0.00, -1.00, 766.5, 535.3)">t</text><text xml:space="preserve" font-family="HoeflerText-Regular,Hoefler Text" font-size="48.0" fill="#303030" transform="matrix(1.00, 0.00, -0.00, -1.00, 784.2, 535.3)">r</text><text xml:space="preserve" font-family="HoeflerText-Regular,Hoefler Text" font-size="48.0" fill="#303030" transform="matrix(1.00, 0.00, -0.00, -1.00, 802.0, 535.3)">i</text><text xml:space="preserve" font-family="HoeflerText-Regular,Hoefler Text" font-size="48.0" fill="#303030" transform="matrix(1.00, 0.00, -0.00, -1.00, 815.5, 535.3)">s</text><text xml:space="preserve" font-family="HoeflerText-Regular,Hoefler Text" font-size="48.0" fill="#303030" transform="matrix(1.00, 0.00, -0.00, -1.00, 833.8, 535.3)">m</text><image xlink:href="../../31056429-9E15-400A-8230-D02FA5BBA935/assets/8FB77FB1AF6248F8B2DC7BE5CB1DCA9E.png" width="21.00" height="21.00" transform="matrix(1.00, 0.00, -0.00, -1.00, 69.0, 492.0)"></image><text xml:space="preserve" font-family="HoeflerText-Regular,Hoefler Text" font-size="60.0" fill="#303030" transform="matrix(1.00, 0.00, -0.00, -1.00, 68.1, 461.7)">•</text><image xlink:href="../../24486D96-C23C-4914-9CD5-D3347FFF4AD3/assets/3815175C4B3CFA58BABE4811C04448B1.png" width="466.00" height="54.00" transform="matrix(1.00, 0.00, -0.00, -1.00, 98.0, 502.0)"></image><text xml:space="preserve" font-family="HoeflerText-Regular,Hoefler Text" font-size="48.0" fill="#303030" transform="matrix(1.00, 0.00, -0.00, -1.00, 98.1, 465.3)">L</text><text xml:space="preserve" font-family="HoeflerText-Regular,Hoefler Text" font-size="48.0" fill="#303030" transform="matrix(1.00, 0.00, -0.00, -1.00, 127.8, 465.3)">e</text><text xml:space="preserve" font-family="HoeflerText-Regular,Hoefler Text" font-size="48.0" fill="#303030" transform="matrix(1.00, 0.00, -0.00, -1.00, 150.2, 465.3)">a</text><text xml:space="preserve" font-family="HoeflerText-Regular,Hoefler Text" font-size="48.0" fill="#303030" transform="matrix(1.00, 0.00, -0.00, -1.00, 171.7, 465.3)">r</text><text xml:space="preserve" font-family="HoeflerText-Regular,Hoefler Text" font-size="48.0" fill="#303030" transform="matrix(1.00, 0.00, -0.00, -1.00, 190.0, 465.3)">n</text><text xml:space="preserve" font-family="HoeflerText-Regular,Hoefler Text" font-size="48.0" fill="#303030" transform="matrix(1.00, 0.00, -0.00, -1.00, 216.3, 465.3)">a</text><text xml:space="preserve" font-family="HoeflerText-Regular,Hoefler Text" font-size="48.0" fill="#303030" transform="matrix(1.00, 0.00, -0.00, -1.00, 237.7, 465.3)">b</text><text xml:space="preserve" font-family="HoeflerText-Regular,Hoefler Text" font-size="48.0" fill="#303030" transform="matrix(1.00, 0.00, -0.00, -1.00, 264.0, 465.3)">i</text><text xml:space="preserve" font-family="HoeflerText-Regular,Hoefler Text" font-size="48.0" fill="#303030" transform="matrix(1.00, 0.00, -0.00, -1.00, 277.4, 465.3)">l</text><text xml:space="preserve" font-family="HoeflerText-Regular,Hoefler Text" font-size="48.0" fill="#303030" transform="matrix(1.00, 0.00, -0.00, -1.00, 289.9, 465.3)">i</text><text xml:space="preserve" font-family="HoeflerText-Regular,Hoefler Text" font-size="48.0" fill="#303030" transform="matrix(1.00, 0.00, -0.00, -1.00, 303.3, 465.3)">t</text><text xml:space="preserve" font-family="HoeflerText-Regular,Hoefler Text" font-size="48.0" fill="#303030" transform="matrix(1.00, 0.00, -0.00, -1.00, 321.0, 465.3)">y</text><text xml:space="preserve" font-family="HoeflerText-Regular,Hoefler Text" font-size="48.0" fill="#303030" transform="matrix(1.00, 0.00, -0.00, -1.00, 343.0, 465.3)"> </text><text xml:space="preserve" font-family="HoeflerText-Regular,Hoefler Text" font-size="48.0" fill="#303030" transform="matrix(1.00, 0.00, -0.00, -1.00, 355.0, 465.3)">l</text><text xml:space="preserve" font-family="HoeflerText-Regular,Hoefler Text" font-size="48.0" fill="#303030" transform="matrix(1.00, 0.00, -0.00, -1.00, 367.4, 465.3)">i</text><text xml:space="preserve" font-family="HoeflerText-Regular,Hoefler Text" font-size="48.0" fill="#303030" transform="matrix(1.00, 0.00, -0.00, -1.00, 380.9, 465.3)">m</text><text xml:space="preserve" font-family="HoeflerText-Regular,Hoefler Text" font-size="48.0" fill="#303030" transform="matrix(1.00, 0.00, -0.00, -1.00, 420.6, 465.3)">i</text><text xml:space="preserve" font-family="HoeflerText-Regular,Hoefler Text" font-size="48.0" fill="#303030" transform="matrix(1.00, 0.00, -0.00, -1.00, 434.0, 465.3)">t</text><text xml:space="preserve" font-family="HoeflerText-Regular,Hoefler Text" font-size="48.0" fill="#303030" transform="matrix(1.00, 0.00, -0.00, -1.00, 451.7, 465.3)">s</text><text xml:space="preserve" font-family="HoeflerText-Regular,Hoefler Text" font-size="48.0" fill="#303030" transform="matrix(1.00, 0.00, -0.00, -1.00, 470.1, 465.3)"> </text><text xml:space="preserve" font-family="HoeflerText-Regular,Hoefler Text" font-size="48.0" fill="#303030" transform="matrix(1.00, 0.00, -0.00, -1.00, 482.1, 465.3)">b</text><text xml:space="preserve" font-family="HoeflerText-Regular,Hoefler Text" font-size="48.0" fill="#303030" transform="matrix(1.00, 0.00, -0.00, -1.00, 508.4, 465.3)">i</text><text xml:space="preserve" font-family="HoeflerText-Regular,Hoefler Text" font-size="48.0" fill="#303030" transform="matrix(1.00, 0.00, -0.00, -1.00, 521.8, 465.3)">a</text><text xml:space="preserve" font-family="HoeflerText-Regular,Hoefler Text" font-size="48.0" fill="#303030" transform="matrix(1.00, 0.00, -0.00, -1.00, 543.7, 465.3)">s</text><text xml:space="preserve" font-family="HoeflerText-Regular,Hoefler Text" font-size="24.0" fill="#555239" transform="matrix(1.00, 0.00, -0.00, -1.00, 501.8, 12.7)"></text><image xlink:href="../../24486D96-C23C-4914-9CD5-D3347FFF4AD3/assets/7D01598168A145B10E9387010E9633EF.png" width="22.00" height="21.00" transform="matrix(1.00, 0.00, -0.00, -1.00, 501.0, 25.0)"></image><text xml:space="preserve" font-family="HoeflerText-Regular,Hoefler Text" font-size="24.0" fill="#555239" transform="matrix(1.00, 0.00, -0.00, -1.00, 501.8, 12.7)">3</text><text xml:space="preserve" font-family="HoeflerText-Regular,Hoefler Text" font-size="24.0" fill="#555239" transform="matrix(1.00, 0.00, -0.00, -1.00, 511.5, 12.7)">1</text><path d="M 91.0 326.0 L 131.0 326.0 L 131.0 306.0 L 91.0 306.0 Z M 91.0 326.0 " fill="#FF9300"></path><path d="M 91.0 290.0 L 171.0 290.0 L 171.0 270.0 L 91.0 270.0 Z M 91.0 290.0 " fill="#FF9300"></path><path d="M 91.0 187.0 L 291.0 187.0 L 291.0 167.0 L 91.0 167.0 Z M 91.0 187.0 " fill="#FF9300"></path><path d="M 91.0 151.0 L 491.0 151.0 L 491.0 131.0 L 91.0 131.0 Z M 91.0 151.0 " fill="#FF9300"></path><image xlink:href="../../24486D96-C23C-4914-9CD5-D3347FFF4AD3/assets/67309A7B21F8DF84D4D23D886FE6AF02.png" width="166.00" height="41.00" transform="matrix(1.00, 0.00, -0.00, -1.00, 95.0, 372.0)"></image><text xml:space="preserve" font-family="HoeflerText-Regular,Hoefler Text" font-size="38.0" fill="#000000" transform="matrix(1.00, 0.00, -0.00, -1.00, 95.3, 344.6)">E</text><text xml:space="preserve" font-family="HoeflerText-Regular,Hoefler Text" font-size="38.0" fill="#000000" transform="matrix(1.00, 0.00, -0.00, -1.00, 120.0, 344.6)">s</text><text xml:space="preserve" font-family="HoeflerText-Regular,Hoefler Text" font-size="38.0" fill="#000000" transform="matrix(1.00, 0.00, -0.00, -1.00, 134.5, 344.6)">p</text><text xml:space="preserve" font-family="HoeflerText-Regular,Hoefler Text" font-size="38.0" fill="#000000" transform="matrix(1.00, 0.00, -0.00, -1.00, 155.3, 344.6)">e</text><text xml:space="preserve" font-family="HoeflerText-Regular,Hoefler Text" font-size="38.0" fill="#000000" transform="matrix(1.00, 0.00, -0.00, -1.00, 173.1, 344.6)">r</text><text xml:space="preserve" font-family="HoeflerText-Regular,Hoefler Text" font-size="38.0" fill="#000000" transform="matrix(1.00, 0.00, -0.00, -1.00, 187.3, 344.6)">a</text><text xml:space="preserve" font-family="HoeflerText-Regular,Hoefler Text" font-size="38.0" fill="#000000" transform="matrix(1.00, 0.00, -0.00, -1.00, 204.2, 344.6)">n</text><text xml:space="preserve" font-family="HoeflerText-Regular,Hoefler Text" font-size="38.0" fill="#000000" transform="matrix(1.00, 0.00, -0.00, -1.00, 225.0, 344.6)">t</text><text xml:space="preserve" font-family="HoeflerText-Regular,Hoefler Text" font-size="38.0" fill="#000000" transform="matrix(1.00, 0.00, -0.00, -1.00, 238.5, 344.6)">o</text><image xlink:href="../../24486D96-C23C-4914-9CD5-D3347FFF4AD3/assets/586CBB88A85053EB68B2CBC826C71A8E.png" width="275.00" height="43.00" transform="matrix(1.00, 0.00, -0.00, -1.00, 94.0, 230.0)"></image><text xml:space="preserve" font-family="HoeflerText-Regular,Hoefler Text" font-size="38.0" fill="#000000" transform="matrix(1.00, 0.00, -0.00, -1.00, 95.3, 200.6)">N</text><text xml:space="preserve" font-family="HoeflerText-Regular,Hoefler Text" font-size="38.0" fill="#000000" transform="matrix(1.00, 0.00, -0.00, -1.00, 126.1, 200.6)">a</text><text xml:space="preserve" font-family="HoeflerText-Regular,Hoefler Text" font-size="38.0" fill="#000000" transform="matrix(1.00, 0.00, -0.00, -1.00, 143.1, 200.6)">t</text><text xml:space="preserve" font-family="HoeflerText-Regular,Hoefler Text" font-size="38.0" fill="#000000" transform="matrix(1.00, 0.00, -0.00, -1.00, 157.1, 200.6)">u</text><text xml:space="preserve" font-family="HoeflerText-Regular,Hoefler Text" font-size="38.0" fill="#000000" transform="matrix(1.00, 0.00, -0.00, -1.00, 177.0, 200.6)">r</text><text xml:space="preserve" font-family="HoeflerText-Regular,Hoefler Text" font-size="38.0" fill="#000000" transform="matrix(1.00, 0.00, -0.00, -1.00, 191.1, 200.6)">a</text><text xml:space="preserve" font-family="HoeflerText-Regular,Hoefler Text" font-size="38.0" fill="#000000" transform="matrix(1.00, 0.00, -0.00, -1.00, 208.1, 200.6)">l</text><text xml:space="preserve" font-family="HoeflerText-Regular,Hoefler Text" font-size="38.0" fill="#000000" transform="matrix(1.00, 0.00, -0.00, -1.00, 217.9, 200.6)"> </text><text xml:space="preserve" font-family="HoeflerText-Regular,Hoefler Text" font-size="38.0" fill="#000000" transform="matrix(1.00, 0.00, -0.00, -1.00, 227.4, 200.6)">l</text><text xml:space="preserve" font-family="HoeflerText-Regular,Hoefler Text" font-size="38.0" fill="#000000" transform="matrix(1.00, 0.00, -0.00, -1.00, 237.2, 200.6)">a</text><text xml:space="preserve" font-family="HoeflerText-Regular,Hoefler Text" font-size="38.0" fill="#000000" transform="matrix(1.00, 0.00, -0.00, -1.00, 254.2, 200.6)">n</text><text xml:space="preserve" font-family="HoeflerText-Regular,Hoefler Text" font-size="38.0" fill="#000000" transform="matrix(1.00, 0.00, -0.00, -1.00, 275.0, 200.6)">g</text><text xml:space="preserve" font-family="HoeflerText-Regular,Hoefler Text" font-size="38.0" fill="#000000" transform="matrix(1.00, 0.00, -0.00, -1.00, 292.9, 200.6)">u</text><text xml:space="preserve" font-family="HoeflerText-Regular,Hoefler Text" font-size="38.0" fill="#000000" transform="matrix(1.00, 0.00, -0.00, -1.00, 312.8, 200.6)">a</text><text xml:space="preserve" font-family="HoeflerText-Regular,Hoefler Text" font-size="38.0" fill="#000000" transform="matrix(1.00, 0.00, -0.00, -1.00, 330.7, 200.6)">g</text><text xml:space="preserve" font-family="HoeflerText-Regular,Hoefler Text" font-size="38.0" fill="#000000" transform="matrix(1.00, 0.00, -0.00, -1.00, 348.7, 200.6)">e</text><image xlink:href="../../24486D96-C23C-4914-9CD5-D3347FFF4AD3/assets/DE8F7B845D67AA405A5292ED5DFF2622.png" width="31.00" height="31.00" transform="matrix(1.00, 0.00, -0.00, -1.00, 53.0, 295.0)"></image><text xml:space="preserve" font-family="Helvetica,Helvetica" font-size="36.0" fill="#000000" transform="matrix(1.00, 0.00, -0.00, -1.00, 54.3, 267.8)">☹</text><image xlink:href="../../24486D96-C23C-4914-9CD5-D3347FFF4AD3/assets/DE8F7B845D67AA405A5292ED5DFF2622.png" width="31.00" height="31.00" transform="matrix(1.00, 0.00, -0.00, -1.00, 53.0, 156.0)"></image><text xml:space="preserve" font-family="Helvetica,Helvetica" font-size="36.0" fill="#000000" transform="matrix(1.00, 0.00, -0.00, -1.00, 54.3, 128.8)">☹</text><image xlink:href="../../24486D96-C23C-4914-9CD5-D3347FFF4AD3/assets/7032DD93E88A776967B28DFD3FBEC13D.png" width="31.00" height="31.00" transform="matrix(1.00, 0.00, -0.00, -1.00, 53.0, 331.0)"></image><text xml:space="preserve" font-family="Helvetica,Helvetica" font-size="36.0" fill="#000000" transform="matrix(1.00, 0.00, -0.00, -1.00, 54.3, 303.8)">☺</text><image xlink:href="../../24486D96-C23C-4914-9CD5-D3347FFF4AD3/assets/7032DD93E88A776967B28DFD3FBEC13D.png" width="31.00" height="31.00" transform="matrix(1.00, 0.00, -0.00, -1.00, 53.0, 192.0)"></image><text xml:space="preserve" font-family="Helvetica,Helvetica" font-size="36.0" fill="#000000" transform="matrix(1.00, 0.00, -0.00, -1.00, 54.3, 164.8)">☺</text><image xlink:href="../../24486D96-C23C-4914-9CD5-D3347FFF4AD3/assets/E33F1C62BC2C505253CB002C415C8BC1.png" width="482.00" height="43.00" transform="matrix(1.00, 0.00, -0.00, -1.00, 208.0, 320.0)"></image><text xml:space="preserve" font-family="HoeflerText-Regular,Hoefler Text" font-size="38.0" fill="#000000" transform="matrix(1.00, 0.00, -0.00, -1.00, 208.3, 290.6)">D</text><text xml:space="preserve" font-family="HoeflerText-Regular,Hoefler Text" font-size="38.0" fill="#000000" transform="matrix(1.00, 0.00, -0.00, -1.00, 239.7, 290.6)">i</text><text xml:space="preserve" font-family="HoeflerText-Regular,Hoefler Text" font-size="38.0" fill="#000000" transform="matrix(1.00, 0.00, -0.00, -1.00, 250.3, 290.6)">s</text><text xml:space="preserve" font-family="HoeflerText-Regular,Hoefler Text" font-size="38.0" fill="#000000" transform="matrix(1.00, 0.00, -0.00, -1.00, 264.8, 290.6)">a</text><text xml:space="preserve" font-family="HoeflerText-Regular,Hoefler Text" font-size="38.0" fill="#000000" transform="matrix(1.00, 0.00, -0.00, -1.00, 281.8, 290.6)">d</text><text xml:space="preserve" font-family="HoeflerText-Regular,Hoefler Text" font-size="38.0" fill="#000000" transform="matrix(1.00, 0.00, -0.00, -1.00, 302.4, 290.6)">v</text><text xml:space="preserve" font-family="HoeflerText-Regular,Hoefler Text" font-size="38.0" fill="#000000" transform="matrix(1.00, 0.00, -0.00, -1.00, 319.6, 290.6)">a</text><text xml:space="preserve" font-family="HoeflerText-Regular,Hoefler Text" font-size="38.0" fill="#000000" transform="matrix(1.00, 0.00, -0.00, -1.00, 336.6, 290.6)">n</text><text xml:space="preserve" font-family="HoeflerText-Regular,Hoefler Text" font-size="38.0" fill="#000000" transform="matrix(1.00, 0.00, -0.00, -1.00, 357.4, 290.6)">t</text><text xml:space="preserve" font-family="HoeflerText-Regular,Hoefler Text" font-size="38.0" fill="#000000" transform="matrix(1.00, 0.00, -0.00, -1.00, 371.4, 290.6)">a</text><text xml:space="preserve" font-family="HoeflerText-Regular,Hoefler Text" font-size="38.0" fill="#000000" transform="matrix(1.00, 0.00, -0.00, -1.00, 389.3, 290.6)">g</text><text xml:space="preserve" font-family="HoeflerText-Regular,Hoefler Text" font-size="38.0" fill="#000000" transform="matrix(1.00, 0.00, -0.00, -1.00, 407.3, 290.6)">e</text><text xml:space="preserve" font-family="HoeflerText-Regular,Hoefler Text" font-size="38.0" fill="#000000" transform="matrix(1.00, 0.00, -0.00, -1.00, 425.1, 290.6)">:</text><text xml:space="preserve" font-family="HoeflerText-Regular,Hoefler Text" font-size="38.0" fill="#000000" transform="matrix(1.00, 0.00, -0.00, -1.00, 434.4, 290.6)"> </text><text xml:space="preserve" font-family="HoeflerText-Regular,Hoefler Text" font-size="38.0" fill="#000000" transform="matrix(1.00, 0.00, -0.00, -1.00, 443.9, 290.6)">6</text><text xml:space="preserve" font-family="HoeflerText-Regular,Hoefler Text" font-size="38.0" fill="#000000" transform="matrix(1.00, 0.00, -0.00, -1.00, 463.9, 290.6)"> </text><text xml:space="preserve" font-family="HoeflerText-Regular,Hoefler Text" font-size="38.0" fill="#000000" transform="matrix(1.00, 0.00, -0.00, -1.00, 473.4, 290.6)">m</text><text xml:space="preserve" font-family="HoeflerText-Regular,Hoefler Text" font-size="38.0" fill="#000000" transform="matrix(1.00, 0.00, -0.00, -1.00, 504.9, 290.6)">o</text><text xml:space="preserve" font-family="HoeflerText-Regular,Hoefler Text" font-size="38.0" fill="#000000" transform="matrix(1.00, 0.00, -0.00, -1.00, 525.2, 290.6)">n</text><text xml:space="preserve" font-family="HoeflerText-Regular,Hoefler Text" font-size="38.0" fill="#000000" transform="matrix(1.00, 0.00, -0.00, -1.00, 546.0, 290.6)">t</text><text xml:space="preserve" font-family="HoeflerText-Regular,Hoefler Text" font-size="38.0" fill="#000000" transform="matrix(1.00, 0.00, -0.00, -1.00, 560.1, 290.6)">h</text><text xml:space="preserve" font-family="HoeflerText-Regular,Hoefler Text" font-size="38.0" fill="#000000" transform="matrix(1.00, 0.00, -0.00, -1.00, 581.1, 290.6)">s</text><text xml:space="preserve" font-family="HoeflerText-Regular,Hoefler Text" font-size="38.0" fill="#000000" transform="matrix(1.00, 0.00, -0.00, -1.00, 595.6, 290.6)"> </text><text xml:space="preserve" font-family="HoeflerText-Regular,Hoefler Text" font-size="38.0" fill="#000000" transform="matrix(1.00, 0.00, -0.00, -1.00, 605.1, 290.6)">e</text><text xml:space="preserve" font-family="HoeflerText-Regular,Hoefler Text" font-size="38.0" fill="#000000" transform="matrix(1.00, 0.00, -0.00, -1.00, 622.9, 290.6)">x</text><text xml:space="preserve" font-family="HoeflerText-Regular,Hoefler Text" font-size="38.0" fill="#000000" transform="matrix(1.00, 0.00, -0.00, -1.00, 641.2, 290.6)">t</text><text xml:space="preserve" font-family="HoeflerText-Regular,Hoefler Text" font-size="38.0" fill="#000000" transform="matrix(1.00, 0.00, -0.00, -1.00, 655.3, 290.6)">r</text><text xml:space="preserve" font-family="HoeflerText-Regular,Hoefler Text" font-size="38.0" fill="#000000" transform="matrix(1.00, 0.00, -0.00, -1.00, 669.4, 290.6)">a</text><image xlink:href="../../24486D96-C23C-4914-9CD5-D3347FFF4AD3/assets/E040BEF72F8C876D6FF3EF44BA702A7B.png" width="500.00" height="43.00" transform="matrix(1.00, 0.00, -0.00, -1.00, 398.0, 198.0)"></image><text xml:space="preserve" font-family="HoeflerText-Regular,Hoefler Text" font-size="38.0" fill="#000000" transform="matrix(1.00, 0.00, -0.00, -1.00, 398.3, 168.6)">D</text><text xml:space="preserve" font-family="HoeflerText-Regular,Hoefler Text" font-size="38.0" fill="#000000" transform="matrix(1.00, 0.00, -0.00, -1.00, 429.7, 168.6)">i</text><text xml:space="preserve" font-family="HoeflerText-Regular,Hoefler Text" font-size="38.0" fill="#000000" transform="matrix(1.00, 0.00, -0.00, -1.00, 440.3, 168.6)">s</text><text xml:space="preserve" font-family="HoeflerText-Regular,Hoefler Text" font-size="38.0" fill="#000000" transform="matrix(1.00, 0.00, -0.00, -1.00, 454.8, 168.6)">a</text><text xml:space="preserve" font-family="HoeflerText-Regular,Hoefler Text" font-size="38.0" fill="#000000" transform="matrix(1.00, 0.00, -0.00, -1.00, 471.8, 168.6)">d</text><text xml:space="preserve" font-family="HoeflerText-Regular,Hoefler Text" font-size="38.0" fill="#000000" transform="matrix(1.00, 0.00, -0.00, -1.00, 492.4, 168.6)">v</text><text xml:space="preserve" font-family="HoeflerText-Regular,Hoefler Text" font-size="38.0" fill="#000000" transform="matrix(1.00, 0.00, -0.00, -1.00, 509.6, 168.6)">a</text><text xml:space="preserve" font-family="HoeflerText-Regular,Hoefler Text" font-size="38.0" fill="#000000" transform="matrix(1.00, 0.00, -0.00, -1.00, 526.6, 168.6)">n</text><text xml:space="preserve" font-family="HoeflerText-Regular,Hoefler Text" font-size="38.0" fill="#000000" transform="matrix(1.00, 0.00, -0.00, -1.00, 547.4, 168.6)">t</text><text xml:space="preserve" font-family="HoeflerText-Regular,Hoefler Text" font-size="38.0" fill="#000000" transform="matrix(1.00, 0.00, -0.00, -1.00, 561.4, 168.6)">a</text><text xml:space="preserve" font-family="HoeflerText-Regular,Hoefler Text" font-size="38.0" fill="#000000" transform="matrix(1.00, 0.00, -0.00, -1.00, 579.3, 168.6)">g</text><text xml:space="preserve" font-family="HoeflerText-Regular,Hoefler Text" font-size="38.0" fill="#000000" transform="matrix(1.00, 0.00, -0.00, -1.00, 597.3, 168.6)">e</text><text xml:space="preserve" font-family="HoeflerText-Regular,Hoefler Text" font-size="38.0" fill="#000000" transform="matrix(1.00, 0.00, -0.00, -1.00, 615.1, 168.6)">:</text><text xml:space="preserve" font-family="HoeflerText-Regular,Hoefler Text" font-size="38.0" fill="#000000" transform="matrix(1.00, 0.00, -0.00, -1.00, 624.4, 168.6)"> </text><text xml:space="preserve" font-family="HoeflerText-Regular,Hoefler Text" font-size="38.0" fill="#000000" transform="matrix(1.00, 0.00, -0.00, -1.00, 633.9, 168.6)">3</text><text xml:space="preserve" font-family="HoeflerText-Regular,Hoefler Text" font-size="38.0" fill="#000000" transform="matrix(1.00, 0.00, -0.00, -1.00, 649.3, 168.6)">0</text><text xml:space="preserve" font-family="HoeflerText-Regular,Hoefler Text" font-size="38.0" fill="#000000" transform="matrix(1.00, 0.00, -0.00, -1.00, 672.0, 168.6)"> </text><text xml:space="preserve" font-family="HoeflerText-Regular,Hoefler Text" font-size="38.0" fill="#000000" transform="matrix(1.00, 0.00, -0.00, -1.00, 681.5, 168.6)">m</text><text xml:space="preserve" font-family="HoeflerText-Regular,Hoefler Text" font-size="38.0" fill="#000000" transform="matrix(1.00, 0.00, -0.00, -1.00, 712.9, 168.6)">o</text><text xml:space="preserve" font-family="HoeflerText-Regular,Hoefler Text" font-size="38.0" fill="#000000" transform="matrix(1.00, 0.00, -0.00, -1.00, 733.3, 168.6)">n</text><text xml:space="preserve" font-family="HoeflerText-Regular,Hoefler Text" font-size="38.0" fill="#000000" transform="matrix(1.00, 0.00, -0.00, -1.00, 754.1, 168.6)">t</text><text xml:space="preserve" font-family="HoeflerText-Regular,Hoefler Text" font-size="38.0" fill="#000000" transform="matrix(1.00, 0.00, -0.00, -1.00, 768.1, 168.6)">h</text><text xml:space="preserve" font-family="HoeflerText-Regular,Hoefler Text" font-size="38.0" fill="#000000" transform="matrix(1.00, 0.00, -0.00, -1.00, 789.2, 168.6)">s</text><text xml:space="preserve" font-family="HoeflerText-Regular,Hoefler Text" font-size="38.0" fill="#000000" transform="matrix(1.00, 0.00, -0.00, -1.00, 803.7, 168.6)"> </text><text xml:space="preserve" font-family="HoeflerText-Regular,Hoefler Text" font-size="38.0" fill="#000000" transform="matrix(1.00, 0.00, -0.00, -1.00, 813.2, 168.6)">e</text><text xml:space="preserve" font-family="HoeflerText-Regular,Hoefler Text" font-size="38.0" fill="#000000" transform="matrix(1.00, 0.00, -0.00, -1.00, 831.0, 168.6)">x</text><text xml:space="preserve" font-family="HoeflerText-Regular,Hoefler Text" font-size="38.0" fill="#000000" transform="matrix(1.00, 0.00, -0.00, -1.00, 849.3, 168.6)">t</text><text xml:space="preserve" font-family="HoeflerText-Regular,Hoefler Text" font-size="38.0" fill="#000000" transform="matrix(1.00, 0.00, -0.00, -1.00, 863.3, 168.6)">r</text><text xml:space="preserve" font-family="HoeflerText-Regular,Hoefler Text" font-size="38.0" fill="#000000" transform="matrix(1.00, 0.00, -0.00, -1.00, 877.4, 168.6)">a</text></g></svg>