<?xml version="1.0" encoding="UTF-8" standalone="no"?><svg xmlns="http://www.w3.org/2000/svg" xmlns:xlink="http://www.w3.org/1999/xlink" clip-rule="evenodd" stroke-miterlimit="10" viewBox="0 0 883 133"><desc>SVG generated by Keynote</desc><defs></defs><g transform="matrix(1.00, 0.00, -0.00, -1.00, 0.0, 133.0)"><image xlink:href="../../31056429-9E15-400A-8230-D02FA5BBA935/assets/13885E107BF5B665641C71C8083581DD.png" width="226.00" height="41.00" transform="matrix(1.00, 0.00, -0.00, -1.00, 1.0, 130.0)"></image><text xml:space="preserve" font-family="HoeflerText-Black,Hoefler Text" font-weight="bold" font-size="48.0" fill="#303030" transform="matrix(1.00, 0.00, -0.00, -1.00, 2.1, 93.3)">U</text><text xml:space="preserve" font-family="HoeflerText-Black,Hoefler Text" font-weight="bold" font-size="48.0" fill="#303030" transform="matrix(1.00, 0.00, -0.00, -1.00, 39.3, 93.3)">n</text><text xml:space="preserve" font-family="HoeflerText-Black,Hoefler Text" font-weight="bold" font-size="48.0" fill="#303030" transform="matrix(1.00, 0.00, -0.00, -1.00, 69.3, 93.3)">i</text><text xml:space="preserve" font-family="HoeflerText-Black,Hoefler Text" font-weight="bold" font-size="48.0" fill="#303030" transform="matrix(1.00, 0.00, -0.00, -1.00, 85.1, 93.3)">v</text><text xml:space="preserve" font-family="HoeflerText-Black,Hoefler Text" font-weight="bold" font-size="48.0" fill="#303030" transform="matrix(1.00, 0.00, -0.00, -1.00, 111.0, 93.3)">e</text><text xml:space="preserve" font-family="HoeflerText-Black,Hoefler Text" font-weight="bold" font-size="48.0" fill="#303030" transform="matrix(1.00, 0.00, -0.00, -1.00, 136.9, 93.3)">r</text><text xml:space="preserve" font-family="HoeflerText-Black,Hoefler Text" font-weight="bold" font-size="48.0" fill="#303030" transform="matrix(1.00, 0.00, -0.00, -1.00, 159.4, 93.3)">s</text><text xml:space="preserve" font-family="HoeflerText-Black,Hoefler Text" font-weight="bold" font-size="48.0" fill="#303030" transform="matrix(1.00, 0.00, -0.00, -1.00, 182.2, 93.3)">a</text><text xml:space="preserve" font-family="HoeflerText-Black,Hoefler Text" font-weight="bold" font-size="48.0" fill="#303030" transform="matrix(1.00, 0.00, -0.00, -1.00, 207.8, 93.3)">l</text><image xlink:href="../../6EBD4AB0-9928-4E8A-B858-3090DE368A6B/assets/0B363F7F468B37998ED10DB0620CD551.png" width="643.00" height="47.00" transform="matrix(1.00, 0.00, -0.00, -1.00, 236.0, 132.0)"></image><text xml:space="preserve" font-family="HoeflerText-Regular,Hoefler Text" font-size="48.0" fill="#303030" transform="matrix(1.00, 0.00, -0.00, -1.00, 223.0, 93.3)"> </text><text xml:space="preserve" font-family="HoeflerText-Regular,Hoefler Text" font-size="48.0" fill="#303030" transform="matrix(1.00, 0.00, -0.00, -1.00, 235.0, 93.3)">(</text><text xml:space="preserve" font-family="HoeflerText-Regular,Hoefler Text" font-size="48.0" fill="#303030" transform="matrix(1.00, 0.00, -0.00, -1.00, 249.1, 93.3)">w</text><text xml:space="preserve" font-family="HoeflerText-Regular,Hoefler Text" font-size="48.0" fill="#303030" transform="matrix(1.00, 0.00, -0.00, -1.00, 282.3, 93.3)">o</text><text xml:space="preserve" font-family="HoeflerText-Regular,Hoefler Text" font-size="48.0" fill="#303030" transform="matrix(1.00, 0.00, -0.00, -1.00, 308.1, 93.3)">r</text><text xml:space="preserve" font-family="HoeflerText-Regular,Hoefler Text" font-size="48.0" fill="#303030" transform="matrix(1.00, 0.00, -0.00, -1.00, 325.9, 93.3)">l</text><text xml:space="preserve" font-family="HoeflerText-Regular,Hoefler Text" font-size="48.0" fill="#303030" transform="matrix(1.00, 0.00, -0.00, -1.00, 338.4, 93.3)">d</text><text xml:space="preserve" font-family="HoeflerText-Regular,Hoefler Text" font-size="48.0" fill="#303030" transform="matrix(1.00, 0.00, -0.00, -1.00, 364.4, 93.3)">-</text><text xml:space="preserve" font-family="HoeflerText-Regular,Hoefler Text" font-size="48.0" fill="#303030" transform="matrix(1.00, 0.00, -0.00, -1.00, 379.6, 93.3)">w</text><text xml:space="preserve" font-family="HoeflerText-Regular,Hoefler Text" font-size="48.0" fill="#303030" transform="matrix(1.00, 0.00, -0.00, -1.00, 413.1, 93.3)">i</text><text xml:space="preserve" font-family="HoeflerText-Regular,Hoefler Text" font-size="48.0" fill="#303030" transform="matrix(1.00, 0.00, -0.00, -1.00, 426.6, 93.3)">d</text><text xml:space="preserve" font-family="HoeflerText-Regular,Hoefler Text" font-size="48.0" fill="#303030" transform="matrix(1.00, 0.00, -0.00, -1.00, 452.6, 93.3)">e</text><text xml:space="preserve" font-family="HoeflerText-Regular,Hoefler Text" font-size="48.0" fill="#303030" transform="matrix(1.00, 0.00, -0.00, -1.00, 475.1, 93.3)"> </text><text xml:space="preserve" font-family="HoeflerText-Regular,Hoefler Text" font-size="48.0" fill="#303030" transform="matrix(1.00, 0.00, -0.00, -1.00, 487.1, 93.3)">u</text><text xml:space="preserve" font-family="HoeflerText-Regular,Hoefler Text" font-size="48.0" fill="#303030" transform="matrix(1.00, 0.00, -0.00, -1.00, 512.2, 93.3)">s</text><text xml:space="preserve" font-family="HoeflerText-Regular,Hoefler Text" font-size="48.0" fill="#303030" transform="matrix(1.00, 0.00, -0.00, -1.00, 530.5, 93.3)">e</text><text xml:space="preserve" font-family="HoeflerText-Regular,Hoefler Text" font-size="48.0" fill="#303030" transform="matrix(1.00, 0.00, -0.00, -1.00, 553.0, 93.3)"> </text><text xml:space="preserve" font-family="HoeflerText-Regular,Hoefler Text" font-size="48.0" fill="#303030" transform="matrix(1.00, 0.00, -0.00, -1.00, 565.0, 93.3)">i</text><text xml:space="preserve" font-family="HoeflerText-Regular,Hoefler Text" font-size="48.0" fill="#303030" transform="matrix(1.00, 0.00, -0.00, -1.00, 578.4, 93.3)">n</text><text xml:space="preserve" font-family="HoeflerText-Regular,Hoefler Text" font-size="48.0" fill="#303030" transform="matrix(1.00, 0.00, -0.00, -1.00, 604.7, 93.3)"> </text><text xml:space="preserve" font-family="HoeflerText-Regular,Hoefler Text" font-size="48.0" fill="#303030" transform="matrix(1.00, 0.00, -0.00, -1.00, 616.7, 93.3)">a</text><text xml:space="preserve" font-family="HoeflerText-Regular,Hoefler Text" font-size="48.0" fill="#303030" transform="matrix(1.00, 0.00, -0.00, -1.00, 638.1, 93.3)">l</text><text xml:space="preserve" font-family="HoeflerText-Regular,Hoefler Text" font-size="48.0" fill="#303030" transform="matrix(1.00, 0.00, -0.00, -1.00, 651.0, 93.3)">l</text><text xml:space="preserve" font-family="HoeflerText-Regular,Hoefler Text" font-size="48.0" fill="#303030" transform="matrix(1.00, 0.00, -0.00, -1.00, 663.5, 93.3)"> </text><text xml:space="preserve" font-family="HoeflerText-Regular,Hoefler Text" font-size="48.0" fill="#303030" transform="matrix(1.00, 0.00, -0.00, -1.00, 675.5, 93.3)">d</text><text xml:space="preserve" font-family="HoeflerText-Regular,Hoefler Text" font-size="48.0" fill="#303030" transform="matrix(1.00, 0.00, -0.00, -1.00, 701.5, 93.3)">o</text><text xml:space="preserve" font-family="HoeflerText-Regular,Hoefler Text" font-size="48.0" fill="#303030" transform="matrix(1.00, 0.00, -0.00, -1.00, 727.2, 93.3)">m</text><text xml:space="preserve" font-family="HoeflerText-Regular,Hoefler Text" font-size="48.0" fill="#303030" transform="matrix(1.00, 0.00, -0.00, -1.00, 766.9, 93.3)">a</text><text xml:space="preserve" font-family="HoeflerText-Regular,Hoefler Text" font-size="48.0" fill="#303030" transform="matrix(1.00, 0.00, -0.00, -1.00, 788.3, 93.3)">i</text><text xml:space="preserve" font-family="HoeflerText-Regular,Hoefler Text" font-size="48.0" fill="#303030" transform="matrix(1.00, 0.00, -0.00, -1.00, 801.8, 93.3)">n</text><text xml:space="preserve" font-family="HoeflerText-Regular,Hoefler Text" font-size="48.0" fill="#303030" transform="matrix(1.00, 0.00, -0.00, -1.00, 828.1, 93.3)">s</text><text xml:space="preserve" font-family="HoeflerText-Regular,Hoefler Text" font-size="48.0" fill="#303030" transform="matrix(1.00, 0.00, -0.00, -1.00, 846.4, 93.3)">)</text><text xml:space="preserve" font-family="HoeflerText-Regular,Hoefler Text" font-size="48.0" fill="#303030" transform="matrix(1.00, 0.00, -0.00, -1.00, 860.6, 93.3)">?</text><image xlink:href="../../31056429-9E15-400A-8230-D02FA5BBA935/assets/8FB77FB1AF6248F8B2DC7BE5CB1DCA9E.png" width="21.00" height="21.00" transform="matrix(1.00, 0.00, -0.00, -1.00, 21.0, 50.0)"></image><text xml:space="preserve" font-family="HoeflerText-Regular,Hoefler Text" font-size="60.0" fill="#303030" transform="matrix(1.00, 0.00, -0.00, -1.00, 20.1, 19.7)">•</text><image xlink:href="../../459D4028-F090-479E-A358-535E85FB9157/assets/4815CAFAEDB80462DED2C437200ED49E.png" width="370.00" height="41.00" transform="matrix(1.00, 0.00, -0.00, -1.00, 49.0, 60.0)"></image><text xml:space="preserve" font-family="HoeflerText-Regular,Hoefler Text" font-size="48.0" fill="#303030" transform="matrix(1.00, 0.00, -0.00, -1.00, 50.1, 23.3)">U</text><text xml:space="preserve" font-family="HoeflerText-Regular,Hoefler Text" font-size="48.0" fill="#303030" transform="matrix(1.00, 0.00, -0.00, -1.00, 84.8, 23.3)">s</text><text xml:space="preserve" font-family="HoeflerText-Regular,Hoefler Text" font-size="48.0" fill="#303030" transform="matrix(1.00, 0.00, -0.00, -1.00, 103.2, 23.3)">e</text><text xml:space="preserve" font-family="HoeflerText-Regular,Hoefler Text" font-size="48.0" fill="#303030" transform="matrix(1.00, 0.00, -0.00, -1.00, 125.6, 23.3)">d</text><text xml:space="preserve" font-family="HoeflerText-Regular,Hoefler Text" font-size="48.0" fill="#303030" transform="matrix(1.00, 0.00, -0.00, -1.00, 151.6, 23.3)"> </text><text xml:space="preserve" font-family="HoeflerText-Regular,Hoefler Text" font-size="48.0" fill="#303030" transform="matrix(1.00, 0.00, -0.00, -1.00, 163.6, 23.3)">i</text><text xml:space="preserve" font-family="HoeflerText-Regular,Hoefler Text" font-size="48.0" fill="#303030" transform="matrix(1.00, 0.00, -0.00, -1.00, 177.1, 23.3)">n</text><text xml:space="preserve" font-family="HoeflerText-Regular,Hoefler Text" font-size="48.0" fill="#303030" transform="matrix(1.00, 0.00, -0.00, -1.00, 203.4, 23.3)"> </text><text xml:space="preserve" font-family="HoeflerText-Regular,Hoefler Text" font-size="48.0" fill="#303030" transform="matrix(1.00, 0.00, -0.00, -1.00, 215.4, 23.3)">e</text><text xml:space="preserve" font-family="HoeflerText-Regular,Hoefler Text" font-size="48.0" fill="#303030" transform="matrix(1.00, 0.00, -0.00, -1.00, 237.8, 23.3)">d</text><text xml:space="preserve" font-family="HoeflerText-Regular,Hoefler Text" font-size="48.0" fill="#303030" transform="matrix(1.00, 0.00, -0.00, -1.00, 263.9, 23.3)">u</text><text xml:space="preserve" font-family="HoeflerText-Regular,Hoefler Text" font-size="48.0" fill="#303030" transform="matrix(1.00, 0.00, -0.00, -1.00, 289.0, 23.3)">c</text><text xml:space="preserve" font-family="HoeflerText-Regular,Hoefler Text" font-size="48.0" fill="#303030" transform="matrix(1.00, 0.00, -0.00, -1.00, 311.1, 23.3)">a</text><text xml:space="preserve" font-family="HoeflerText-Regular,Hoefler Text" font-size="48.0" fill="#303030" transform="matrix(1.00, 0.00, -0.00, -1.00, 332.6, 23.3)">t</text><text xml:space="preserve" font-family="HoeflerText-Regular,Hoefler Text" font-size="48.0" fill="#303030" transform="matrix(1.00, 0.00, -0.00, -1.00, 350.3, 23.3)">i</text><text xml:space="preserve" font-family="HoeflerText-Regular,Hoefler Text" font-size="48.0" fill="#303030" transform="matrix(1.00, 0.00, -0.00, -1.00, 363.7, 23.3)">o</text><text xml:space="preserve" font-family="HoeflerText-Regular,Hoefler Text" font-size="48.0" fill="#303030" transform="matrix(1.00, 0.00, -0.00, -1.00, 389.4, 23.3)">n</text></g></svg>